<svg width="40" height="28" viewBox="0 0 40 28" fill="none" xmlns="http://www.w3.org/2000/svg">
<path d="M0 1.5C0 0.671573 0.671573 0 1.5 0H38.5C39.3284 0 40 0.671573 40 1.5C40 2.32843 39.3284 3 38.5 3H1.5C0.671574 3 0 2.32843 0 1.5Z" fill="currentColor"/>
<path d="M8 14.5C8 13.6716 8.67157 13 9.5 13H38.5C39.3284 13 40 13.6716 40 14.5C40 15.3284 39.3284 16 38.5 16H9.5C8.67157 16 8 15.3284 8 14.5Z" fill="currentColor"/>
<path d="M0 26.5C0 25.6716 0.671573 25 1.5 25H38.5C39.3284 25 40 25.6716 40 26.5C40 27.3284 39.3284 28 38.5 28H1.5C0.671574 28 0 27.3284 0 26.5Z" fill="currentColor"/>
</svg>
