<svg width="50" height="50" viewBox="0 0 50 50" fill="none" xmlns="http://www.w3.org/2000/svg">
<path d="M4.02707 25.7179C4.13762 25.7181 4.2468 25.6933 4.34641 25.6454C4.44601 25.5974 4.53346 25.5275 4.60219 25.4409C4.67092 25.3543 4.71914 25.2532 4.74324 25.1453C4.76735 25.0375 4.7667 24.9255 4.74135 24.8179C4.6726 24.5232 4.52974 23.9125 4.73064 23.6482C4.87349 23.4607 5.25474 23.3473 5.80296 23.3286C7.97974 23.2518 8.6476 22.2465 9.29224 21.2732C9.63867 20.7527 9.99582 20.2134 10.6476 19.709C11.2887 19.2125 11.5628 19.2027 11.6074 19.2054C11.6485 19.2482 11.9342 19.6161 11.8289 21.2295C11.7735 22.0768 11.936 22.6991 12.3289 23.1313C12.8771 23.7384 13.6753 23.7652 14.3172 23.7866C14.6056 23.7965 14.878 23.8063 15.0762 23.8616C15.6994 24.0348 16.2458 23.9795 16.6851 23.9357C16.9556 23.909 17.2351 23.8804 17.2949 23.9456C17.5869 24.2643 17.9217 24.4197 18.2878 24.4116C18.9789 24.392 19.4476 23.8215 20.1565 22.9572L20.3583 22.7116C20.3826 22.681 20.4101 22.6532 20.4405 22.6286C20.5414 22.6509 20.7664 22.7875 20.9181 22.8795C21.4601 23.2098 22.278 23.7063 23.2976 23.2697C24.4199 22.7893 24.7101 22.4331 25.2592 21.6723C25.4583 21.3973 25.7056 21.0545 26.0824 20.6054C26.7458 19.8143 27.7056 19.5848 28.1021 19.7679C28.1646 19.7965 28.3556 19.8848 28.2655 20.4134C28.136 21.1688 28.2824 21.7375 28.6985 22.1027C29.419 22.7366 30.5431 22.3911 31.3637 22.1393C31.5512 22.0813 31.7646 22.0161 31.8574 22.0027C31.9289 21.9965 32.1422 22.0473 32.2842 22.0831C32.994 22.259 34.4717 22.6232 35.2047 20.5277C35.7003 19.1134 36.0619 19.0607 37.1378 18.9027C37.2564 18.8856 37.3748 18.8678 37.4931 18.8491C39.8789 18.467 40.3235 16.9054 40.6824 15.65C40.7842 15.2929 40.8797 14.9572 41.0128 14.6491C41.2315 14.1456 41.6342 13.8875 42.144 13.5598C42.7994 13.1402 43.6146 12.617 43.9583 11.4491C44.1226 10.8893 44.594 10.5679 44.8476 10.4857C44.8405 10.6286 44.7931 10.8831 44.6369 11.2679C44.0851 12.6206 43.9717 13.3661 44.2324 13.9313C44.4708 14.4482 44.9467 14.6054 45.2324 14.7C45.3422 14.7357 45.4458 14.7715 45.4958 14.8054C45.7256 14.6922 45.9231 14.5228 46.0698 14.3128C46.2166 14.1029 46.3078 13.8592 46.3351 13.6045C46.1065 13.4465 45.8771 13.3706 45.6922 13.3098C45.6495 13.2956 45.6069 13.2807 45.5646 13.2652C45.5672 13.1215 45.6217 12.7322 45.9931 11.8206C46.4217 10.7697 46.4199 9.97503 45.9896 9.45806C45.6717 9.07503 45.1681 8.92235 44.611 9.03753C43.8324 9.19824 42.8753 9.93663 42.5521 11.0357C42.3628 11.6786 41.9396 11.9509 41.353 12.3268C40.7494 12.7143 40.0646 13.1536 39.669 14.0661C39.4976 14.4625 39.3833 14.8616 39.2735 15.2482C38.9431 16.4045 38.7262 17.1679 37.2619 17.4018C37.1458 17.4206 37.0333 17.4375 36.9253 17.4527C35.7342 17.6277 34.6101 17.7929 33.8226 20.0438C33.5289 20.8822 33.3217 20.8304 32.6351 20.6607C32.3172 20.5822 31.9887 20.5018 31.6422 20.5536C31.4387 20.584 31.2047 20.6554 30.9342 20.7384C30.6574 20.8232 29.9556 21.0393 29.6887 20.9973C29.6794 20.8844 29.6863 20.7708 29.7092 20.6598C29.8842 19.6366 29.5128 18.8063 28.7181 18.4375C27.6155 17.9277 25.9646 18.4661 24.9592 19.6643C24.5485 20.1536 24.2842 20.5197 24.0717 20.8143C23.6235 21.4348 23.5172 21.5822 22.7208 21.9232C22.4244 22.05 22.1878 21.9366 21.6797 21.6286C21.1771 21.3223 20.1306 20.6866 19.2289 21.7786L19.0235 22.0286C18.7753 22.3313 18.4789 22.6938 18.2887 22.8679C17.7467 22.3563 17.0797 22.4241 16.5387 22.4777C16.1726 22.5143 15.8271 22.5491 15.469 22.45C15.103 22.3473 14.7289 22.3348 14.3672 22.3223C13.9833 22.3098 13.5467 22.2947 13.4146 22.1482C13.3646 22.0938 13.253 21.9027 13.2905 21.3259C13.369 20.1277 13.3512 18.4706 12.294 17.909C11.2762 17.3679 10.1271 18.2581 9.74939 18.5509C8.90832 19.2027 8.44492 19.9018 8.07171 20.4634C7.49403 21.3348 7.17528 21.8143 5.75207 21.8643C4.72885 21.9 3.99314 22.2009 3.56724 22.759C2.94492 23.5715 3.19492 24.6393 3.31546 25.1518C3.35293 25.3127 3.44373 25.4562 3.57308 25.559C3.70244 25.6618 3.86186 25.7178 4.02707 25.7179ZM48.5476 21.1313C48.3414 20.8759 48.1396 20.6456 47.944 20.4232C47.0565 19.4125 46.7914 19.0322 47.0485 18.4018C47.1065 18.259 47.1583 18.1054 47.2012 17.9465C47.2522 17.759 47.2267 17.559 47.1302 17.3904C47.0338 17.2218 46.8743 17.0984 46.6869 17.0473C46.4995 16.9963 46.2994 17.0218 46.1308 17.1183C45.9622 17.2147 45.8388 17.3742 45.7878 17.5616C45.7615 17.6593 45.7293 17.7553 45.6914 17.8491C45.0708 19.3715 45.9717 20.3973 46.8431 21.3893C47.028 21.6009 47.2208 21.8197 47.4074 22.0518C48.0521 22.8491 48.4806 24.1545 48.5378 24.775C47.0217 24.3822 46.1762 23.6795 46.0208 22.6848L45.9806 22.4206C45.8021 21.2465 45.6172 20.0331 44.5878 19.7759C43.9414 19.6143 43.1083 19.8295 42.561 20.2973C42.0789 20.7098 41.8458 21.2857 41.903 21.9179C41.9208 22.1143 41.9476 22.3215 41.9753 22.5402C42.0735 23.3045 42.2217 24.459 41.7949 24.7509C40.7414 25.4715 40.628 26.5929 40.5083 27.7804C40.4815 28.0375 40.4556 28.3036 40.419 28.5777C40.3146 29.3616 40.5958 29.7777 40.8503 29.9884C41.4914 30.5206 42.411 30.2161 43.1494 29.9723C43.3137 29.9179 43.469 29.8661 43.5833 29.8384C43.8485 29.7715 44.2235 30.2402 44.7601 31.3134C44.9172 31.6277 45.0914 31.8973 45.2449 32.1348C45.7539 32.9197 46.1547 33.5393 45.7039 35.6563C45.5074 36.5786 45.2217 36.8813 45.1297 36.9304C45.0601 36.8848 44.9333 36.6759 45.0101 36.4259C45.3351 35.3688 45.3271 34.5491 44.9869 33.9884C44.8796 33.8099 44.7348 33.6569 44.5624 33.54C44.39 33.4231 44.1942 33.3452 43.9887 33.3116C43.553 33.2331 43.2789 33.2929 42.9771 33.534C42.9003 33.5947 42.6976 33.7572 41.6744 33.9313C40.5262 34.1277 40.3039 33.9447 39.7672 33.5054C39.5226 33.3054 39.219 33.0563 38.7976 32.8134C38.0842 32.4018 37.5664 32.5134 37.2583 32.6795C36.3539 33.1661 36.2262 34.5509 36.0931 36.7697C36.0744 37.0822 36.0074 37.3 35.9047 37.3831C35.6717 37.5715 34.9289 37.4581 34.3333 37.3679C33.6244 37.2598 32.8217 37.1375 32.0896 37.3054C31.0931 37.5331 30.3726 37.2741 29.7949 37.0652C29.4503 36.9411 29.1539 36.8348 28.836 36.8348C28.0708 36.8348 27.8592 37.5777 27.769 37.8956C27.7378 38.0054 27.6797 38.2063 27.6324 38.2706C27.5967 38.2759 27.4628 38.2848 27.1699 38.1822C25.6878 37.6616 24.803 38.217 24.2164 38.584C23.9012 38.7822 23.7128 38.8947 23.511 38.8947C22.8512 38.8947 21.2717 38.7268 20.8521 37.175C20.4324 35.6188 19.2199 35.5009 18.5681 35.4366C18.4915 35.4297 18.415 35.4213 18.3387 35.4116C18.0771 33.8866 16.4905 33.8134 14.5021 33.7206C13.1887 33.659 12.5833 34.0134 12.4128 34.942C12.4074 34.9741 12.3994 35.0143 12.3931 35.042C12.3412 35.0666 12.2867 35.0854 12.2306 35.0982C11.3065 35.3286 10.3556 34.1607 10.2414 33.8063C10.0467 33.2036 9.36635 32.2545 7.00474 32.6759C5.68957 32.9107 5.60474 34.1956 5.55832 34.8866C5.55207 34.9875 5.54314 35.1188 5.53153 35.2286C4.64135 35.3054 4.22974 36.2366 3.95117 36.9027C3.75474 36.2304 3.36099 35.3277 2.16278 34.6652C1.85296 34.4938 1.48064 34.2125 1.46278 33.8402C1.45786 33.6738 1.5123 33.5112 1.61635 33.3813C2.15564 33.3947 3.75296 33.3456 4.41814 32.3375C4.6976 31.9152 4.90474 31.184 4.30832 30.1009C4.01514 29.5852 3.90708 28.9847 4.00207 28.3991C4.03107 28.207 3.98256 28.0112 3.86719 27.8548C3.75182 27.6984 3.57905 27.5942 3.38689 27.5652C3.19472 27.5362 2.99891 27.5847 2.84252 27.7001C2.68612 27.8155 2.58197 27.9882 2.55296 28.1804C2.41071 29.0846 2.57743 30.0103 3.02617 30.8081C3.2101 31.1429 3.27349 31.4125 3.19582 31.5313C2.98957 31.8438 2.01814 31.9581 1.57974 31.9152C0.892244 31.8465 0.302066 32.5143 0.0949227 33.1786C-0.0309702 33.5822 -0.305077 34.975 1.45385 35.9465C2.32617 36.4286 2.47885 37.0348 2.62617 37.6197C2.74403 38.0848 2.92082 38.7875 3.67439 38.9384C4.61189 39.1259 5.01367 38.1607 5.28064 37.5215C5.38421 37.2715 5.57349 36.8197 5.70742 36.6929C6.10028 36.7161 6.36635 36.567 6.52171 36.434C6.94849 36.0715 6.98689 35.4938 7.02082 34.9831C7.06814 34.267 7.13064 34.142 7.26189 34.1179C8.32349 33.9286 8.7976 34.1036 8.8476 34.2581C9.1726 35.2616 10.7869 36.9688 12.586 36.5188C13.6628 36.2509 13.7914 35.5456 13.8539 35.2063V35.2018C13.9467 35.1857 14.1226 35.1697 14.4342 35.184C15.3628 35.2268 16.1655 35.2732 16.5994 35.4134C16.8815 35.5036 16.8887 35.5706 16.9039 35.7304C17.0065 36.7563 17.9655 36.85 18.4262 36.8947C19.0342 36.9545 19.2878 37.0009 19.4378 37.5572C20.1405 40.1572 22.7333 40.359 23.511 40.359C24.144 40.359 24.6155 40.0634 24.9949 39.825C25.5217 39.4947 25.8681 39.2777 26.6842 39.5643C27.3422 39.7956 27.8753 39.7982 28.3119 39.5715C28.853 39.2911 29.044 38.7572 29.1512 38.3911L29.2976 38.4438C29.9762 38.6875 31.0003 39.0563 32.4155 38.7331C32.8771 38.6277 33.5047 38.7241 34.1119 38.8161C35.0851 38.9643 36.0896 39.117 36.8262 38.5215C37.2646 38.167 37.5101 37.6072 37.5556 36.8572C37.6074 35.9973 37.7003 34.4429 37.9351 34.017C37.9672 34.0295 38.011 34.05 38.0655 34.0822C38.3833 34.2652 38.6146 34.4545 38.8387 34.6384C39.6092 35.2697 40.2405 35.6625 41.9208 35.375C43.011 35.1893 43.4681 34.9786 43.7512 34.7831C43.7958 34.9036 43.8315 35.2723 43.6101 35.9956C43.3985 36.6822 43.5744 37.4438 44.0601 37.9357C44.4601 38.3411 45.0074 38.4938 45.5253 38.3429C46.0619 38.1866 46.7771 37.6465 47.136 35.9616C47.7137 33.2527 47.0833 32.2795 46.4753 31.3384C46.3289 31.1134 46.1905 30.9 46.0699 30.6581C45.5789 29.6768 44.7574 28.0348 43.228 28.417C43.0601 28.4581 42.8797 28.5179 42.6896 28.5813C42.4842 28.6491 42.1056 28.7741 41.8664 28.8098C41.8676 28.797 41.8691 28.7842 41.8708 28.7715C41.9101 28.4732 41.9387 28.1965 41.9655 27.9277C42.0771 26.8259 42.1512 26.2822 42.6217 25.9598C43.7878 25.1616 43.5797 23.5393 43.428 22.3545C43.4012 22.1491 43.3771 21.9554 43.361 21.7848C43.3507 21.7145 43.3593 21.6427 43.386 21.5767C43.4127 21.5108 43.4564 21.4532 43.5128 21.4098C43.7226 21.2304 44.0467 21.175 44.1949 21.1902C44.3414 21.3884 44.4547 22.1375 44.5315 22.6402L44.5726 22.9098C44.7574 24.0956 45.5994 25.6429 48.5583 26.2866C49.0699 26.3973 49.5289 26.2143 49.7878 25.7956C50.4664 24.6956 49.3717 22.15 48.5476 21.1313Z" fill="#9B0A0A"/>
</svg>
