<svg width="50" height="50" viewBox="0 0 50 50" fill="none" xmlns="http://www.w3.org/2000/svg">
<path d="M19.141 19.5313C19.2693 19.5312 19.3963 19.5058 19.5147 19.4566C19.6332 19.4074 19.7408 19.3353 19.8314 19.2445C19.9221 19.1538 19.9939 19.046 20.0429 18.9275C20.0919 18.8089 20.117 18.6819 20.1169 18.5536C20.1168 18.4253 20.0914 18.2983 20.0422 18.1799C19.993 18.0614 19.921 17.9538 19.8302 17.8632C19.7394 17.7725 19.6316 17.7007 19.5131 17.6517C19.3945 17.6027 19.2675 17.5776 19.1392 17.5777C18.8802 17.5779 18.6318 17.6811 18.4488 17.8644C18.2658 18.0478 18.1631 18.2963 18.1633 18.5554C18.1636 18.8144 18.2667 19.0628 18.4501 19.2458C18.6334 19.4288 18.8819 19.5315 19.141 19.5313Z" fill="#9B0A0A"/>
<path d="M25 15.625C24.2429 15.625 23.4822 15.6929 22.7366 15.8268C22.4862 15.8773 22.2656 16.0239 22.122 16.2352C21.9784 16.4465 21.9233 16.7056 21.9685 16.9571C22.0137 17.2085 22.1556 17.4322 22.3637 17.5803C22.5719 17.7283 22.8298 17.7889 23.0822 17.7491C23.7134 17.6357 24.3589 17.5777 25 17.5777C30.9232 17.5777 35.742 22.3973 35.742 28.3205C35.742 34.2438 30.9232 39.0625 25 39.0625C19.0768 39.0625 14.258 34.2438 14.258 28.3205C14.258 26.0304 14.9723 23.8438 16.3214 21.9973C16.4682 21.7879 16.527 21.5294 16.4852 21.2771C16.4434 21.0249 16.3044 20.7991 16.098 20.6482C15.8916 20.4973 15.6342 20.4333 15.3812 20.4701C15.1282 20.5068 14.8996 20.6413 14.7447 20.8446C13.1535 23.0119 12.2983 25.6319 12.3045 28.3205C12.3045 35.3205 18 41.0152 25 41.0152C32 41.0152 37.6956 35.3214 37.6956 28.3214C37.6956 21.3214 32 15.625 25 15.625Z" fill="#9B0A0A"/>
<path d="M48.5634 29.158L46.0938 25.8786V18.5536C46.0938 12.6304 41.275 7.81161 35.3518 7.81161H28.3071L28.9589 5.85625C29.7262 5.84176 30.4572 5.52707 30.995 4.97971C31.5329 4.43235 31.8347 3.69595 31.8357 2.92857C31.8345 2.15207 31.5255 1.40773 30.9763 0.858748C30.4272 0.309765 29.6827 0.000944609 28.9062 0C28.1296 0.000945121 27.385 0.309888 26.8358 0.859064C26.2867 1.40824 25.9777 2.15281 25.9768 2.92946C25.9768 3.86696 26.4196 4.70268 27.1071 5.23929L26.25 7.8125H23.75L22.8929 5.23929C23.2448 4.96584 23.5296 4.61558 23.7255 4.21526C23.9214 3.81494 24.0232 3.37515 24.0232 2.92946C24.0223 2.15281 23.7133 1.40824 23.1642 0.859064C22.615 0.309888 21.8704 0.000945121 21.0938 0C20.3171 0.000945121 19.5725 0.309888 19.0233 0.859064C18.4742 1.40824 18.1652 2.15281 18.1643 2.92946C18.1643 4.52768 19.45 5.82946 21.0411 5.85804L21.6929 7.8125H14.6482C8.725 7.8125 3.90625 12.6313 3.90625 18.5545V25.9134L1.43929 29.1536L1.43214 29.1634C0.482143 30.4464 0 31.8062 0 33.2036C0 36.4661 2.74821 39.4804 7.73839 41.692C12.4402 43.775 18.5714 44.9214 25 44.9214C31.4295 44.9214 37.5598 43.775 42.2616 41.692C47.2518 39.4813 50 36.4661 50 33.2027C50 31.8062 49.5179 30.4464 48.5634 29.158ZM28.9062 1.95268C29.1581 1.96345 29.396 2.07107 29.5704 2.25307C29.7448 2.43508 29.8422 2.6774 29.8422 2.92946C29.8422 3.18153 29.7448 3.42385 29.5704 3.60586C29.396 3.78786 29.1581 3.89548 28.9062 3.90625C28.6544 3.89548 28.4165 3.78786 28.2421 3.60586C28.0677 3.42385 27.9703 3.18153 27.9703 2.92946C27.9703 2.6774 28.0677 2.43508 28.2421 2.25307C28.4165 2.07107 28.6544 1.96345 28.9062 1.95268ZM20.117 2.92946C20.1277 2.67763 20.2354 2.43969 20.4174 2.2653C20.5994 2.09091 20.8417 1.99356 21.0938 1.99356C21.3458 1.99356 21.5881 2.09091 21.7701 2.2653C21.9521 2.43969 22.0598 2.67763 22.0705 2.92946C22.0598 3.1813 21.9521 3.41924 21.7701 3.59363C21.5881 3.76802 21.3458 3.86537 21.0938 3.86537C20.8417 3.86537 20.5994 3.76802 20.4174 3.59363C20.2354 3.41924 20.1277 3.1813 20.117 2.92946ZM14.6482 9.76518H35.3518C40.1982 9.76518 44.1402 13.7089 44.1402 18.5545V23.042C43.1771 21.3444 42.5087 19.4959 42.1634 17.575C41.8704 15.9321 41.0083 14.4448 39.7283 13.374C38.4483 12.3032 36.8322 11.7172 35.1634 11.7188H14.3634C13.7241 11.7188 13.0902 11.808 12.4786 11.983C11.2937 12.3241 10.2304 13.033 9.40268 14.0339C8.61768 14.9923 8.08621 16.1326 7.85714 17.35C7.47912 19.3075 6.80533 21.1961 5.85893 22.9509V18.5536C5.85893 13.708 9.80268 9.76518 14.6482 9.76518ZM41.4696 39.9062C37.0768 41.8527 31.0741 42.9688 25 42.9688C18.9259 42.9688 12.9232 41.8527 8.52946 39.9062C4.35089 38.0545 1.95268 35.6116 1.95268 33.2027C1.95268 32.2357 2.30446 31.2688 2.99732 30.3313L5.72411 26.7491L5.76875 26.692C7.77603 24.0481 9.1472 20.9773 9.77589 17.7179C9.94286 16.8227 10.3322 15.9839 10.908 15.2786C11.4839 14.5821 12.2134 14.0911 13.0179 13.8607C13.4554 13.7353 13.9083 13.6719 14.3634 13.6723H35.1643C37.6652 13.6723 39.8 15.458 40.2411 17.9196C40.7726 20.8809 41.9916 23.676 43.8 26.0804L46.9982 30.3259C47.6946 31.2652 48.0473 32.233 48.0473 33.2027C48.0473 35.6116 45.6491 38.0545 41.4696 39.9062Z" fill="#9B0A0A"/>
</svg>
