<svg width="50" height="50" viewBox="0 0 50 50" fill="none" xmlns="http://www.w3.org/2000/svg">
<g clip-path="url(#clip0_29_138)">
<path d="M38.3125 22.0777C38.3115 21.3168 38.0089 20.5873 37.471 20.0492C36.9331 19.5111 36.2037 19.2083 35.4428 19.2071H30.1669C31.4491 17.766 32.2866 16.1259 32.4482 14.6535C32.499 14.2149 32.4576 13.7705 32.3264 13.3489C32.1952 12.9272 31.9773 12.5377 31.6866 12.2053C31.4304 11.9119 31.1149 11.6763 30.7609 11.5139C30.4069 11.3515 30.0225 11.2661 29.633 11.2634H29.6062C28.8411 11.2634 28.1241 11.558 27.5821 12.0937C27.3148 12.3571 27.1023 12.6709 26.9572 13.017C26.812 13.3631 26.7371 13.7345 26.7366 14.1098C26.7089 14.2768 26.4152 14.8527 25.6955 15.5366C25.1062 16.0964 24.0893 16.8669 22.5884 17.3544C21.9991 17.5455 21.4607 17.8973 20.9884 18.4009C20.7402 18.6643 20.3687 19.0285 19.9089 19.3946C19.6766 19.2713 19.4175 19.2069 19.1544 19.2071H14.1437C13.2518 19.2071 12.5259 19.933 12.5259 20.825V34.1857C12.5259 35.0785 13.2518 35.8035 14.1437 35.8035H19.1544C19.7625 35.8035 20.2928 35.466 20.5696 34.9687H33.3553C34.0056 34.968 34.6291 34.7094 35.0889 34.2496C35.5487 33.7898 35.8073 33.1663 35.808 32.516C35.808 32.0607 35.683 31.6348 35.467 31.2696C36.0169 30.9339 36.4128 30.3953 36.569 29.7702C36.7252 29.145 36.6292 28.4835 36.3018 27.9285C36.5856 27.7553 36.8312 27.5263 37.0237 27.2552C37.2163 26.9842 37.3517 26.6769 37.4219 26.3519C37.492 26.0269 37.4954 25.691 37.4318 25.3647C37.3681 25.0384 37.2389 24.7284 37.0518 24.4535C37.4403 24.1906 37.7584 23.8365 37.9783 23.4221C38.1983 23.0078 38.3133 22.5459 38.3134 22.0768L38.3125 22.0777ZM35.4428 23.3812H35.025C34.8172 23.3812 34.6179 23.4638 34.471 23.6107C34.324 23.7576 34.2415 23.9569 34.2415 24.1647C34.2415 24.3725 34.324 24.5718 34.471 24.7187C34.6179 24.8656 34.8172 24.9482 35.025 24.9482C35.2518 24.9607 35.4653 25.0596 35.6214 25.2245C35.7776 25.3895 35.8646 25.6081 35.8646 25.8352C35.8646 26.0624 35.7776 26.281 35.6214 26.4459C35.4653 26.6109 35.2518 26.7098 35.025 26.7223H34.1902C33.9825 26.7223 33.7833 26.8048 33.6365 26.9516C33.4896 27.0985 33.4071 27.2977 33.4071 27.5053C33.4071 27.713 33.4896 27.9122 33.6365 28.059C33.7833 28.2059 33.9825 28.2884 34.1902 28.2884C34.417 28.3008 34.6304 28.3997 34.7866 28.5647C34.9428 28.7297 35.0298 28.9482 35.0298 29.1754C35.0298 29.4026 34.9428 29.6211 34.7866 29.7861C34.6304 29.9511 34.417 30.05 34.1902 30.0625H33.3553C33.1477 30.0625 32.9485 30.145 32.8017 30.2918C32.6548 30.4387 32.5723 30.6378 32.5723 30.8455C32.5723 31.0532 32.6548 31.2524 32.8017 31.3992C32.9485 31.546 33.1477 31.6285 33.3553 31.6285C33.5838 31.6388 33.7996 31.7368 33.9576 31.9021C34.1157 32.0674 34.2039 32.2873 34.2039 32.516C34.2039 32.7448 34.1157 32.9647 33.9576 33.13C33.7996 33.2953 33.5838 33.3933 33.3553 33.4035H20.7723V25.8357C20.7654 25.6327 20.68 25.4403 20.534 25.2992C20.388 25.158 20.1928 25.0791 19.9897 25.0791C19.7866 25.0791 19.5915 25.158 19.4455 25.2992C19.2994 25.4403 19.214 25.6327 19.2071 25.8357V34.1857C19.2072 34.1926 19.206 34.1995 19.2034 34.206C19.2008 34.2124 19.1969 34.2183 19.192 34.2232C19.1871 34.2281 19.1812 34.232 19.1748 34.2346C19.1683 34.2372 19.1614 34.2385 19.1544 34.2384H14.1437C14.1369 34.2384 14.1301 34.237 14.1237 34.2343C14.1174 34.2317 14.1116 34.2278 14.1068 34.2229C14.102 34.218 14.0982 34.2122 14.0956 34.2058C14.0931 34.1994 14.0918 34.1926 14.092 34.1857V20.825C14.092 20.7955 14.1152 20.7723 14.1437 20.7723H19.1544C19.183 20.7723 19.2071 20.7955 19.2071 20.8241V22.4946C19.214 22.6976 19.2994 22.89 19.4455 23.0311C19.5915 23.1723 19.7866 23.2512 19.9897 23.2512C20.1928 23.2512 20.388 23.1723 20.534 23.0311C20.68 22.89 20.7654 22.6976 20.7723 22.4946V20.825C20.7723 20.7866 20.7696 20.7491 20.767 20.7116C21.2525 20.3344 21.708 19.92 22.1294 19.4723C22.4196 19.1634 22.7366 18.9518 23.0714 18.8437C24.9143 18.2455 26.1544 17.2812 26.8696 16.5794C27.7669 15.6982 28.3018 14.7803 28.3018 14.1232C28.3018 13.775 28.4375 13.45 28.6839 13.2062C28.8071 13.0848 28.9532 12.9889 29.1136 12.924C29.274 12.8592 29.4457 12.8268 29.6187 12.8285C30.058 12.833 30.3482 13.0571 30.5152 13.2446C30.8009 13.566 30.9411 14.0303 30.8919 14.483C30.7205 16.0384 29.4768 17.9607 27.7223 19.3812C27.5967 19.4831 27.5058 19.6215 27.4619 19.7772C27.4181 19.9329 27.4236 20.0983 27.4776 20.2508C27.5316 20.4032 27.6315 20.5352 27.7636 20.6286C27.8957 20.722 28.0534 20.7722 28.2152 20.7723H35.4428C35.7787 20.7875 36.0958 20.9316 36.328 21.1747C36.5603 21.4178 36.69 21.741 36.69 22.0772C36.69 22.4134 36.5603 22.7367 36.328 22.9797C36.0958 23.2228 35.7787 23.366 35.4428 23.3812Z" fill="#9B0A0A"/>
<path d="M16.6492 30.8893C16.4408 30.8902 16.2413 30.9734 16.094 31.1207C15.9467 31.268 15.8635 31.4676 15.8625 31.6759C15.8625 32.1089 16.217 32.4634 16.6492 32.4634C16.8578 32.4627 17.0577 32.3795 17.2052 32.232C17.3528 32.0844 17.4359 31.8845 17.4367 31.6759C17.4357 31.4674 17.3524 31.2677 17.2049 31.1204C17.0574 30.9731 16.8576 30.89 16.6492 30.8893Z" fill="#9B0A0A"/>
<path d="M48.6044 25L49.9491 21.442C49.9973 21.3147 50.0115 21.1769 49.9902 21.0424C49.969 20.9079 49.9129 20.7812 49.8276 20.675L47.4491 17.7063L47.6276 13.9063C47.6342 13.7703 47.6052 13.635 47.5435 13.5136C47.4818 13.3923 47.3896 13.2891 47.2758 13.2143L44.0964 11.125L43.0928 7.4554C43.0568 7.32419 42.9872 7.20462 42.8909 7.10849C42.7946 7.01236 42.675 6.94298 42.5437 6.90718L38.8741 5.90361L36.7848 2.72415C36.71 2.61062 36.6069 2.51849 36.4858 2.45682C36.3646 2.39514 36.2295 2.36604 36.0937 2.37236L32.2937 2.55093L29.325 0.172361C29.2187 0.0871767 29.0921 0.0311731 28.9576 0.00987831C28.8231 -0.0114165 28.6854 0.00273368 28.558 0.050932L25 1.39557L21.441 0.050932C21.3137 0.00264442 21.1759 -0.0115531 21.0414 0.0097445C20.9069 0.0310421 20.7803 0.0870965 20.6741 0.172361L17.7053 2.55093L13.9053 2.37236C13.7695 2.36577 13.6343 2.39476 13.513 2.45646C13.3918 2.51816 13.2888 2.61043 13.2142 2.72415L11.125 5.90361L7.45531 6.90807C7.32421 6.94401 7.20472 7.01345 7.10859 7.10957C7.01247 7.20569 6.94303 7.32519 6.9071 7.45629L5.90353 11.1259L2.72317 13.2152C2.60958 13.29 2.51741 13.393 2.45572 13.5141C2.39404 13.6353 2.36497 13.7705 2.37138 13.9063L2.54995 17.7063L0.171383 20.675C0.0861994 20.7813 0.0301958 20.9079 0.00890099 21.0424C-0.0123938 21.1769 0.00175635 21.3146 0.0499547 21.442L1.39549 25L0.0499547 28.559C0.00175635 28.6863 -0.0123938 28.8241 0.00890099 28.9586C0.0301958 29.0931 0.0861994 29.2197 0.171383 29.3259L2.54995 32.2947L2.37138 36.0947C2.36497 36.2305 2.39404 36.3656 2.45572 36.4868C2.51741 36.608 2.60958 36.711 2.72317 36.7858L5.90263 38.875L6.9071 42.5447C6.94303 42.6758 7.01247 42.7953 7.10859 42.8914C7.20472 42.9875 7.32421 43.057 7.45531 43.0929L11.125 44.0965L13.2142 47.2768C13.2892 47.3902 13.3922 47.4823 13.5134 47.5439C13.6345 47.6056 13.7695 47.6348 13.9053 47.6286L17.7053 47.45L20.6741 49.8286C20.7803 49.9139 20.9069 49.9699 21.0414 49.9912C21.1759 50.0125 21.3137 49.9983 21.441 49.95L25 48.6045L28.558 49.95C28.6854 49.9981 28.8231 50.0123 28.9576 49.991C29.092 49.9697 29.2187 49.9137 29.325 49.8286L32.2937 47.45L36.0937 47.6286C36.2297 47.6351 36.365 47.6061 36.4863 47.5444C36.6076 47.4827 36.7108 47.3905 36.7857 47.2768L38.8741 44.0965L42.5437 43.0929C42.6748 43.057 42.7943 42.9875 42.8904 42.8914C42.9865 42.7953 43.056 42.6758 43.0919 42.5447L44.0964 38.875L47.2758 36.7858C47.3896 36.7111 47.482 36.6081 47.5438 36.487C47.6056 36.3658 47.6348 36.2306 47.6285 36.0947L47.4491 32.2947L49.8276 29.3259C49.9128 29.2197 49.9688 29.0931 49.9901 28.9586C50.0114 28.8241 49.9973 28.6863 49.9491 28.559L48.6044 25ZM47.0348 25.2768L48.3267 28.6947L46.041 31.5465C45.9222 31.6955 45.8618 31.8829 45.8714 32.0733L46.0428 35.7224L42.9892 37.7286C42.8296 37.8333 42.7137 37.9927 42.6633 38.1768L41.6991 41.7009L38.1758 42.6652C37.9919 42.7154 37.8325 42.831 37.7276 42.9902L35.7214 46.0438L32.0723 45.8715C31.8817 45.8625 31.6943 45.9235 31.5455 46.0429L28.6937 48.3277L25.2758 47.0358C25.0975 46.9684 24.9007 46.9684 24.7223 47.0358L21.3053 48.3277L18.4535 46.042C18.3044 45.9233 18.1171 45.863 17.9267 45.8724L14.2776 46.0438L12.2714 42.9902C12.1667 42.8306 12.0073 42.7147 11.8232 42.6643L8.29906 41.7L7.33478 38.1759C7.28437 37.9923 7.16884 37.8333 7.00978 37.7286L3.9562 35.7224L4.12853 32.0733C4.13756 31.8826 4.07659 31.6953 3.9571 31.5465L1.67228 28.6947L2.96424 25.2768C3.03164 25.0985 3.03164 24.9016 2.96424 24.7233L1.67228 21.3054L3.95799 18.4545C4.07685 18.3055 4.13717 18.1181 4.12763 17.9277L3.9562 14.2786L7.00978 12.2724C7.16941 12.1677 7.2853 12.0083 7.33567 11.8241L8.29995 8.30004L11.8241 7.33575C12.0077 7.28542 12.1668 7.16988 12.2714 7.01075L14.2776 3.95718L17.9267 4.1295C18.1174 4.13846 18.3047 4.0775 18.4535 3.95807L21.3053 1.67325L24.7232 2.96522C24.9017 3.03308 25.0982 3.03308 25.2767 2.96522L28.6946 1.67325L31.5455 3.95897C31.6945 4.07783 31.8819 4.13815 32.0723 4.12861L35.7214 3.95718L37.7276 7.01075C37.8325 7.17005 37.9918 7.28561 38.1758 7.33575L41.7 8.30004L42.6642 11.8241C42.7144 12.0081 42.8299 12.1675 42.9892 12.2724L46.0428 14.2786L45.8705 17.9277C45.8614 18.1183 45.9224 18.3057 46.0419 18.4545L48.3267 21.3063L47.0348 24.7241C46.9675 24.9025 46.9675 25.0993 47.0348 25.2777V25.2768Z" fill="#9B0A0A"/>
<path d="M39.7098 11.4822C39.3182 11.0557 38.9086 10.6461 38.4822 10.2545C38.4072 10.181 38.3182 10.1233 38.2205 10.0849C38.1229 10.0465 38.0184 10.0281 37.9135 10.0309C37.8086 10.0336 37.7053 10.0574 37.6097 10.1009C37.5142 10.1444 37.4284 10.2066 37.3573 10.2839C37.2863 10.3612 37.2316 10.452 37.1964 10.5509C37.1611 10.6497 37.1461 10.7547 37.1523 10.8595C37.1584 10.9643 37.1856 11.0668 37.2321 11.1608C37.2787 11.2549 37.3437 11.3387 37.4232 11.4072C37.817 11.769 38.1953 12.1473 38.5572 12.5411C38.6265 12.617 38.7101 12.6785 38.8033 12.722C38.8964 12.7654 38.9973 12.7901 39.1 12.7945C39.2027 12.7989 39.3053 12.783 39.4018 12.7476C39.4984 12.7122 39.5869 12.6581 39.6625 12.5884C39.7384 12.5189 39.7998 12.435 39.8432 12.3417C39.8867 12.2484 39.9113 12.1475 39.9157 12.0447C39.9201 11.9418 39.9042 11.8391 39.8688 11.7425C39.8335 11.6458 39.7795 11.5579 39.7098 11.4822ZM35.7027 8.11788C31.8956 5.7052 27.387 4.64466 22.9036 5.10716C18.3435 5.58606 14.0857 7.61473 10.8411 10.8545C7.28591 14.4007 5.20047 19.1584 5.0018 24.1759C4.79208 29.1546 6.45562 34.0312 9.6643 37.8438C9.73039 37.9227 9.81143 37.9877 9.90275 38.0352C9.99406 38.0827 10.0939 38.1117 10.1964 38.1205C10.299 38.1293 10.4022 38.1177 10.5003 38.0865C10.5984 38.0552 10.6893 38.0049 10.7679 37.9384C10.8466 37.8722 10.9114 37.7911 10.9588 37.6998C11.0061 37.6085 11.035 37.5087 11.0438 37.4062C11.0526 37.3038 11.0411 37.2005 11.01 37.1025C10.9789 37.0045 10.9288 36.9135 10.8625 36.8348C7.9058 33.3213 6.3729 28.8273 6.56608 24.2393C6.74926 19.6153 8.6711 15.2308 11.9473 11.9625C14.9376 8.97595 18.862 7.10576 23.0652 6.66431C27.1938 6.23663 31.3822 7.22234 34.8616 9.43841C35.0368 9.54995 35.2492 9.5873 35.452 9.54226C35.6548 9.49722 35.8313 9.37347 35.9429 9.19824C36.0544 9.023 36.0918 8.81064 36.0467 8.60787C36.0017 8.40509 35.8779 8.22852 35.7027 8.11698V8.11788ZM41.8473 14.2616C41.7357 14.0864 41.559 13.9627 41.3561 13.9177C41.1533 13.8728 40.9409 13.9102 40.7656 14.0219C40.5904 14.1335 40.4667 14.3102 40.4217 14.5131C40.3768 14.716 40.4143 14.9284 40.5259 15.1036C42.7492 18.6123 43.7264 22.7673 43.3 26.8991C42.8587 31.1021 40.9888 35.0265 38.0027 38.017C34.7344 41.2932 30.3499 43.2151 25.7259 43.3982C21.1188 43.5857 16.6438 42.0589 13.1295 39.1018C12.9701 38.9723 12.7662 38.9107 12.5618 38.9301C12.3574 38.9494 12.1688 39.0484 12.0366 39.2055C11.9044 39.3626 11.8392 39.5654 11.8551 39.7701C11.871 39.9748 11.9666 40.1651 12.1214 40.3C15.9335 43.5097 20.8104 45.1734 25.7893 44.9625C30.8067 44.7641 35.5643 42.679 39.1107 39.1241C42.3505 35.8795 44.3792 31.6217 44.858 27.0616C45.3209 22.5779 44.2603 18.0689 41.8473 14.2616Z" fill="#9B0A0A"/>
</g>
<defs>
<clipPath id="clip0_29_138">
<rect width="50" height="50" fill="white"/>
</clipPath>
</defs>
</svg>
