<svg width="28" height="28" viewBox="0 0 28 28" fill="none" xmlns="http://www.w3.org/2000/svg">
<path d="M25.573 18.2312L22.9131 17.2357C22.2089 16.9704 21.4409 16.925 20.7104 17.1056C19.9799 17.2862 19.3215 17.6841 18.822 18.2468L16.2554 21.1245C12.2305 19.0858 8.96091 15.8162 6.92214 11.7913L9.73767 9.17801C10.3049 8.68168 10.7071 8.02403 10.8906 7.29299C11.074 6.56193 11.03 5.7923 10.7643 5.08694L9.76878 2.42696C9.49962 1.70639 9.01445 1.08654 8.37962 0.65218C7.74479 0.217821 6.99129 -0.00984084 6.22215 0.000326285H2.31775C1.70305 0.000326285 1.11352 0.244518 0.678854 0.679181C0.244191 1.11384 0 1.70337 0 2.31807C0.00823307 9.12683 2.71664 15.6543 7.53115 20.4688C12.3457 25.2834 18.8732 27.9918 25.6819 28C26.2967 28 26.8862 27.7559 27.3208 27.3212C27.7555 26.8865 27.9997 26.297 27.9997 25.6822V21.7778C28.0098 21.0088 27.7822 20.2553 27.3478 19.6205C26.9134 18.9856 26.2936 18.5005 25.573 18.2312Z" fill="currentColor"/>
</svg>
