<svg width="32" height="32" viewBox="0 0 32 32" fill="none" xmlns="http://www.w3.org/2000/svg">
<rect width="32" height="32" rx="16" transform="matrix(-1 0 0 1 32 0)" fill="white" fill-opacity="0.8"/>
<path d="M12.227 16.398L17.852 22.023C17.9042 22.0753 17.9663 22.1168 18.0346 22.145C18.1028 22.1733 18.176 22.1879 18.2499 22.1879C18.3238 22.1879 18.397 22.1733 18.4653 22.145C18.5336 22.1168 18.5956 22.0753 18.6479 22.023C18.7002 21.9708 18.7416 21.9087 18.7699 21.8404C18.7982 21.7722 18.8127 21.699 18.8127 21.6251C18.8127 21.5512 18.7982 21.478 18.7699 21.4097C18.7416 21.3414 18.7002 21.2794 18.6479 21.2271L13.4202 16.0001L18.6479 10.773C18.7534 10.6675 18.8127 10.5243 18.8127 10.3751C18.8127 10.2258 18.7534 10.0826 18.6479 9.9771C18.5424 9.87155 18.3992 9.81226 18.2499 9.81226C18.1007 9.81226 17.9575 9.87155 17.852 9.9771L12.227 15.6021C12.1747 15.6543 12.1332 15.7164 12.1049 15.7847C12.0766 15.853 12.062 15.9261 12.062 16.0001C12.062 16.074 12.0766 16.1472 12.1049 16.2155C12.1332 16.2838 12.1747 16.3458 12.227 16.398Z" fill="#343330"/>
</svg>
