<svg width="32" height="32" viewBox="0 0 32 32" fill="none" xmlns="http://www.w3.org/2000/svg">
<rect width="32" height="32" rx="16" fill="white" fill-opacity="0.8"/>
<path d="M19.773 16.398L14.148 22.023C14.0958 22.0753 14.0337 22.1168 13.9654 22.145C13.8972 22.1733 13.824 22.1879 13.7501 22.1879C13.6762 22.1879 13.603 22.1733 13.5347 22.145C13.4664 22.1168 13.4044 22.0753 13.3521 22.023C13.2998 21.9708 13.2584 21.9087 13.2301 21.8404C13.2018 21.7722 13.1873 21.699 13.1873 21.6251C13.1873 21.5512 13.2018 21.478 13.2301 21.4097C13.2584 21.3414 13.2998 21.2794 13.3521 21.2271L18.5798 16.0001L13.3521 10.773C13.2466 10.6675 13.1873 10.5243 13.1873 10.3751C13.1873 10.2258 13.2466 10.0826 13.3521 9.9771C13.4576 9.87155 13.6008 9.81226 13.7501 9.81226C13.8993 9.81226 14.0425 9.87155 14.148 9.9771L19.773 15.6021C19.8253 15.6543 19.8668 15.7164 19.8951 15.7847C19.9234 15.853 19.938 15.9261 19.938 16.0001C19.938 16.074 19.9234 16.1472 19.8951 16.2155C19.8668 16.2838 19.8253 16.3458 19.773 16.398Z" fill="#343330"/>
</svg>
