<svg width="40" height="40" viewBox="0 0 40 40" fill="none" xmlns="http://www.w3.org/2000/svg">
<path fill-rule="evenodd" clip-rule="evenodd" d="M8.18175 6.06068C7.59597 5.47489 6.64622 5.47489 6.06043 6.06068C5.47465 6.64646 5.47465 7.59621 6.06043 8.182L18.0814 20.2029L6.06066 32.2236C5.47487 32.8094 5.47487 33.7592 6.06066 34.3449C6.64645 34.9307 7.59619 34.9307 8.18198 34.3449L20.2027 22.3242L32.2234 34.3449C32.8092 34.9307 33.7589 34.9307 34.3447 34.3449C34.9305 33.7592 34.9305 32.8094 34.3447 32.2236L22.324 20.2029L34.3449 8.182C34.9307 7.59621 34.9307 6.64646 34.3449 6.06068C33.7591 5.47489 32.8094 5.47489 32.2236 6.06068L20.2027 18.0816L8.18175 6.06068Z" fill="currentColor"/>
</svg>
