<svg width="959" height="100" viewBox="0 0 959 100" fill="none" xmlns="http://www.w3.org/2000/svg">
<path d="M112.984 80.9756V73.9444L119.723 72.6582V26.9122L112.984 25.626V18.5518H138.136V25.626L131.397 26.9122V45.6907H157.794V26.9122L151.055 25.626V18.5518H176.207V25.626L169.468 26.9122V72.6582L176.207 73.9444V80.9756H151.055V73.9444L157.794 72.6582V54.6942H131.397V72.6582L138.136 73.9444V80.9756H112.984Z" fill="#1E1000"/>
<path d="M181.915 80.9756V73.9444L188.654 72.6582V26.9122L181.915 25.626V18.5518H207.067V25.626L200.286 26.9122V57.3095L200.543 57.3952L226.768 30.5135V26.9122L220.072 25.626V18.5518H245.224V25.626L238.485 26.9122V72.6582L245.224 73.9444V80.9756H220.072V73.9444L226.768 72.6582V43.0326L226.51 42.9468L200.286 69.9143V72.6582L207.067 73.9444V80.9756H181.915Z" fill="#1E1000"/>
<path d="M249.988 80.9756V73.9444L256.727 72.6582V26.9122L249.988 25.626V18.5518H274.882V25.626L268.401 26.9122V44.6189H274.281L286.514 27.0408C288.975 23.6109 291.221 21.2529 293.252 19.9667C295.284 18.6519 297.559 17.9945 300.077 17.9945C301.622 17.9945 302.996 18.1803 304.197 18.5518C305.399 18.9234 306.529 19.4379 307.588 20.0953L305.657 28.7986C304.998 28.6271 304.412 28.4985 303.897 28.4127C303.41 28.327 302.91 28.2841 302.395 28.2841C301.136 28.2841 299.934 28.6557 298.789 29.3988C297.645 30.1134 296.328 31.4567 294.841 33.4289L284.282 47.9202L302.309 72.8725L308.747 73.9444V80.9756H284.883V73.9444L288.703 73.387L288.574 73.2155L275.869 55.08H268.401V72.6582L274.882 73.9444V80.9756H249.988Z" fill="#1E1000"/>
<path d="M336.431 81.876C332.253 81.876 328.462 81.1042 325.057 79.5608C321.652 77.9888 318.719 75.7879 316.258 72.9583C313.826 70.1 311.952 66.7559 310.635 62.9259C309.319 59.0673 308.661 54.8371 308.661 50.2353V49.2921C308.661 44.7189 309.319 40.5173 310.635 36.6873C311.952 32.8287 313.826 29.4846 316.258 26.6549C318.719 23.7967 321.638 21.5816 325.014 20.0095C328.419 18.4375 332.21 17.6515 336.388 17.6515C340.652 17.6515 344.486 18.4375 347.891 20.0095C351.325 21.5816 354.272 23.7967 356.733 26.6549C359.193 29.4846 361.068 32.8287 362.355 36.6873C363.671 40.5173 364.33 44.7189 364.33 49.2921V50.2353C364.33 54.8371 363.671 59.0673 362.355 62.9259C361.068 66.7559 359.193 70.1 356.733 72.9583C354.3 75.7879 351.367 77.9888 347.934 79.5608C344.5 81.1042 340.666 81.876 336.431 81.876ZM336.431 72.701C340.094 72.701 343.127 71.7721 345.53 69.9143C347.934 68.0278 349.722 65.3982 350.895 62.0255C352.097 58.6528 352.698 54.7228 352.698 50.2353V49.2064C352.698 44.7761 352.097 40.8889 350.895 37.5448C349.694 34.2006 347.877 31.5854 345.444 29.6989C343.041 27.8125 340.022 26.8693 336.388 26.8693C332.84 26.8693 329.878 27.8125 327.503 29.6989C325.128 31.5568 323.34 34.1578 322.138 37.5019C320.965 40.846 320.379 44.7475 320.379 49.2064V50.2353C320.379 54.6942 320.965 58.6242 322.138 62.0255C323.34 65.3982 325.128 68.0278 327.503 69.9143C329.907 71.7721 332.883 72.701 336.431 72.701Z" fill="#1E1000"/>
<path d="M368.75 80.9756V72.0151H370.424C372.37 71.9007 373.987 71.4148 375.274 70.5574C376.562 69.6713 377.578 68.2994 378.322 66.4415C379.066 64.5551 379.624 62.0541 379.996 58.9386C380.368 55.7946 380.582 51.8788 380.64 47.1913L381.026 26.9122L374.459 25.626V18.5518H429.484V25.626L422.745 26.9122V72.6582L429.484 73.9444V80.9756H404.375V73.9444L411.113 72.6582V27.5553H392.657L392.314 47.1913C392.2 53.1936 391.713 58.3384 390.855 62.6258C390.025 66.9131 388.766 70.4144 387.078 73.1298C385.418 75.8165 383.315 77.803 380.768 79.0892C378.222 80.3468 375.189 80.9756 371.669 80.9756H368.75Z" fill="#1E1000"/>
<path d="M434.935 80.9756V73.9444L441.673 72.6582V26.9122L434.935 25.626V18.5518H460.086V25.626L453.348 26.9122V42.1751H465.065C469.815 42.1751 473.907 42.9754 477.341 44.576C480.774 46.1481 483.407 48.3632 485.238 51.2214C487.098 54.0797 488.028 57.4524 488.028 61.3396C488.028 65.2553 487.098 68.6995 485.238 71.6721C483.378 74.616 480.731 76.9026 477.298 78.5318C473.864 80.161 469.786 80.9756 465.065 80.9756H434.935ZM453.348 72.0151H465.065C468.728 72.0151 471.532 71.0004 473.478 68.971C475.423 66.9417 476.396 64.3693 476.396 61.2538C476.396 58.2813 475.438 55.866 473.521 54.0082C471.603 52.1218 468.785 51.1785 465.065 51.1785H453.348V72.0151Z" fill="#1E1000"/>
<path d="M522.451 81.876C516.327 81.876 511.048 80.5898 506.613 78.0173C502.206 75.4449 498.815 71.8293 496.44 67.1704C494.065 62.4829 492.878 56.995 492.878 50.7069V48.8634C492.878 42.8039 494.037 37.4305 496.355 32.743C498.672 28.0555 501.992 24.3683 506.312 21.6816C510.633 18.9949 515.783 17.6515 521.764 17.6515C525.97 17.6515 529.89 18.266 533.524 19.495C537.158 20.6955 540.363 22.4676 543.138 24.8114V39.5598H534.34L533.138 29.999C532.194 29.3131 531.149 28.7271 530.005 28.2412C528.889 27.7553 527.658 27.3838 526.313 27.1265C524.997 26.8693 523.567 26.7407 522.021 26.7407C518.359 26.7407 515.226 27.6553 512.622 29.4846C510.018 31.2853 508.015 33.8291 506.613 37.116C505.239 40.403 504.553 44.2902 504.553 48.7776V50.7069C504.553 55.2515 505.282 59.1816 506.741 62.4971C508.201 65.8127 510.275 68.3708 512.965 70.1715C515.683 71.9436 518.917 72.8297 522.665 72.8297C524.525 72.8297 526.371 72.6296 528.202 72.2294C530.033 71.8007 531.664 71.2433 533.095 70.5574L534.34 61.7683H543.053V76.3881C540.649 77.9602 537.673 79.275 534.125 80.3325C530.577 81.3615 526.685 81.876 522.451 81.876Z" fill="#1E1000"/>
<path d="M550.006 80.9756V73.9444L556.744 72.6582V26.9122L550.006 25.626V18.5518H574.9V25.626L568.419 26.9122V44.6189H574.299L586.532 27.0408C588.992 23.6109 591.239 21.2529 593.27 19.9667C595.302 18.6519 597.577 17.9945 600.095 17.9945C601.64 17.9945 603.013 18.1803 604.215 18.5518C605.417 18.9234 606.547 19.4379 607.606 20.0953L605.674 28.7986C605.016 28.6271 604.43 28.4985 603.915 28.4127C603.428 28.327 602.927 28.2841 602.412 28.2841C601.153 28.2841 599.952 28.6557 598.807 29.3988C597.662 30.1134 596.346 31.4567 594.858 33.4289L584.3 47.9202L602.327 72.8725L608.765 73.9444V80.9756H584.901V73.9444L588.721 73.387L588.592 73.2155L575.887 55.08H568.419V72.6582L574.9 73.9444V80.9756H550.006Z" fill="#1E1000"/>
<path d="M613.271 80.9756V73.9444L620.01 72.6582V26.9122L613.271 25.626V18.5518H638.423V25.626L631.642 26.9122V57.3095L631.899 57.3952L658.124 30.5135V26.9122L651.428 25.626V18.5518H676.58V25.626L669.841 26.9122V72.6582L676.58 73.9444V80.9756H651.428V73.9444L658.124 72.6582V43.0326L657.866 42.9468L631.642 69.9143V72.6582L638.423 73.9444V80.9756H613.271Z" fill="#1E1000"/>
<path d="M681.859 80.9756V73.9444L688.598 72.6582V26.9122L681.859 25.626V18.5518H707.011V25.626L700.229 26.9122V57.3095L700.487 57.3952L726.712 30.5135V26.9122L720.016 25.626V18.5518H745.168V25.626L738.429 26.9122V72.6582L745.168 73.9444V80.9756H720.016V73.9444L726.712 72.6582V43.0326L726.454 42.9468L700.229 69.9143V72.6582L707.011 73.9444V80.9756H681.859ZM713.535 14.5646C709.014 14.5646 705.423 13.407 702.762 11.0918C700.129 8.77668 698.856 5.80412 698.942 2.17416L699.028 1.91692H707.097C707.097 3.66044 707.612 5.10385 708.642 6.24714C709.672 7.36185 711.303 7.91921 713.535 7.91921C715.681 7.91921 717.269 7.36185 718.299 6.24714C719.358 5.13243 719.887 3.68902 719.887 1.91692H727.956L728.042 2.17416C728.099 5.80412 726.812 8.77668 724.179 11.0918C721.575 13.407 718.027 14.5646 713.535 14.5646Z" fill="#1E1000"/>
<path d="M771.95 96.3243L770.963 72.0151H775.899C777.387 70.6431 778.76 68.8138 780.019 66.5273C781.278 64.2121 782.323 61.2252 783.153 57.5667C784.011 53.9082 784.526 49.3922 784.698 44.0187L785.814 26.8264L779.59 25.626V18.5518H833.113V25.626L826.374 26.9122V72.0151H834.014L832.898 96.3243H822.34V80.9756H782.595V96.3243H771.95ZM789.076 72.0151H814.7V27.5553H797.445L796.415 44.0187C796.244 48.306 795.843 52.1789 795.213 55.6374C794.584 59.0958 793.74 62.1827 792.681 64.8981C791.651 67.5848 790.449 69.9571 789.076 72.0151Z" fill="#1E1000"/>
<path d="M866.162 81.876C861.984 81.876 858.193 81.1042 854.788 79.5608C851.383 77.9888 848.45 75.7879 845.989 72.9583C843.557 70.1 841.683 66.7559 840.366 62.9259C839.05 59.0673 838.392 54.8371 838.392 50.2353V49.2921C838.392 44.7189 839.05 40.5173 840.366 36.6873C841.683 32.8287 843.557 29.4846 845.989 26.6549C848.45 23.7967 851.368 21.5816 854.745 20.0095C858.15 18.4375 861.941 17.6515 866.119 17.6515C870.382 17.6515 874.217 18.4375 877.622 20.0095C881.055 21.5816 884.003 23.7967 886.464 26.6549C888.924 29.4846 890.799 32.8287 892.086 36.6873C893.402 40.5173 894.061 44.7189 894.061 49.2921V50.2353C894.061 54.8371 893.402 59.0673 892.086 62.9259C890.799 66.7559 888.924 70.1 886.464 72.9583C884.031 75.7879 881.098 77.9888 877.665 79.5608C874.231 81.1042 870.397 81.876 866.162 81.876ZM866.162 72.701C869.824 72.701 872.858 71.7721 875.261 69.9143C877.665 68.0278 879.453 65.3982 880.626 62.0255C881.828 58.6528 882.429 54.7228 882.429 50.2353V49.2064C882.429 44.7761 881.828 40.8889 880.626 37.5448C879.424 34.2006 877.607 31.5854 875.175 29.6989C872.772 27.8125 869.753 26.8693 866.119 26.8693C862.571 26.8693 859.609 27.8125 857.234 29.6989C854.859 31.5568 853.071 34.1578 851.869 37.5019C850.696 40.846 850.109 44.7475 850.109 49.2064V50.2353C850.109 54.6942 850.696 58.6242 851.869 62.0255C853.071 65.3982 854.859 68.0278 857.234 69.9143C859.638 71.7721 862.614 72.701 866.162 72.701Z" fill="#1E1000"/>
<path d="M900.241 80.9756V73.9444L906.98 72.6582V26.9122L900.241 25.626V18.5518H925.135V25.626L918.654 26.9122V44.6189H924.534L936.767 27.0408C939.228 23.6109 941.474 21.2529 943.506 19.9667C945.537 18.6519 947.812 17.9945 950.33 17.9945C951.875 17.9945 953.249 18.1803 954.45 18.5518C955.652 18.9234 956.782 19.4379 957.841 20.0953L955.91 28.7986C955.252 28.6271 954.665 28.4985 954.15 28.4127C953.663 28.327 953.163 28.2841 952.648 28.2841C951.389 28.2841 950.187 28.6557 949.042 29.3988C947.898 30.1134 946.582 31.4567 945.094 33.4289L934.535 47.9202L952.562 72.8725L959 73.9444V80.9756H935.136V73.9444L938.956 73.387L938.827 73.2155L926.123 55.08H918.654V72.6582L925.135 73.9444V80.9756H900.241Z" fill="#1E1000"/>
<path fill-rule="evenodd" clip-rule="evenodd" d="M43.9872 7.75C64.519 7.75 81.163 26.6847 81.163 50.0418C81.163 73.3989 64.519 92.3333 43.9872 92.3333C23.4564 92.3333 6.81242 73.3989 6.81242 50.0418C6.81242 26.6847 23.4564 7.75 43.9872 7.75ZM43.9872 9.73916C63.5534 9.73916 79.4145 27.7829 79.4145 50.0418C79.4145 72.3005 63.5534 90.3443 43.9872 90.3443C24.4219 90.3443 8.56083 72.3005 8.56083 50.0418C8.56083 27.7829 24.4219 9.73916 43.9872 9.73916Z" fill="#707F84"/>
<path fill-rule="evenodd" clip-rule="evenodd" d="M17.2655 19.0913L15.4074 16.9795L15.599 16.7658V16.7605C16.3431 15.665 15.4507 13.7048 13.7497 14.5936L13.6171 14.5077L14.1384 14.0626L13.976 13.8072L15.8113 12.2187C15.8113 12.2187 17.2363 14.4907 18.9616 13.4166C19.1974 13.2073 19.4343 13.0012 19.6718 12.7978C20.5106 11.8146 19.8475 9.76939 18.0702 10.3939L17.95 10.2894L18.5173 9.92523L18.386 9.64867L20.3876 8.34549C20.3876 8.34549 21.5259 10.7795 23.3416 10.0139C23.6177 9.82801 23.8957 9.64641 24.1756 9.46877C25.0848 8.60178 24.6538 6.51979 22.837 6.87169L22.7291 6.75049L23.3339 6.47336L23.2354 6.1792L25.3695 5.18463C25.3695 5.18463 26.2176 7.76249 28.1018 7.27833C28.3986 7.1342 28.6972 6.99442 28.9969 6.8599C29.9972 6.13487 29.8076 4.00758 27.9666 4.08719L27.8745 3.95049L28.5056 3.76574L28.4417 3.45933L30.6717 2.78988C30.6717 2.78988 31.2201 5.49115 33.1608 5.26901C33.4576 5.17518 33.7553 5.08539 34.053 4.99996C35.1501 4.44797 35.2205 2.28278 33.373 2.08737L33.2969 1.93794L33.9441 1.84814L33.916 1.53528L36.2039 1.20227C36.2039 1.20227 36.4387 3.98028 38.4056 4.03059L38.3924 4.03471C38.6845 3.98892 38.9767 3.94572 39.2698 3.90664C40.4468 3.55224 40.7886 1.37884 38.9626 0.906415L38.9045 0.747285L39.5562 0.75494L39.5637 0.439912L41.8707 0.449497C41.8707 0.449497 41.7842 3.23829 43.7284 3.58001L43.6965 3.58626C43.9971 3.58325 44.2967 3.58378 44.5973 3.58745L44.6001 3.58476C45.8072 3.40797 46.3961 1.30467 44.6405 0.565886L44.6001 0.398884L45.2455 0.502895L45.2897 0.191743L47.5758 0.543487C47.5758 0.543487 47.1701 3.29535 49.058 3.92263L49.0308 3.92433C49.3276 3.96543 49.6235 4.01024 49.9202 4.05829L49.9211 4.05716C51.1394 4.06152 51.964 2.06282 50.3081 1.06985L50.2875 0.897912L50.9159 1.09709L50.9947 0.795516L53.2209 1.48294C53.2209 1.48294 52.5033 4.15115 54.302 5.05342C54.5912 5.13772 54.8787 5.22638 55.166 5.31762C56.3638 5.47524 57.3874 3.63224 55.8687 2.40983V2.23681L56.4688 2.52719L56.5824 2.23993L58.7109 3.25273C58.7109 3.25273 57.6964 5.77837 59.3609 6.94428C59.6453 7.07445 59.9291 7.20849 60.2119 7.34673C61.3764 7.6639 62.5892 5.99622 61.2293 4.56449L61.2488 4.39355L61.8105 4.77032L61.9552 4.50143L63.9493 5.821C63.9493 5.821 62.6606 8.16454 64.1597 9.5676C64.4339 9.74371 64.7064 9.92362 64.9778 10.1077C66.0946 10.5818 67.4762 9.11162 66.2965 7.49562L66.335 7.32856L66.8487 7.78559L67.0234 7.54109L68.8485 9.14481C68.8485 9.14481 67.2865 11.2966 68.6448 12.9131C68.8795 13.1154 69.1133 13.3199 69.3463 13.5287C70.3993 14.2065 71.9772 12.9483 70.9834 11.154L71.0409 10.994L71.4984 11.5224L71.6982 11.3063L73.3242 13.1679C73.3242 13.1679 71.5283 15.07 72.6903 16.8747L72.6781 16.8652L72.7775 16.9773L70.9176 19.0909C64.0225 11.3495 54.5488 6.56856 44.091 6.56856C33.6341 6.56856 24.1606 11.3495 17.2655 19.0913ZM17.6412 10.0566L18.3126 9.61985L18.445 9.89536L17.8769 10.2605L17.6412 10.0566ZM27.6293 3.63439L28.3778 3.41012L28.4428 3.71495L27.8106 3.90075L27.6293 3.63439ZM38.7392 0.369928L39.5131 0.373691L39.5065 0.687645L38.8547 0.680103L38.7392 0.369928ZM50.2142 0.485236L50.961 0.716383L50.8829 1.01752L50.2547 0.818989L50.2142 0.485236ZM61.2725 3.97302L61.9402 4.416L61.7975 4.68335L61.2348 4.3065L61.2725 3.97302ZM71.1592 10.5946L71.7039 11.2194L71.5047 11.436L71.0473 10.9065L71.1592 10.5946ZM13.2837 14.322L13.9 13.7901L14.0634 14.0433L13.5411 14.4896L13.2837 14.322ZM22.4502 6.47336L23.1659 6.14012L23.2654 6.43274L22.6606 6.71052L22.4502 6.47336ZM33.0904 1.58814L33.8576 1.47768L33.8877 1.78894L33.2397 1.87904L33.0904 1.58814ZM44.4808 0L45.2473 0.118537L45.2042 0.428285L44.5579 0.324605L44.4808 0ZM55.8441 1.81725L56.5573 2.15726L56.4453 2.44395L55.8452 2.15359L55.8441 1.81725ZM66.4073 6.91489L67.0179 7.45396L66.8451 7.69806L66.3312 7.24103L66.4073 6.91489Z" fill="#8F989B"/>
<path fill-rule="evenodd" clip-rule="evenodd" d="M16.795 80.5182L14.9372 82.6294L14.7494 82.4118L14.7456 82.4121C13.7809 81.5666 12.0554 82.581 12.8379 84.5157L12.7628 84.665L12.3711 84.0726L12.1466 84.2572L10.749 82.1709C10.749 82.1709 12.7477 80.5513 11.8029 78.5899C11.6188 78.322 11.4375 78.0528 11.2591 77.7816C10.393 76.8298 8.59423 77.5831 9.14376 79.6032L9.0518 79.7402L8.73138 79.0955L8.48815 79.245L7.34125 76.9692C7.34125 76.9692 9.48559 75.674 8.80933 73.6091C8.64594 73.2963 8.48616 72.9803 8.33035 72.6642C7.56866 71.6291 5.73508 72.1198 6.04508 74.1846L5.93796 74.3075L5.69463 73.6203L5.43644 73.732L4.56108 71.3061C4.56108 71.3061 6.83121 70.3409 6.40196 68.197C6.27609 67.8608 6.15409 67.5234 6.0357 67.1838C5.39799 66.0458 3.525 66.2598 3.59537 68.353L3.47518 68.4586L3.31274 67.7417L3.04309 67.8136L2.45425 65.2791C2.45425 65.2791 4.83443 64.6544 4.63525 62.4454C4.55341 62.1112 4.47461 61.7761 4.40045 61.4396C3.91759 60.1894 2.00805 60.1055 1.83633 62.2085L1.70468 62.2948L1.62578 61.5598L1.35054 61.5918L1.05759 58.9903C1.05759 58.9903 3.50151 58.7234 3.54565 56.4878L3.55124 56.5102C3.51089 56.1761 3.47244 55.8419 3.43768 55.5066L3.43673 55.5056C3.12483 54.1676 1.21339 53.7785 0.797311 55.8547L0.657321 55.9214L0.663951 55.1804L0.386819 55.1714L0.395248 52.549C0.395248 52.549 2.84874 52.6468 3.14927 50.4372L3.15675 50.4852C3.15391 50.1404 3.15391 49.7955 3.15874 49.4511L3.15306 49.4464C2.9981 48.0734 1.14672 47.405 0.496784 49.4004L0.350162 49.4464L0.442224 48.7129L0.16793 48.6626L0.477933 46.0639C0.477933 46.0639 2.89932 46.5252 3.45075 44.3791L3.45358 44.4262C3.48929 44.0845 3.52964 43.7432 3.57293 43.4022L3.56914 43.3979C3.57293 42.0135 1.81455 41.0758 0.941089 42.9581L0.789831 42.9816L0.964484 42.2673L0.69966 42.1775L1.30451 39.6471C1.30451 39.6471 3.65182 40.4634 4.44553 38.4171L4.44449 38.4359C4.51875 38.1086 4.59575 37.7819 4.67645 37.4562C4.83339 36.0875 3.20098 34.9018 2.11972 36.6364L1.96865 36.6368L2.22305 35.9551L1.97055 35.8264L2.86086 33.407C2.86086 33.407 5.09537 34.5655 6.1164 32.6538L6.11545 32.6579C6.22636 32.3454 6.34096 32.0335 6.45737 31.7234C6.75884 30.3925 5.28234 28.9896 4.01524 30.5435L3.86502 30.5217L4.19558 29.8838L3.96079 29.7187L5.12075 27.4521C5.12075 27.4521 7.19567 28.9266 8.42885 27.1969C8.57727 26.8979 8.72863 26.6015 8.88358 26.3064C9.32514 25.0337 8.02509 23.4343 6.59366 24.784L6.44705 24.7401L6.84911 24.1561L6.63392 23.9582L8.04479 21.8831C8.04479 21.8831 9.93842 23.6584 11.3613 22.1137L11.3604 22.1147C11.537 21.8488 11.7174 21.584 11.8995 21.3209C12.5007 20.1246 11.3924 18.3261 9.81159 19.4573L9.67161 19.391L10.1366 18.8721L9.94685 18.6437L11.5839 16.7955C11.5839 16.7955 13.2578 18.837 14.8452 17.5163L14.8264 17.5466L14.9372 17.4196L16.795 19.531C9.98436 27.3687 5.77836 38.1374 5.77836 50.0246C5.77836 61.9116 9.98436 72.6804 16.795 80.5182ZM8.84693 80.0917L8.46277 79.3276L8.70514 79.1772L9.02632 79.8231L8.84693 80.0917ZM3.1971 68.7373L2.9999 67.8868L3.26851 67.8127L3.43104 68.5312L3.1971 68.7373ZM0.325819 56.1082L0.328663 55.229L0.604755 55.2365L0.598124 55.9784L0.325819 56.1082ZM0.427263 43.0649L0.630139 42.216L0.894963 42.3045L0.720309 43.0189L0.427263 43.0649ZM3.49498 30.495L3.88473 29.7358L4.12047 29.8982L3.78888 30.5372L3.49498 30.495ZM9.32031 19.2566L9.86985 18.6371L10.0605 18.8646L9.59451 19.3841L9.32031 19.2566ZM12.6003 85.0441L12.1316 84.3436L12.3541 84.1581L12.7468 84.7505L12.6003 85.0441ZM5.69463 74.6245L5.40168 73.8104L5.65911 73.6978L5.90329 74.3854L5.69463 74.6245ZM1.39657 62.5297L1.29892 61.6574L1.57416 61.624L1.65306 62.3602L1.39657 62.5297ZM0 49.583L0.104091 48.7113L0.377443 48.7594L0.286231 49.494L0 49.583ZM1.5985 36.6652L1.89714 35.8548L2.14983 35.9813L1.89439 36.6641L1.5985 36.6652ZM6.08362 24.6591L6.55691 23.9629L6.7721 24.1604L6.37004 24.7444L6.08362 24.6591Z" fill="#8F989B"/>
<path fill-rule="evenodd" clip-rule="evenodd" d="M70.7621 80.9095L72.6203 83.021L72.4286 83.2342V83.2393C71.6848 84.335 72.577 86.2954 74.2791 85.407L74.4105 85.4925L73.8892 85.9378L74.0516 86.1931L72.2162 87.7816C72.2162 87.7816 70.7914 85.5084 69.0661 86.5835C68.8301 86.794 68.5926 87.0001 68.354 87.203C67.5181 88.1884 68.1813 90.231 69.9574 89.6062L70.0785 89.7108L69.5104 90.0761L69.6418 90.3514L67.6402 91.6541C67.6402 91.6541 66.5009 89.2176 64.6842 89.9864C64.4092 90.1721 64.1311 90.3537 63.8519 90.5309C62.9429 91.3977 63.374 93.4797 65.1906 93.1286L65.2985 93.2503L64.6937 93.5269L64.7923 93.8205L62.6583 94.8155C62.6583 94.8155 61.809 92.2348 59.9238 92.7228C59.6273 92.8659 59.3295 93.0048 59.0307 93.1402C58.0304 93.8643 58.2192 95.9932 60.0603 95.9131L60.1532 96.0497L59.5221 96.2344L59.586 96.5398L57.355 97.2103C57.355 97.2103 56.8065 94.5038 54.8623 94.7323C54.5682 94.8241 54.2734 94.9127 53.9774 94.9981C52.8784 95.548 52.8053 97.7174 54.6547 97.9128L54.7308 98.0623L54.0835 98.1517L54.1119 98.4648L51.8238 98.7968C51.8238 98.7968 51.5888 96.0199 49.623 95.9698L49.6418 95.9622C49.3478 96.0093 49.0538 96.053 48.7588 96.0916L48.7578 96.0936C47.5811 96.448 47.2391 98.6219 49.0651 99.0938L49.1232 99.2528L48.4714 99.2464L48.4639 99.5603L46.1571 99.5508C46.1571 99.5508 46.2435 96.7619 44.2991 96.4202L44.3404 96.4116C44.038 96.415 43.7346 96.4137 43.4313 96.4095L43.4276 96.415C42.2196 96.592 41.6317 98.6953 43.387 99.4352L43.4276 99.602L42.7813 99.4983L42.7381 99.808L40.4519 99.4567C40.4519 99.4567 40.8576 96.7041 38.9697 96.0775L39.011 96.0742C38.7105 96.0338 38.41 95.9878 38.1102 95.9397L38.1065 95.943C36.8882 95.9387 36.0636 97.9374 37.7196 98.9316L37.7402 99.1022L37.1118 98.9038L37.0329 99.2048L34.8068 98.5172C34.8068 98.5172 35.5244 95.8481 33.7247 94.947L33.7407 94.949C33.4525 94.8636 33.1651 94.776 32.8776 94.684C31.6735 94.5079 30.6326 96.3615 32.1581 97.5904L32.159 97.7634L31.5589 97.4729L31.4461 97.7592L29.3176 96.7471C29.3176 96.7471 30.3358 94.208 28.6546 93.0472L28.6584 93.0484C28.3822 92.9216 28.108 92.7911 27.8337 92.6576C26.6642 92.3183 25.4309 93.9966 26.7986 95.4359L26.7789 95.6067L26.2171 95.2307L26.0725 95.4978L24.0784 94.178C24.0784 94.178 25.3764 91.8207 23.853 90.4186C23.591 90.25 23.3289 90.0771 23.0698 89.901C21.9491 89.4012 20.5448 90.879 21.7313 92.5041L21.6927 92.6716L21.179 92.2157L21.005 92.4592L19.1793 90.8554C19.1793 90.8554 20.7412 88.7018 19.382 87.0855L19.3829 87.0867C19.1491 86.8858 18.9161 86.6807 18.6842 86.4736C17.6312 85.7917 16.0495 87.0503 17.0442 88.846L16.987 89.0062L16.5304 88.4777L16.3295 88.6933L14.7045 86.8325C14.7045 86.8325 16.5003 84.9298 15.3375 83.1259L15.3657 83.1479L15.252 83.021L17.11 80.9089C24.0052 88.6507 33.4787 93.4319 43.9356 93.4319C54.3934 93.4319 63.8671 88.6507 70.7621 80.9095ZM70.3866 89.9436L69.7151 90.3815L69.5825 90.1048L70.151 89.7398L70.3866 89.9436ZM60.3984 96.3657L59.6499 96.5899L59.585 96.2847L60.2171 96.0999L60.3984 96.3657ZM49.2886 99.6296L48.5146 99.6265L48.5211 99.3127L49.1739 99.3201L49.2886 99.6296ZM37.8135 99.5145L37.0667 99.2836L37.1447 98.9826L37.773 99.1813L37.8135 99.5145ZM26.7553 96.0272L26.0865 95.5841L26.2312 95.316L26.7929 95.6941L26.7553 96.0272ZM16.8685 89.4055L16.3239 88.781L16.5237 88.5642L16.9812 89.0937L16.8685 89.4055ZM74.7428 85.677L74.1267 86.2111L73.9651 85.9569L74.4857 85.5106L74.7428 85.677ZM65.5775 93.5269L64.8618 93.8599L64.7623 93.5673L65.3672 93.2898L65.5775 93.5269ZM54.9375 98.4113L54.1691 98.5225L54.1409 98.2107L54.788 98.1211L54.9375 98.4113ZM43.5478 100L42.7803 99.8815L42.8226 99.571L43.4689 99.6756L43.5478 100ZM32.1844 98.1828L31.4705 97.8434L31.5823 97.5562L32.1825 97.8467L32.1844 98.1828ZM21.6213 93.0848L21.0089 92.5467L21.1826 92.3021L21.6964 92.7591L21.6213 93.0848Z" fill="#8F989B"/>
<path fill-rule="evenodd" clip-rule="evenodd" d="M76.0984 21.4712C76.2832 21.7391 76.4648 22.0082 76.6432 22.2794C77.5091 23.2328 79.3079 22.4801 78.7584 20.459L78.8505 20.3212L79.1707 20.9672L79.4142 20.8177L80.5599 23.0929C80.5599 23.0929 78.4166 24.3881 79.0938 26.4534C79.2562 26.7669 79.4152 27.0817 79.5708 27.3978C80.3335 28.4334 82.1671 27.9435 81.8571 25.8774L81.9642 25.7548L82.2076 26.4423L82.4659 26.3301L83.3411 28.7561C83.3411 28.7561 81.0699 29.7211 81.5001 31.8662C81.6259 32.2014 81.7482 32.5393 81.8666 32.8771C82.5034 34.017 84.3762 33.8028 84.3066 31.7092L84.4269 31.6034L84.5905 32.3215L84.8581 32.2483L85.4471 34.783C85.4471 34.783 83.0669 35.4076 83.2679 37.6176C83.3488 37.9519 83.4276 38.2872 83.5018 38.623C83.9854 39.8737 85.8941 39.9559 86.0659 37.8538L86.1974 37.7672L86.2766 38.5027L86.5515 38.4708L86.8438 41.0717C86.8438 41.0717 84.4006 41.3386 84.3565 43.5744L84.3499 43.5519C84.3914 43.8861 84.4299 44.2202 84.4645 44.5556L84.4656 44.5567C84.7774 45.8956 86.6887 46.2836 87.1048 44.208L87.2448 44.1412L87.2391 44.8823L87.5153 44.8908L87.5057 47.513C87.5057 47.513 85.0535 47.4149 84.7529 49.625L84.7453 49.5768C84.7483 49.9217 84.7483 50.2666 84.7444 50.6102L84.7483 50.6157C84.9042 51.9888 86.7544 52.6578 87.4054 50.6616L87.5509 50.6157L87.4609 51.3498L87.7333 51.3994L87.4232 53.9976C87.4232 53.9976 85.0028 53.5364 84.4514 55.6835L84.4496 55.636C84.4129 55.9776 84.3725 56.3193 84.3294 56.6597L84.3331 56.6641C84.3294 58.049 86.0876 58.9869 86.9611 57.1041L87.1113 57.0806L86.9377 57.7948L87.2017 57.8844L86.5966 60.4148C86.5966 60.4148 84.2495 59.5982 83.4567 61.6449L83.4575 61.6262C83.3843 61.9546 83.3065 62.2822 83.2257 62.6091C83.0716 63.9772 84.7022 65.1587 85.7824 63.4259L85.9335 63.4249L85.6782 64.1075L85.9316 64.2351L85.0403 66.6545C85.0403 66.6545 82.8077 65.4966 81.7859 67.4077V67.4051C81.6749 67.719 81.5604 68.0307 81.4438 68.3413C81.1451 69.6718 82.6207 71.0714 83.887 69.519L84.0373 69.5405L83.7055 70.1794L83.9413 70.3433L82.7804 72.6091C82.7804 72.6091 80.7064 71.1346 79.4732 72.8653C79.3247 73.1641 79.1727 73.462 79.0178 73.7578C78.5789 75.0304 79.878 76.6265 81.3085 75.2783L81.455 75.322L81.0532 75.9059L81.2682 76.1035L79.8566 78.1786C79.8566 78.1786 77.963 76.4029 76.5408 77.9485L76.5418 77.9473C76.3643 78.2138 76.1848 78.4785 76.0017 78.7418C75.4024 79.9392 76.5108 81.7361 78.0907 80.6059L78.2306 80.671L77.7657 81.1905L77.9552 81.4185L76.3182 83.2656C76.3182 83.2656 74.6444 81.2246 73.058 82.5459L73.0769 82.5144L72.965 82.6432L71.1071 80.5313C77.9178 72.6935 82.1239 61.9247 82.1239 50.0377C82.1239 38.1505 77.9178 27.3818 71.1071 19.544L72.9678 17.4298L73.1575 17.6492C74.1211 18.4956 75.8458 17.4812 75.0643 15.5471L75.1393 15.3971L75.5321 15.9896L75.7556 15.805L77.1533 17.891C77.1533 17.891 75.1544 19.5108 76.0993 21.4721L76.0984 21.4712ZM79.0553 19.971L79.4393 20.7351L79.1971 20.8849L78.8759 20.239L79.0553 19.971ZM84.705 31.3248L84.9021 32.1757L84.6336 32.2488L84.471 31.5309L84.705 31.3248ZM87.5773 43.954L87.5735 44.8342L87.2974 44.8257L87.3041 44.0836L87.5773 43.954ZM87.475 56.9978L87.2721 57.8466L87.0071 57.7575L87.182 57.0431L87.475 56.9978ZM84.4073 69.5666L84.0174 70.3274L83.7826 70.1629L84.1132 69.5244L84.4073 69.5666ZM78.5819 80.805L78.0323 81.4249L77.8427 81.1975L78.3076 80.6785L78.5819 80.805ZM75.3019 15.019L75.7705 15.7195L75.5479 15.9037L75.1564 15.3112L75.3019 15.019ZM82.2076 25.4375L82.5015 26.2516L82.2431 26.3643L81.9991 25.6762L82.2076 25.4375ZM86.5046 37.5324L86.6033 38.4057L86.328 38.4382L86.2493 37.7021L86.5046 37.5324ZM87.9022 50.4791L87.798 51.3515L87.5248 51.3023L87.6167 50.5682L87.9022 50.4791ZM86.3038 63.3959L86.005 64.2083L85.7524 64.0803L86.0078 63.398L86.3038 63.3959ZM81.8186 75.4031L81.3452 76.0993L81.1302 75.9016L81.5321 75.3177L81.8186 75.4031Z" fill="#8F989B"/>
<path fill-rule="evenodd" clip-rule="evenodd" d="M44.2289 88.4587C25.6722 88.2095 10.6952 71.0765 10.6952 49.9735C10.6952 28.8704 25.6722 11.7368 44.2289 11.4881C62.7872 11.7368 77.7635 28.8704 77.7635 49.9729C77.7635 71.0765 62.7872 88.2095 44.2289 88.4587Z" fill="#FAD0A0"/>
<path fill-rule="evenodd" clip-rule="evenodd" d="M44.2289 76.2389C43.0382 76.2236 41.8364 75.9798 40.3683 75.3653C38.7735 74.6975 37.3622 73.8265 35.6921 73.1752C31.9423 71.712 30.6649 70.6807 27.8163 67.6258C25.5894 65.238 24.717 63.6597 23.559 60.446C23.3169 59.7746 23.0935 59.099 22.8729 58.4185C21.617 54.5252 21.7754 52.3514 21.8573 48.3403C21.9279 44.8928 22.4372 41.7584 23.4604 38.5107C24.8251 34.179 27.7296 31.3914 30.9006 28.7333C32.7847 27.1539 33.8833 26.665 36.112 25.9899C38.7083 25.2029 39.6523 23.9317 42.6769 23.5707C43.2038 23.5075 43.7205 23.461 44.2289 23.4323C44.7381 23.4615 45.2549 23.5075 45.7817 23.5707C48.8063 23.9317 49.7502 25.2038 52.3468 25.9899C54.5755 26.665 55.6739 27.1539 57.5582 28.7333C60.7281 31.3914 63.6336 34.1785 64.9984 38.5111C66.0215 41.7584 66.5307 44.8928 66.6015 48.3408C66.6833 52.3514 66.8426 54.5252 65.5857 58.4185C65.366 59.099 65.1417 59.7746 64.8995 60.4456C63.7407 63.6597 62.8692 65.238 60.6424 67.6258C57.7937 70.6812 56.5164 71.7125 52.7664 73.1752C51.0954 73.8265 49.6852 74.6975 48.0904 75.3653C46.6224 75.9798 45.4204 76.2236 44.2289 76.2389Z" fill="#E0B17A"/>
<path fill-rule="evenodd" clip-rule="evenodd" d="M44.2289 61.6131C43.0661 61.3365 42.4629 60.6445 40.9528 60.3041C39.0007 59.8649 38.025 59.0753 36.5514 57.6041C35.4286 56.4829 34.71 54.7352 34.3133 53.1057C33.9494 51.6105 34.1941 49.8695 34.4139 48.3503C34.7192 46.2414 35.3922 44.0308 36.5764 42.3502C37.6461 40.8315 38.875 39.4581 40.4995 38.7635C42.1296 38.0665 42.8921 37.5139 44.2289 37.3246C45.5656 37.5139 46.3281 38.0665 47.9591 38.7635C49.5846 39.4581 50.8126 40.8315 51.8822 42.3502C53.0664 44.0308 53.7395 46.2414 54.0447 48.3503C54.2646 49.8695 54.5094 51.6105 54.1455 53.1057C53.7478 54.7352 53.0301 56.4829 51.9063 57.6046C50.4328 59.0753 49.4579 59.8643 47.5058 60.3046C45.9959 60.6445 45.3925 61.3365 44.2289 61.6131Z" fill="#F8C385"/>
<path fill-rule="evenodd" clip-rule="evenodd" d="M66.0709 18.5808C69.0964 21.3705 72.0802 24.5029 73.9122 28.4629C74.9195 30.6387 76.0124 33.0615 76.8698 35.3065C77.4805 36.9075 77.8166 38.7687 78.31 40.4683C79.4663 44.5314 79.0053 47.1003 79.0901 51.2133C79.1154 52.4179 79.131 53.5423 79.0472 54.7479C78.8889 56.8825 78.46 58.984 77.9908 61.0564C77.608 62.7479 76.9406 64.3685 76.462 66.0703C75.6773 68.8605 74.4949 70.961 73.1955 73.4438C71.919 75.8694 70.5274 78.2511 68.4624 79.8992C67.5993 80.5879 66.9859 81.2165 66.0531 81.8647C65.8827 81.9832 65.7124 82.0987 65.541 82.2143C64.9062 82.6418 64.262 83.0535 63.6177 83.4642C60.9851 85.1438 60.4618 86.167 57.2407 87.0418C55.4776 87.5212 54.0011 88.1335 52.2891 88.7194C49.7522 89.5872 47.0915 90.0349 44.4429 89.9979C41.7675 89.96 39.8171 89.9251 37.1517 89.3583C31.3437 88.1219 24.663 85.2652 20.3611 80.5398C17.6447 77.5564 15.7586 74.7119 13.9312 70.9551C12.775 68.5809 11.6504 65.9108 10.9959 63.3054C10.4615 61.176 9.80882 59.4278 9.45332 57.2035C9.09218 54.9189 8.41149 49.4513 9.05857 47.3568C9.57611 45.6778 9.66097 46.2811 9.49791 44.4103C9.37784 43.0259 9.75212 41.9908 9.99977 40.6589C10.4307 38.3369 10.8356 35.3429 11.8839 33.2938C12.437 32.2508 13.0923 31.3439 13.6518 30.2628C14.5531 28.5262 15.5251 26.8423 16.481 25.1448C17.9985 22.4496 19.7616 20.8133 21.8777 18.7747C25.3306 15.4481 28.0471 13.9812 32.2884 12.2947C34.2361 11.5197 36.3856 10.774 38.4319 10.4979C40.3812 10.2355 41.7339 9.94153 43.7484 10.0101C47.7413 10.1358 49.499 9.79696 53.5132 11.1862C54.6834 11.5911 55.7168 11.8376 56.8954 12.3243C58.1549 12.8452 59.2609 13.4338 60.4004 14.2392C61.5567 15.0691 62.7501 15.9574 63.9007 16.8067C64.6649 17.3717 65.3596 17.9323 66.0709 18.5808ZM58.598 85.1807C55.835 86.8636 53.5113 87.2984 50.4317 87.8791C46.2509 88.6668 44.214 88.8547 39.9791 88.4207C35.9853 88.0112 33.7147 87.155 30.0496 85.4194C28.4279 84.6507 27.0241 83.4388 25.5493 82.3768C24.0645 81.3074 23.0078 80.4845 21.7027 79.1305C19.8706 77.2313 18.4666 75.8267 16.9624 73.5214C14.0354 69.0337 12.7422 65.9848 11.5991 60.531C10.9046 57.175 10.4885 53.2127 10.536 49.7659C10.5575 48.1423 11.373 47.68 12.6316 47.2656C14.7189 46.5788 16.3609 47.0844 18.4351 47.1383C18.4388 47.1383 17.9193 47.0338 17.6782 46.9852C15.7363 46.5946 13.2496 46.0362 11.6979 44.5815C10.6329 43.5828 10.9995 42.2315 11.2008 40.8958C11.2482 40.5824 11.2984 40.27 11.3497 39.9574C11.7947 37.429 12.8476 35.1466 13.6854 32.746C14.2793 31.0462 15.8963 27.7397 16.9037 26.4148C17.7732 25.2704 18.6706 24.2654 19.5485 23.0767C20.9561 21.1691 21.2838 20.8074 23.0311 19.3078C24.7088 17.8678 25.4144 17.0216 27.3703 15.9463C29.5245 14.7609 30.7767 14.0397 33.1227 13.3463C36.8837 12.2334 40.6122 11.5426 44.5035 11.3815C46.4278 11.3097 49.0465 11.4956 50.8899 12.1094C51.8831 12.4397 52.2006 13.7969 52.3309 14.8332C52.6121 17.0645 51.6681 19.294 51.2407 21.4286C51.2399 21.4339 51.5275 20.5978 51.6625 20.2066C52.4483 17.9311 53.0868 15.5093 55.0996 14.2768C56.0156 13.7168 56.6467 14.1136 57.5395 14.5201C57.8812 14.6754 58.2041 14.8401 58.5366 15.0195C61.3007 16.5383 63.4762 18.0325 65.9861 20.0278C68.7344 22.2173 69.4295 22.7569 71.3111 25.8458C72.0371 27.0375 72.8603 28.4249 73.5445 29.6526C74.8932 32.0744 76.2154 36.253 76.9517 39.0162C77.4906 41.1408 77.9041 44.1443 78.0625 46.3487C78.1313 47.3041 77.8091 47.7623 77.0298 48.1476C75.4716 48.9194 72.7168 48.959 70.9723 49.141C70.9666 49.1415 71.7924 49.1621 72.188 49.1737C73.5035 49.2139 77.9208 49.1886 78.2382 51.0566C78.4412 52.2512 77.973 56.0633 77.7384 57.3892C77.4759 58.8672 77.1295 60.3126 76.7589 61.7589C75.9966 64.7032 74.5527 69.0379 73.0642 71.598C72.2438 73.0079 70.8419 74.2537 69.8152 75.5686C69.0431 76.5578 68.6113 77.0988 67.3834 76.5778C65.4339 75.7502 64.6101 74.1529 63.2566 72.5808C63.2528 72.5756 63.7583 73.6568 63.9613 74.0926C64.7181 75.7216 66.5558 79.282 64.9778 80.8739C63.9733 81.8869 61.2326 83.5782 59.9647 84.351C59.5094 84.6287 59.0533 84.9042 58.598 85.1807Z" fill="#CB9F70"/>
<path fill-rule="evenodd" clip-rule="evenodd" d="M58.2006 29.7645C58.815 30.3338 60.7003 32.0564 60.9766 32.7797C61.3332 33.7129 60.9291 35.1244 60.446 35.9099C59.4116 37.5926 58.0293 38.5628 56.5891 39.7029C56.5854 39.7051 57.1467 39.3526 57.4204 39.1878C58.843 38.3347 60.9403 37.0548 62.5843 37.4C64.1949 37.7383 64.2563 38.2914 64.8792 39.8349C64.9732 40.0683 65.0643 40.3015 65.1546 40.537C65.5484 41.5679 65.7644 42.7667 66.0828 43.8614C66.7178 46.051 66.5921 47.3052 66.5717 49.5221C66.5614 50.7151 66.6489 51.8394 66.5576 53.0582C66.4552 54.4323 66.1788 55.7863 65.877 57.1212C65.6304 58.21 65.2013 59.2536 64.8931 60.3494C64.2796 62.461 62.8562 65.2237 61.6218 66.9414C60.1844 68.9408 59.8698 69.3821 57.8588 70.7472C57.4493 71.0226 57.0348 71.2876 56.6207 71.5526C54.9247 72.6337 54.5884 73.2925 52.5133 73.8562C51.3775 74.1644 50.4271 74.5593 49.3239 74.9363C47.0393 75.6989 45.0621 76.2516 44.3872 72.9683C44.0324 71.2422 44.24 71.3647 43.9057 73.0164C43.5036 75.0022 42.6267 75.7476 40.8103 75.5637C40.4016 75.5158 39.979 75.4314 39.575 75.3479C35.8346 74.5519 31.5316 72.7124 28.7621 69.6693C27.9969 68.8225 25.6416 65.966 25.4629 64.8785C25.1658 63.0685 26.8824 61.382 28.0741 60.5184C28.7333 60.0402 28.7788 60.0943 28.0258 60.3274C26.4934 60.7992 24.463 60.9897 23.2341 59.6C22.7593 59.0626 22.5341 57.83 22.3181 57.0778C22.078 56.2416 21.8832 55.5086 21.7361 54.6397C21.2148 51.3813 21.1051 48.2648 21.8721 45.0417C22.2807 43.2945 22.5164 40.7229 23.3021 39.2407C23.6577 38.5692 24.0804 37.9848 24.4407 37.2886C25.0206 36.1701 25.6462 35.0859 26.2625 33.9922C27.24 32.256 28.3758 31.203 29.7387 29.8902C31.9617 27.747 33.7119 26.8022 36.4433 25.7165C37.6982 25.2177 39.0817 24.7373 40.3999 24.5594C41.504 24.4164 42.3446 24.4137 43.1146 25.491C44.3322 27.1965 44.1887 30.7 44.2029 32.833C44.2029 32.9217 44.2047 35.4221 44.214 34.9058C44.254 32.6467 44.2206 27.1158 45.3562 25.3665C46.3608 23.8209 48.095 24.3879 49.4692 24.7849C51.2722 25.3307 52.9582 25.8283 54.5485 26.9691C55.2932 27.5031 56.0622 28.0754 56.8032 28.6223C57.2949 28.986 57.7415 29.3474 58.2006 29.7645ZM53.3875 72.6579C51.6077 73.7411 50.1115 74.0209 48.1277 74.3957C46.5833 74.6845 45.8339 74.6891 45.0398 72.9551C44.3909 71.538 44.3285 70.3898 44.0482 68.9039C44.0473 68.8964 43.983 70.345 43.8946 70.8812C43.6544 72.3339 43.0325 74.5773 41.4741 74.6971C39.657 74.8371 36.7021 73.6096 35.0013 72.811C33.9567 72.317 33.0529 71.5357 32.1024 70.8517C31.1472 70.1633 30.4667 69.6334 29.6251 68.7613C28.8495 67.958 26.6321 65.705 26.3742 64.6551C26.013 63.1777 27.0436 61.611 27.9941 60.7186C28.0574 60.6599 28.7901 60.0961 28.602 60.1288C27.5658 60.3073 27.0044 60.6049 25.877 60.3621C24.6595 60.0982 23.747 59.4321 23.4026 58.0386C23.2993 57.6226 23.2081 57.2024 23.1186 56.7822C22.2269 52.5278 22.2398 47.823 22.9576 43.5325C23.2443 41.9042 23.923 40.4336 24.462 38.888C24.8446 37.7933 25.8863 35.6639 26.5343 34.8099C27.0947 34.0735 27.6729 33.4263 28.2379 32.6603C29.1446 31.4314 29.3561 31.1988 30.4815 30.2328C31.5614 29.3059 32.0158 28.7611 33.2753 28.0681C34.6634 27.3049 35.4696 26.8402 36.9805 26.3937C38.2046 26.0348 40.7349 25.1924 41.8978 25.697C44.1628 26.6787 44.1218 30.8497 44.1758 33.1133C44.1907 33.7299 44.2195 34.4149 44.2121 35.023C44.2206 35.013 44.3322 31.8949 44.3499 31.652C44.5045 29.4726 44.9095 24.8766 47.6948 25.4139C48.3426 25.5386 49.054 25.7845 49.6758 26.0262C50.9663 26.5499 52.0758 26.7717 53.3474 27.4715C55.1275 28.4492 56.5296 29.412 58.1457 30.6967C58.6987 31.1375 60.2067 32.276 60.486 32.918C60.892 33.8502 60.6535 35.0758 60.1993 35.9215C59.2822 37.6306 57.9687 38.576 56.5871 39.7035C56.5845 39.7057 57.0406 39.4254 57.252 39.3019C58.6949 38.4578 60.9943 37.1366 62.6263 37.8264C63.9361 38.3802 63.9939 39.0141 64.4556 40.4068C64.7313 41.239 64.9786 42.0761 65.208 42.9261C65.6602 44.6205 66.0186 48.1222 66.0558 49.861C66.1191 52.8591 65.8278 54.6962 65.083 57.5736C64.5935 59.4696 63.6624 62.2614 62.7036 63.9094C62.1737 64.7761 61.7195 65.0145 60.7867 64.6832C58.4668 63.8597 56.7398 61.0704 54.8091 59.4245C54.2803 58.9729 53.6872 58.474 53.1415 58.0543C53.2256 58.1701 54.8519 59.5608 55.174 59.8796C56.4606 61.1486 60.0298 66.2103 59.0263 68.1923C58.1942 69.8355 54.9041 71.7363 53.3875 72.6579Z" fill="#9F7950"/>
<path d="M55.5809 59.0277C54.1975 61.0314 53.6604 61.2035 51.9568 62.5896C50.4745 63.7942 50.4298 64.4457 48.3036 64.7612C46.9602 64.9607 46.2146 65.0675 44.8759 65.4771C42.3027 66.2656 41.0319 66.0888 38.5669 64.8442C35.9461 63.5203 34.1235 61.6479 32.4562 59.0267L32.3536 58.8639C30.1762 55.3717 29.8393 52.0379 30.1911 47.8678C30.3848 45.578 31.0019 43.998 31.9916 42.0224C33.3909 39.2252 34.7508 37.8406 36.9981 35.9425C38.7923 34.426 40.588 33.876 42.7869 33.6875C44.5444 33.5377 46.2575 33.9558 47.9759 34.3137C50.4652 34.8632 52.1503 36.3121 53.9685 38.2461C55.3649 39.7325 56.3432 41.0343 57.0509 43.0739C57.5981 44.6564 58.6186 48.8084 58.6279 50.4216C58.6464 53.689 57.3003 56.5167 55.5809 59.0277ZM48.5195 35.7821C46.5842 34.8066 44.9689 34.4309 42.8334 34.4414C40.7378 34.4529 38.5623 35.894 36.8436 37.1661C33.9373 39.3186 32.9858 41.8535 31.8947 45.4367C31.0737 48.1349 30.7589 51.0692 31.2059 53.8959C31.65 56.7073 33.2455 59.7372 35.221 61.5149C36.6928 62.7755 39.4391 64.3569 41.2694 64.6431C43.6396 65.0126 45.6271 64.9128 47.8642 63.8856C50.6607 62.6008 52.6074 61.098 54.7272 58.5976C55.955 57.1486 57.1598 55.3611 57.4521 53.3332C57.8906 50.0742 57.2138 46.3592 56.023 43.3818C54.7904 40.3026 54.1043 39.4101 51.5014 37.544C50.5268 36.8462 49.5698 36.3147 48.5195 35.7821Z" fill="#694F33"/>
<path fill-rule="evenodd" clip-rule="evenodd" d="M17.4166 61.608C18.4304 64.1199 22.4587 71.9201 24.018 73.6789C25.1835 74.9932 27.1841 77.1205 28.6318 77.9048C29.9212 78.6037 31.5084 79.3115 32.8507 79.9936C36.5504 81.8726 40.2901 82.4418 44.3014 82.7876C46.5479 82.9806 48.5327 82.7734 50.7369 82.7986C46.7574 83.8254 39.8898 83.4652 35.854 82.2977C33.7734 81.6954 30.1279 79.9931 28.2139 78.8856C26.6479 77.9794 24.7116 75.8066 23.4752 74.3287C22.0379 72.611 17.5461 63.7721 17.4166 61.608Z" fill="#694F33"/>
<path fill-rule="evenodd" clip-rule="evenodd" d="M60.4189 40.0767C61.5306 41.5294 61.9309 42.7086 62.3517 44.5741C63.4512 49.4504 63.1057 56.058 59.7682 59.7572L59.5177 59.9906C59.6714 59.4326 59.5821 59.6792 59.9304 58.9797C61.3052 56.2207 61.7253 54.6703 61.8888 51.5047C62.1301 46.8592 61.9151 44.5166 60.4189 40.0767Z" fill="#694F33"/>
<path fill-rule="evenodd" clip-rule="evenodd" d="M40.156 29.2685C36.9247 30.5004 33.7892 32.4033 31.3566 35.1634C30.7496 35.8507 30.6537 36.1362 29.937 36.8413C28.6121 38.1438 28.5256 38.1278 27.7958 40.1146C26.1945 44.4738 26.0819 46.3296 26.0707 50.8957C26.0697 51.4276 25.862 55.5207 25.8882 55.6662L25.972 56.0759C25.5671 55.6568 25.6351 55.2028 25.6276 54.6144C25.5865 51.2609 25.1099 47.6757 25.6769 44.4352C26.0912 42.0604 26.9719 38.245 28.6215 36.664C29.5264 35.7958 29.4518 36.0242 30.3102 35.0019C32.3175 32.6091 37.1965 29.2218 40.156 29.2685Z" fill="#694F33"/>
<path fill-rule="evenodd" clip-rule="evenodd" d="M46.4603 15.2686C44.6228 15.7288 42.367 16.024 40.4491 16.3971C38.376 16.8005 35.0534 17.2687 33.2875 18.269C30.153 20.0457 28.3972 20.4975 25.4564 23.0555C22.2854 25.8121 22.3432 24.996 19.9004 29.2435C19.1789 30.4972 18.085 32.4724 17.6214 33.8396C17.1095 35.3482 17.2128 35.0147 16.4243 36.5368C15.5594 38.206 14.8081 40.2984 14.3399 42.1618C14.337 41.3029 14.2906 41.5854 14.5093 40.6764C15.1562 37.9927 15.4505 37.449 16.5909 34.9823C17.0629 33.9637 16.657 34.881 17.0424 33.5936C17.505 32.0496 18.7349 29.6797 19.5188 28.2643C21.7539 24.2284 21.9132 24.8471 24.8242 22.1882C26.4514 20.7013 27.7631 19.9412 29.668 19.0248C30.933 18.4162 32.2522 17.7369 33.4988 17.1489C35.0889 16.3994 44.7717 15.0216 46.4603 15.2686Z" fill="#694F33"/>
<path fill-rule="evenodd" clip-rule="evenodd" d="M56.2158 16.9709C58.4528 17.1023 64.451 22.5963 66.2934 24.4247C68.885 26.9997 71.8128 32.1832 72.5605 36.0043C72.7941 37.203 72.8369 37.5213 73.2065 38.7186C74.169 41.8419 73.8256 41.9369 74.0724 44.9636C74.1579 46.0167 74.1522 45.492 74.077 46.5866C73.8311 45.2723 73.6719 44.5317 73.5604 43.1604C73.3146 40.1406 72.5232 39.4395 71.9626 36.9085C71.0672 32.8642 69.4372 30.5157 67.3294 27.2049C65.5914 24.4739 58.9501 18.4109 56.2158 16.9709Z" fill="#694F33"/>
<path fill-rule="evenodd" clip-rule="evenodd" d="M76.91 49.2249C76.8912 51.3618 76.9441 52.981 76.3047 55.045C75.8784 56.4218 75.8858 56.3973 75.5898 57.8812C75.2536 59.5713 74.9901 61.0453 74.3871 62.6447C73.4913 65.0199 73.6393 65.5257 72.2802 67.9268C71.6881 68.9725 71.7311 69.0242 70.8502 69.7352C71.5381 68.7504 71.7896 68.1849 72.2914 67.0844C73.1748 65.1455 73.2057 64.2139 73.8444 62.2993C74.6114 59.9977 74.6362 57.6896 75.2071 55.5956C76.031 52.5751 75.9415 52.3609 75.8971 49.2249C75.8971 48.9077 76.1241 48.6505 76.4034 48.6505C76.6827 48.6505 76.91 48.9077 76.91 49.2249Z" fill="#694F33"/>
<path fill-rule="evenodd" clip-rule="evenodd" d="M66.5911 77.5574C65.0924 78.6925 64.8186 79.7871 62.7491 80.9474C61.9913 81.3717 61.2047 81.68 60.4004 82.1341C58.4844 83.2182 57.4605 83.9604 55.3119 84.4819C54.3493 84.7152 53.3382 85.4415 52.2938 85.8194C49.4451 86.851 43.1592 86.7326 40.02 86.6629C38.6152 86.6313 35.854 86.6588 34.9779 85.1386C36.5382 86.591 39.6011 86.2122 41.5199 86.1572C43.929 86.0876 48.2813 85.9999 50.5278 85.4995C52.6372 85.0288 53.5942 84.0131 55.2206 83.5835C57.1476 83.0736 58.2704 82.248 59.9916 81.2329C60.7924 80.7605 61.5752 80.4374 62.3274 79.9983C64.2071 78.902 64.5748 77.7412 66.1033 76.5504C66.3491 76.3978 66.6564 76.4996 66.7914 76.7773C66.9263 77.0555 66.8361 77.4045 66.5911 77.5574Z" fill="#694F33"/>
<path fill-rule="evenodd" clip-rule="evenodd" d="M12.9657 46.7045C12.1065 48.3666 12.0562 56.2734 12.4975 58.2622C12.9722 60.4059 13.2142 62.1261 13.6025 64.2388C14.0651 66.7619 14.4749 67.7341 15.5072 69.9901C13.5326 67.4893 13.1445 64.5833 12.5123 61.4326C12.2583 60.1662 11.7731 58.6465 11.6224 57.4769C11.2845 54.8565 11.0313 48.2046 12.1949 45.9586C12.3764 45.7173 12.6968 45.6888 12.9089 45.8942C13.1212 46.1 13.1474 46.4627 12.9657 46.7045Z" fill="#694F33"/>
<path fill-rule="evenodd" clip-rule="evenodd" d="M53.0254 15.0353C51.939 14.3866 52.5087 14.6965 51.4857 14.4694C50.2175 14.1887 50.5491 14.1189 49.0474 13.9753C46.1438 13.6966 42.7561 13.6069 39.8749 13.9985C37.1853 14.3639 31.4981 15.012 29.2265 16.3424C28.3358 16.8638 26.4319 18.1971 25.5596 18.4601C26.7298 17.6155 27.8126 16.7678 29.022 15.9749C31.4768 14.3654 37.4702 13.5574 40.4325 13.0653C42.6304 12.7001 48.8762 12.6484 51.0136 13.1895C52.3131 13.5183 52.2528 13.3208 53.5523 14.0545C53.7916 14.2197 53.867 14.573 53.7217 14.8442C53.5766 15.115 53.2647 15.2012 53.0254 15.0353Z" fill="#694F33"/>
<path fill-rule="evenodd" clip-rule="evenodd" d="M59.9973 65.8908C58.2592 67.1155 57.3682 68.3031 55.3119 69.0855C53.2432 69.8729 52.4846 70.5887 50.1737 70.8046C48.5885 70.9521 48.0028 71.1136 46.3188 71.0279C46.0926 71.0163 45.9987 71.0458 45.7845 71.0965C46.0033 70.7905 46.2854 70.802 46.6242 70.7804C47.975 70.6933 48.8976 70.385 50.1645 70.1823C52.2527 69.8488 53.1865 69.0243 55.0837 68.2008C56.8822 67.4201 57.9241 66.083 59.489 64.898C59.73 64.7386 60.041 64.832 60.1807 65.1059C60.3212 65.3806 60.2393 65.7314 59.9973 65.8908Z" fill="#694F33"/>
<path fill-rule="evenodd" clip-rule="evenodd" d="M22.5945 64.0329C23.6809 65.7345 23.6334 66.5918 24.5039 68.0556C26.5138 71.4365 31.339 75.1811 34.7695 76.5023C40.601 78.7483 48.8958 78.9457 54.7393 76.8328C59.5206 75.1034 65.2766 71.8668 67.0194 66.0947C67.2745 65.25 67.4458 64.3807 67.5435 63.4961C67.7193 61.8956 68.1859 61.1873 68.7296 59.657C69.3143 58.0105 69.5927 56.9929 69.7992 55.1817L69.8532 56.2038C69.7992 57.5254 69.1272 59.6622 68.7101 60.9131C68.2427 62.3153 68.1505 62.1546 68.0359 63.5568C67.942 64.7149 67.7232 65.8493 67.3656 66.9402C65.3223 73.1721 58.3449 76.9284 53.0617 78.4938C47.5795 80.1196 39.2241 79.4198 33.9521 77.0471C30.5394 75.5115 24.9089 70.8465 23.6056 66.9001C23.2239 65.7442 23.0843 65.2184 22.5945 64.0329Z" fill="#694F33"/>
<path fill-rule="evenodd" clip-rule="evenodd" d="M59.8177 27.0978C59.0486 26.049 51.4522 22.8602 50.1878 22.6777C48.0077 22.3618 39.5779 22.1118 37.6693 22.58C35.5049 23.1104 31.9198 24.8301 29.8486 25.8538C27.0483 27.2372 25.9283 28.2918 24.394 31.2901C23.5804 32.8784 22.8236 33.2473 21.6188 34.417L22.1552 33.5894C23.101 32.3942 23.2527 32.7596 24.0087 31.0757C25.4498 27.8626 26.6805 26.6307 29.5432 25.09C31.6462 23.9583 35.195 22.1319 37.4153 21.5153C39.5266 20.9294 48.6164 21.3897 50.8507 22.0009C51.7063 22.2353 60.0689 26.0797 59.8177 27.0978Z" fill="#694F33"/>
<path fill-rule="evenodd" clip-rule="evenodd" d="M34.0024 46.6717C35.1064 44.0209 36.3512 42.6686 38.2745 40.7783C40.0052 39.0779 41.0917 38.6125 43.379 38.1886C45.1831 37.8539 47.7712 37.875 49.4365 38.8295C50.9262 39.683 54.1519 41.9991 55.0195 43.6333C55.1592 43.8962 55.3751 44.5107 55.4654 44.8844C54.9888 44.4083 55.2595 44.5165 54.7745 43.834C53.7721 42.4235 50.5312 40.3681 49.0707 39.6332C46.9248 38.5532 41.4938 39.1487 39.5676 40.6901C37.0791 42.6822 35.9537 44.1147 34.0024 46.6717Z" fill="#694F33"/>
<path fill-rule="evenodd" clip-rule="evenodd" d="M54.8649 52.8845C54.2524 55.66 53.029 58.0048 50.9364 59.6695C48.6248 61.5076 45.0677 62.1938 42.2999 62.0322C40.6736 61.9371 39.6413 61.5265 38.5044 60.2033C38.644 60.2755 39.6254 60.7908 39.7948 60.8635C41.9434 61.7905 45.3982 60.9913 47.5133 60.264C51.8413 58.776 52.6102 56.9965 54.8649 52.8845Z" fill="#694F33"/>
<path fill-rule="evenodd" clip-rule="evenodd" d="M36.5532 39.2681C34.8448 40.7322 32.7809 46.1143 32.7588 48.5002C32.7214 52.5763 33.0938 57.1909 35.7721 60.1879C37.08 61.6522 39.4839 63.4871 41.3726 63.7985C44.3675 64.2914 39.2847 63.3888 42.8576 64.0329C41.3792 64.2581 40.5135 64.2667 39.1347 63.5689C35.9704 61.9677 33.5257 59.7086 32.4906 55.849C31.985 53.9677 31.7448 49.8451 31.9878 47.9426C32.2252 46.0827 34.8496 39.2143 36.5532 39.2681Z" fill="#694F33"/>
<path fill-rule="evenodd" clip-rule="evenodd" d="M49.0864 40.1189C50.5583 40.9941 51.4651 41.8482 52.4631 43.3272C54.1155 45.7776 54.0875 47.3104 54.2319 50.2832C54.324 52.184 53.0347 56.5087 51.5787 57.5999C50.7186 58.2444 47.6724 59.183 46.6092 59.2675C47.1679 58.9527 47.7413 58.6904 48.3128 58.4092C50.0539 57.5528 51.3293 57.5287 52.1204 55.4489C53.2535 52.4676 53.3159 51.1247 53.2208 48.004C53.1146 44.5202 51.1263 42.3982 49.0864 40.1189Z" fill="#694F33"/>
<path fill-rule="evenodd" clip-rule="evenodd" d="M54.1145 19.4387C58.9982 20.2991 61.4467 23.0471 64.3067 27.3966C66.6823 31.0103 69.3785 36.0904 69.8002 40.6461C69.9492 42.2471 70.0674 43.0074 70.0432 44.6786C70.0189 46.3116 70.3373 51.0229 69.8774 52.2802L69.6494 52.714C70.0264 50.3519 69.465 47.1516 69.4055 44.648C69.3673 43.0522 69.2156 42.2388 69.0219 40.7C68.4194 35.9061 63.829 27.6669 60.9458 24.1166C58.1976 20.7319 57.2165 21.1362 54.1145 19.4387Z" fill="#694F33"/>
<path fill-rule="evenodd" clip-rule="evenodd" d="M50.1859 28.7152C52.0005 28.5315 53.3439 29.0341 54.9284 30.0337C57.9455 31.9387 60.4162 35.3176 62.384 38.4879C63.5675 40.3933 63.6606 42.1763 64.3458 44.2827C64.9444 46.1217 64.6167 47.6989 64.694 49.6361C64.7786 51.7719 64.7451 52.2716 63.8448 54.2458C64.2722 52.0082 64.3764 51.9191 64.1596 49.6878C63.9873 47.9223 64.2192 46.2268 63.6224 44.6193C62.8673 42.5845 62.7706 40.9313 61.5864 39.1582C60.3483 37.3017 59.2386 35.345 57.8197 33.6506C55.4151 30.7774 53.583 29.5127 50.1859 28.7152Z" fill="#694F33"/>
<path fill-rule="evenodd" clip-rule="evenodd" d="M23.6456 49.3099C24.2005 52.2728 24.4434 54.1098 25.406 57.0583C26.3854 60.0527 27.7882 62.8136 29.6707 65.202C31.8221 67.9326 33.4149 68.9302 36.3205 70.3332C37.3035 70.8072 36.9005 70.5888 37.8294 71.1821C36.6974 70.915 35.6549 70.5752 34.5683 70.1243C31.4376 68.8247 28.871 66.1247 26.9756 63.0635C25.0979 60.0328 23.1802 52.9859 23.6456 49.3099Z" fill="#694F33"/>
<path fill-rule="evenodd" clip-rule="evenodd" d="M20.4934 37.7361C18.6455 40.5254 18.3942 46.1439 18.3922 49.6552C18.3904 53.7248 18.9359 55.5365 19.8567 59.3582C20.5558 62.2592 21.2103 64.9376 22.5945 67.5218L22.1793 67.1661C20.5938 65.4258 18.4937 57.5433 17.8299 54.8365C16.9325 51.1823 17.7481 43.0211 19.1585 39.5853C19.5839 38.5459 19.705 38.3143 20.4934 37.7361Z" fill="#694F33"/>
<path fill-rule="evenodd" clip-rule="evenodd" d="M41.9573 44.6289C41.8018 44.3017 43.9329 43.6905 44.1814 43.6519C48.1583 43.0369 49.8284 46.8639 49.3678 50.8006C49.028 53.7049 47.7813 54.4933 45.4383 54.9168C44.8609 55.0208 44.8239 54.9907 44.3099 55.2801C44.12 55.3865 42.1715 55.0837 41.882 55.0118C42.6723 54.7996 43.3314 54.7532 44.1237 54.7631C44.4495 54.5156 44.5314 54.4818 44.9651 54.3472C47.0086 53.711 48.2255 53.5306 48.4211 50.6877C48.5821 48.3641 48.2766 45.342 46.0322 44.4653C44.1478 43.7288 42.3688 44.6954 41.9573 44.6289Z" fill="#694F33"/>
<path fill-rule="evenodd" clip-rule="evenodd" d="M39.3302 43.9485C37.3585 45.3668 36.7702 50.9335 37.5847 53.3474C38.0343 54.6787 39.3245 56.2322 40.4251 56.8793C40.7331 57.0603 41.1828 57.1085 41.4527 57.3566C42.8603 57.7281 47.7321 56.0453 48.7746 54.654C49.2319 54.0459 49.1787 53.886 49.837 53.1401C49.1974 54.7173 49.0818 55.2959 47.7061 56.2475C46.8626 56.8318 42.2468 59.0578 40.9901 58.2217C40.0647 57.8802 39.859 57.887 39.0379 57.1834C36.649 55.1343 36.0738 52.145 36.6427 48.9553C36.825 47.9291 37.9962 43.6951 39.3302 43.9485ZM41.4575 57.3619C41.5039 57.405 41.545 57.4548 41.5794 57.5128C41.5561 57.4706 41.5077 57.3903 41.4575 57.3619ZM41.4405 57.3538C41.4378 57.3528 41.4351 57.3523 41.4313 57.3512C41.4351 57.3523 41.4378 57.3533 41.4405 57.3538Z" fill="#694F33"/>
<path fill-rule="evenodd" clip-rule="evenodd" d="M40.9817 46.4162C39.8432 47.3193 39.6709 49.1452 40.0368 50.5471C40.6848 53.0302 43.2765 53.7914 45.2073 52.6364L45.859 52.2036L45.4251 52.9563C44.8945 53.5945 44.0268 53.9071 43.2775 53.9646C40.951 54.1431 39.2223 52.7483 39.13 50.0289C39.0928 48.9193 39.7473 45.9263 40.9817 46.4162Z" fill="#694F33"/>
<path fill-rule="evenodd" clip-rule="evenodd" d="M42.7832 46.8416C43.566 46.5979 43.986 46.7197 44.6376 47.3716C46.708 49.4419 45.4113 52.7695 42.6156 50.4733C42.3046 50.2183 42.2263 50.0521 42.2571 49.6505C42.7998 50.0511 44.6116 51.0513 44.6619 49.748C44.7194 48.1936 43.8779 47.4509 42.7832 46.8416Z" fill="#694F33"/>
<path fill-rule="evenodd" clip-rule="evenodd" d="M71.9758 40.4589C72.4469 43.2233 72.7793 50.7811 72.553 53.5359C72.1024 59.0114 70.6557 64.1389 68.3107 68.9413C66.9561 71.7152 65.716 72.6522 63.3208 74.041L63.3311 74.0331C63.1999 74.1327 63.2696 74.0895 63.1208 74.1603C63.1578 74.0779 63.1895 73.9829 63.2584 73.9243C66.6442 71.0454 66.741 71.1294 68.5183 66.612C70.3076 62.0603 71.8465 55.1216 71.9069 50.1441C71.9403 47.3859 71.6807 42.9631 71.9758 40.4589Z" fill="#694F33"/>
<path fill-rule="evenodd" clip-rule="evenodd" d="M13.7394 53.9908C14.3138 58.6698 14.338 59.5947 16.0333 63.9726C19.3697 72.5899 20.2271 76.3075 28.2827 80.8866C30.0794 81.9079 32.0847 83.1696 33.8516 84.2878C31.8445 83.7684 29.9173 82.4538 28.0321 81.5069C22.0769 78.5171 19.15 75.434 16.7761 68.4434C15.1368 63.6175 13.2496 59.3212 13.7394 53.9908Z" fill="#694F33"/>
<path fill-rule="evenodd" clip-rule="evenodd" d="M28.7491 55.5227C29.7992 57.4959 34.2966 64.9091 36.0264 65.6333C37.8444 66.395 41.6026 66.9751 43.5753 66.9235C45.4168 66.8752 46.3672 66.6636 48.1389 66.1927C50.822 65.4793 49.376 66.9413 52.5273 64.9381C53.7311 64.1733 53.5533 64.3943 54.6695 64.0064C55.996 63.545 58.3904 60.1711 58.9566 58.596C59.3846 57.4051 59.4685 57.1464 60.0429 55.9482C59.1789 59.2689 59.1809 59.828 57.2081 62.4826C54.8789 65.6163 55.2688 64.0681 52.9398 65.666C49.6266 67.9401 50.8489 66.442 48.3967 67.1787C46.9425 67.6149 45.9045 67.9358 44.3751 68.0324C42.0793 68.1775 37.9254 67.4301 35.8085 66.4742C34.7294 65.987 33.4419 64.0657 32.7475 63.0405C31.3791 61.0188 29.3811 57.935 28.7491 55.5227Z" fill="#694F33"/>
<path fill-rule="evenodd" clip-rule="evenodd" d="M58.017 22.6723C54.0764 20.5494 51.5712 19.6276 47.1485 19.5506C45.5834 19.5232 44.2252 19.2782 42.5634 19.2893C37.6145 19.3221 37.002 19.2417 32.3853 21.114C30.503 21.8773 25.0393 24.6998 23.6382 26.1734L23.3449 26.502L23.5227 26.0621C24.4349 24.4396 30.4509 21.0655 32.12 20.3086C36.5904 18.2826 37.6573 18.0873 42.5727 18.2189C44.254 18.2636 45.5592 18.5539 47.1343 18.6458C50.6188 18.8485 55.3639 19.9432 58.017 22.6723Z" fill="#694F33"/>
<path fill-rule="evenodd" clip-rule="evenodd" d="M32.8052 34.6715C33.3925 32.7745 36.6547 31.9107 38.3006 30.7833C41.3849 28.6698 45.9697 29.3275 49.2625 30.458C51.9689 31.3877 52.9537 31.61 54.8174 34.2011C55.2838 34.8494 55.2114 34.7886 55.5685 35.5488L55.5557 35.5329C55.6077 35.6016 55.5856 35.5625 55.619 35.6506C55.566 35.6459 55.525 35.6522 55.4868 35.6048C53.0923 32.5706 52.4929 32.3042 49.054 31.3343C46.2016 30.5309 41.369 29.868 38.7101 31.4686C36.5289 32.7808 34.5656 32.7813 32.8052 34.6715Z" fill="#694F33"/>
</svg>
