<svg width="90" height="50" viewBox="0 0 90 50" fill="none" xmlns="http://www.w3.org/2000/svg">
<path fill-rule="evenodd" clip-rule="evenodd" d="M46.0099 19.5625C52.2456 19.5625 57.3005 25.2548 57.3005 32.2767C57.3005 39.2985 52.2456 44.9907 46.0099 44.9907C39.7745 44.9907 34.7195 39.2985 34.7195 32.2767C34.7195 25.2548 39.7745 19.5625 46.0099 19.5625ZM46.0099 20.1605C51.9523 20.1605 56.7695 25.585 56.7695 32.2767C56.7695 38.9683 51.9523 44.3928 46.0099 44.3928C40.0677 44.3928 35.2506 38.9683 35.2506 32.2767C35.2506 25.585 40.0677 20.1605 46.0099 20.1605Z" fill="#707F84"/>
<path fill-rule="evenodd" clip-rule="evenodd" d="M37.8942 22.972L37.3299 22.3372L37.3881 22.2729V22.2713C37.6141 21.942 37.3431 21.3527 36.8265 21.6199L36.7862 21.5941L36.9445 21.4603L36.8952 21.3835L37.4526 20.9059C37.4526 20.9059 37.8854 21.589 38.4094 21.2661C38.481 21.2031 38.5529 21.1412 38.6251 21.08C38.8798 20.7845 38.6784 20.1696 38.1386 20.3574L38.1021 20.3259L38.2744 20.2165L38.2346 20.1333L38.8424 19.7415C38.8424 19.7415 39.1882 20.4733 39.7396 20.2431C39.8235 20.1872 39.9079 20.1326 39.9929 20.0792C40.269 19.8186 40.1381 19.1927 39.5864 19.2985L39.5536 19.262L39.7373 19.1787L39.7074 19.0903L40.3555 18.7913C40.3555 18.7913 40.6131 19.5663 41.1853 19.4207C41.2755 19.3774 41.3662 19.3354 41.4572 19.2949C41.761 19.077 41.7034 18.4374 41.1443 18.4614L41.1163 18.4203L41.308 18.3647L41.2886 18.2726L41.9658 18.0714C41.9658 18.0714 42.1324 18.8834 42.7218 18.8167C42.8119 18.7885 42.9023 18.7615 42.9928 18.7358C43.326 18.5698 43.3474 17.9189 42.7863 17.8602L42.7631 17.8153L42.9597 17.7883L42.9511 17.6942L43.646 17.5941C43.646 17.5941 43.7173 18.4292 44.3147 18.4444L44.3107 18.4456C44.3994 18.4318 44.4881 18.4188 44.5772 18.4071C44.9346 18.3006 45.0384 17.6472 44.4839 17.5051L44.4662 17.4573L44.6641 17.4596L44.6664 17.3649L45.3671 17.3678C45.3671 17.3678 45.3408 18.2062 45.9313 18.3089L45.9216 18.3108C46.0129 18.3099 46.1039 18.31 46.1952 18.3111L46.196 18.3103C46.5626 18.2572 46.7415 17.6249 46.2083 17.4028L46.196 17.3526L46.392 17.3838L46.4054 17.2903L47.0998 17.396C47.0998 17.396 46.9766 18.2233 47.5499 18.4119L47.5417 18.4124C47.6318 18.4248 47.7217 18.4382 47.8118 18.4527C48.1818 18.454 48.4325 17.8528 47.9296 17.5543L47.9233 17.5026L48.1142 17.5625L48.1381 17.4718L48.8142 17.6785C48.8142 17.6785 48.5963 18.4806 49.1426 18.7519C49.2304 18.7772 49.3177 18.8039 49.405 18.8313C49.7688 18.8787 50.0796 18.3246 49.6184 17.9571V17.9051L49.8007 17.9924L49.8352 17.906L50.4816 18.2105C50.4816 18.2105 50.1735 18.9698 50.679 19.3203C50.7654 19.3594 50.8516 19.3997 50.9375 19.4413C51.2911 19.5366 51.6595 19.0353 51.2465 18.6049L51.2524 18.5535L51.423 18.6667L51.4669 18.5859L52.0725 18.9826C52.0725 18.9826 51.6811 19.6871 52.1365 20.1089C52.2197 20.1619 52.3025 20.216 52.3849 20.2713C52.7241 20.4138 53.1437 19.9719 52.7854 19.4861L52.7971 19.4358L52.9531 19.5732L53.0062 19.4997L53.5605 19.9818C53.5605 19.9818 53.0861 20.6287 53.4986 21.1147C53.5699 21.1755 53.6409 21.237 53.7117 21.2998C54.0315 21.5035 54.5107 21.1253 54.2089 20.5859L54.2263 20.5378L54.3653 20.6966L54.426 20.6316L54.9198 21.1913C54.9198 21.1913 54.3744 21.7631 54.7273 22.3057L54.7236 22.3028L54.7538 22.3365L54.1889 22.9719C52.0948 20.6447 49.2175 19.2073 46.0414 19.2073C42.8656 19.2073 39.9883 20.6447 37.8942 22.972ZM38.0083 20.256L38.2123 20.1247L38.2525 20.2075L38.0799 20.3173L38.0083 20.256ZM41.0418 18.3253L41.2692 18.2578L41.2889 18.3495L41.0969 18.4053L41.0418 18.3253ZM44.416 17.3439L44.6511 17.345L44.649 17.4394L44.4511 17.4371L44.416 17.3439ZM47.9011 17.3785L48.1279 17.448L48.1042 17.5385L47.9134 17.4789L47.9011 17.3785ZM51.2596 18.4271L51.4624 18.5602L51.419 18.6406L51.2481 18.5273L51.2596 18.4271ZM54.2623 20.4177L54.4277 20.6055L54.3672 20.6706L54.2283 20.5115L54.2623 20.4177ZM36.6849 21.5383L36.8721 21.3784L36.9217 21.4545L36.7631 21.5886L36.6849 21.5383ZM39.4689 19.1787L39.6863 19.0785L39.7165 19.1665L39.5328 19.25L39.4689 19.1787ZM42.7004 17.7101L42.9334 17.6769L42.9426 17.7705L42.7458 17.7975L42.7004 17.7101ZM46.1598 17.2327L46.3926 17.2683L46.3795 17.3614L46.1832 17.3302L46.1598 17.2327ZM49.6109 17.779L49.8275 17.8812L49.7935 17.9674L49.6113 17.8801L49.6109 17.779ZM52.8191 19.3115L53.0045 19.4735L52.952 19.5469L52.796 19.4095L52.8191 19.3115Z" fill="#8F989B"/>
<path fill-rule="evenodd" clip-rule="evenodd" d="M37.7514 41.4388L37.1871 42.0734L37.1301 42.008L37.1289 42.0081C36.8359 41.7539 36.3119 42.0589 36.5495 42.6405L36.5267 42.6854L36.4078 42.5073L36.3396 42.5628L35.9151 41.9356C35.9151 41.9356 36.5221 41.4487 36.2352 40.859C36.1793 40.7785 36.1242 40.6976 36.0701 40.6161C35.807 40.3299 35.2607 40.5564 35.4276 41.1637L35.3997 41.2049L35.3024 41.011L35.2285 41.056L34.8802 40.3718C34.8802 40.3718 35.5314 39.9825 35.326 39.3617C35.2764 39.2676 35.2279 39.1726 35.1806 39.0776C34.9492 38.7664 34.3923 38.914 34.4865 39.5347L34.454 39.5716L34.3801 39.3651L34.3016 39.3986L34.0358 38.6693C34.0358 38.6693 34.7253 38.3792 34.5949 37.7346C34.5567 37.6336 34.5196 37.5321 34.4837 37.43C34.29 37.0879 33.7211 37.1523 33.7425 37.7816L33.706 37.8133L33.6567 37.5978L33.5748 37.6194L33.3959 36.8574C33.3959 36.8574 34.1188 36.6696 34.0583 36.0056C34.0335 35.9051 34.0095 35.8043 33.987 35.7032C33.8404 35.3273 33.2604 35.3021 33.2083 35.9343L33.1683 35.9603L33.1443 35.7393L33.0607 35.7489L32.9718 34.9668C32.9718 34.9668 33.714 34.8866 33.7274 34.2145L33.7291 34.2212C33.7168 34.1208 33.7052 34.0203 33.6946 33.9196C33.5999 33.5173 33.0191 33.4 32.8927 34.0242L32.8502 34.0442L32.8522 33.8215L32.768 33.8188L32.7706 33.0304C32.7706 33.0304 33.5157 33.0598 33.607 32.3955L33.6093 32.41C33.6084 32.3063 33.6084 32.2026 33.6099 32.0991L33.6082 32.0977C33.5611 31.6849 32.9988 31.484 32.8014 32.0838L32.7569 32.0977L32.7849 31.8772L32.7016 31.862L32.7957 31.0808C32.7957 31.0808 33.5311 31.2195 33.6986 30.5743L33.6994 30.5884C33.7103 30.4857 33.7225 30.3831 33.7357 30.2806L33.7345 30.2793C33.7357 29.8631 33.2016 29.5812 32.9364 30.1471L32.8904 30.1542L32.9435 29.9394L32.863 29.9124L33.0467 29.1517C33.0467 29.1517 33.7596 29.3971 34.0007 28.782L34.0004 28.7876C34.0229 28.6892 34.0463 28.591 34.0708 28.4931C34.1185 28.0816 33.6227 27.7252 33.2943 28.2466L33.2485 28.2467L33.3257 28.0418L33.249 28.0031L33.5194 27.2758C33.5194 27.2758 34.1981 27.624 34.5082 27.0493L34.5079 27.0506C34.5416 26.9566 34.5764 26.8628 34.6117 26.7696C34.7033 26.3695 34.2548 25.9478 33.87 26.4149L33.8244 26.4083L33.9248 26.2166L33.8535 26.167L34.2058 25.4855C34.2058 25.4855 34.8359 25.9288 35.2105 25.4088C35.2556 25.3189 35.3015 25.2298 35.3486 25.1411C35.4827 24.7585 35.0878 24.2777 34.6531 24.6834L34.6086 24.6703L34.7307 24.4947L34.6653 24.4352L35.0938 23.8113C35.0938 23.8113 35.6689 24.3451 36.1011 23.8807C36.1547 23.8008 36.2092 23.7214 36.2645 23.6423C36.4471 23.2827 36.1105 22.742 35.6304 23.0821L35.5879 23.0621L35.7291 22.9061L35.6715 22.8375L36.1687 22.2819C36.1687 22.2819 36.6771 22.8956 37.1592 22.4985L37.1535 22.5077L37.1871 22.4695L37.7514 23.1042C35.6829 25.4605 34.4055 28.6979 34.4055 32.2715C34.4055 35.8451 35.6829 39.0825 37.7514 41.4388ZM35.3374 41.3105L35.2208 41.0808L35.2944 41.0356L35.3919 41.2298L35.3374 41.3105ZM33.6215 37.8971L33.5616 37.6414L33.6432 37.6191L33.6926 37.8351L33.6215 37.8971ZM32.7495 34.1004L32.7504 33.8361L32.8342 33.8383L32.8322 34.0614L32.7495 34.1004ZM32.7803 30.1792L32.8419 29.924L32.9224 29.9506L32.8693 30.1654L32.7803 30.1792ZM33.712 26.4003L33.8304 26.1721L33.902 26.2209L33.8013 26.413L33.712 26.4003ZM35.4812 23.0218L35.6481 22.8355L35.706 22.9039L35.5645 23.0601L35.4812 23.0218ZM36.4774 42.7994L36.335 42.5888L36.4026 42.533L36.5219 42.7111L36.4774 42.7994ZM34.3801 39.6669L34.2911 39.4222L34.3693 39.3883L34.4434 39.5951L34.3801 39.6669ZM33.0747 36.0309L33.045 35.7687L33.1286 35.7586L33.1526 35.9799L33.0747 36.0309ZM32.6506 32.1387L32.6822 31.8767L32.7652 31.8911L32.7375 32.112L32.6506 32.1387ZM33.136 28.2553L33.2267 28.0116L33.3035 28.0497L33.2259 28.2549L33.136 28.2553ZM34.4982 24.6459L34.6419 24.4366L34.7073 24.496L34.5852 24.6715L34.4982 24.6459Z" fill="#8F989B"/>
<path fill-rule="evenodd" clip-rule="evenodd" d="M54.1417 41.5564L54.706 42.1912L54.6478 42.2553V42.2568C54.4219 42.5862 54.6929 43.1756 55.2098 42.9085L55.2497 42.9342L55.0914 43.068L55.1407 43.1448L54.5833 43.6224C54.5833 43.6224 54.1506 42.939 53.6266 43.2622C53.5549 43.3255 53.4828 43.3874 53.4103 43.4484C53.1564 43.7446 53.3578 44.3587 53.8973 44.1709L53.934 44.2023L53.7615 44.3121L53.8014 44.3949L53.1935 44.7865C53.1935 44.7865 52.8475 44.0541 52.2957 44.2852C52.2122 44.341 52.1278 44.3956 52.043 44.4489C51.7669 44.7095 51.8978 45.3354 52.4496 45.2298L52.4823 45.2664L52.2986 45.3495L52.3286 45.4378L51.6805 45.7369C51.6805 45.7369 51.4225 44.9611 50.85 45.1078C50.7599 45.1508 50.6695 45.1926 50.5787 45.2333C50.2749 45.451 50.3323 46.091 50.8914 46.0669L50.9197 46.108L50.728 46.1635L50.7474 46.2553L50.0698 46.4569C50.0698 46.4569 49.9032 45.6432 49.3127 45.7119C49.2234 45.7395 49.1339 45.7662 49.044 45.7918C48.7102 45.9572 48.688 46.6093 49.2497 46.6681L49.2728 46.713L49.0762 46.7399L49.0848 46.834L48.3899 46.9338C48.3899 46.9338 48.3186 46.099 47.7215 46.084L47.7272 46.0817C47.6379 46.0958 47.5486 46.109 47.459 46.1206C47.1017 46.2271 46.9975 46.8813 47.5521 47.0231L47.5697 47.0709L47.3718 47.069L47.3695 47.1634L46.6689 47.1605C46.6689 47.1605 46.6951 46.3221 46.1046 46.2194L46.1172 46.2168C46.0253 46.2178 45.9332 46.2174 45.841 46.2162L45.8399 46.2178C45.473 46.271 45.2945 46.9033 45.8276 47.1258L45.8399 47.1759L45.6436 47.1447L45.6305 47.2378L44.9362 47.1322C44.9362 47.1322 45.0594 46.3047 44.486 46.1163L44.4986 46.1153C44.4073 46.1032 44.316 46.0894 44.225 46.0749L44.2239 46.0759C43.8538 46.0746 43.6034 46.6755 44.1063 46.9743L44.1126 47.0256L43.9218 46.966L43.8978 47.0565L43.2217 46.8498C43.2217 46.8498 43.4396 46.0474 42.8931 45.7765L42.8979 45.7771C42.8104 45.7514 42.7231 45.7251 42.6358 45.6974C42.2701 45.6445 41.954 46.2017 42.4173 46.5712L42.4175 46.6232L42.2353 46.5358L42.201 46.6219L41.5546 46.3176C41.5546 46.3176 41.8638 45.5543 41.3532 45.2053L41.3544 45.2057C41.2705 45.1676 41.1872 45.1283 41.1039 45.0882C40.7487 44.9862 40.3742 45.4907 40.7895 45.9235L40.7836 45.9748L40.6129 45.8618L40.569 45.9421L39.9634 45.5453C39.9634 45.5453 40.3576 44.8366 39.8949 44.4151C39.8154 44.3644 39.7358 44.3124 39.6571 44.2595C39.3167 44.1092 38.8902 44.5535 39.2505 45.0421L39.2388 45.0924L39.0828 44.9554L39.03 45.0286L38.4755 44.5464C38.4755 44.5464 38.9499 43.899 38.537 43.4131C38.466 43.3527 38.3956 43.2914 38.3251 43.2291C38.0053 43.0241 37.5249 43.4025 37.827 43.9423L37.8097 43.9905L37.671 43.8316L37.61 43.8964L37.1164 43.337C37.1164 43.337 37.6618 42.765 37.3087 42.2227L37.3173 42.2293L37.2827 42.1912L37.847 41.5562C39.9411 43.8836 42.8184 45.321 45.9942 45.321C49.1703 45.321 52.0476 43.8836 54.1417 41.5564ZM54.0276 44.2723L53.8237 44.4039L53.7834 44.3208L53.9561 44.211L54.0276 44.2723ZM50.9941 46.203L50.7668 46.2704L50.7471 46.1786L50.939 46.1231L50.9941 46.203ZM47.62 47.1842L47.3849 47.1833L47.3869 47.0889L47.5851 47.0912L47.62 47.1842ZM44.1349 47.1496L43.9081 47.0802L43.9317 46.9897L44.1226 47.0494L44.1349 47.1496ZM40.7764 46.1012L40.5733 45.968L40.6172 45.8874L40.7878 46.0011L40.7764 46.1012ZM37.7737 44.1105L37.6083 43.9228L37.669 43.8576L37.8079 44.0168L37.7737 44.1105ZM55.3506 42.9896L55.1635 43.1502L55.1144 43.0738L55.2725 42.9396L55.3506 42.9896ZM52.567 45.3495L52.3497 45.4496L52.3195 45.3617L52.5032 45.2783L52.567 45.3495ZM49.3356 46.8179L49.1022 46.8514L49.0937 46.7576L49.2902 46.7307L49.3356 46.8179ZM45.8764 47.2955L45.6433 47.2599L45.6562 47.1666L45.8525 47.198L45.8764 47.2955ZM42.4252 46.7492L42.2084 46.6472L42.2424 46.5609L42.4247 46.6482L42.4252 46.7492ZM39.2171 45.2166L39.0311 45.0549L39.0839 44.9813L39.24 45.1187L39.2171 45.2166Z" fill="#8F989B"/>
<path fill-rule="evenodd" clip-rule="evenodd" d="M55.7623 23.6875C55.8185 23.7681 55.8736 23.849 55.9278 23.9305C56.1908 24.2171 56.7371 23.9908 56.5702 23.3832L56.5982 23.3418L56.6954 23.536L56.7694 23.491L57.1173 24.175C57.1173 24.175 56.4664 24.5644 56.6721 25.1853C56.7214 25.2796 56.7697 25.3742 56.817 25.4692C57.0486 25.7806 57.6055 25.6333 57.5113 25.0121L57.5439 24.9753L57.6178 25.182L57.6962 25.1482L57.962 25.8776C57.962 25.8776 57.2723 26.1677 57.4029 26.8125C57.4411 26.9133 57.4782 27.0149 57.5142 27.1165C57.7076 27.4591 58.2764 27.3948 58.2553 26.7654L58.2918 26.7335L58.3415 26.9494L58.4227 26.9274L58.6016 27.6894C58.6016 27.6894 57.8787 27.8772 57.9398 28.5416C57.9644 28.6421 57.9883 28.7429 58.0108 28.8438C58.1577 29.2198 58.7374 29.2445 58.7896 28.6126L58.8295 28.5866L58.8536 28.8077L58.937 28.7981L59.0258 29.58C59.0258 29.58 58.2838 29.6602 58.2704 30.3324L58.2684 30.3256C58.281 30.4261 58.2927 30.5265 58.3032 30.6273C58.3979 31.0299 58.9787 31.1468 59.1051 30.5229L59.1476 30.5028L59.1459 30.7256L59.2298 30.7281L59.2269 31.5164C59.2269 31.5164 58.4821 31.4869 58.3908 32.1514L58.3885 32.1369C58.3894 32.2406 58.3894 32.3442 58.3882 32.4476L58.3894 32.4492C58.4367 32.862 58.9987 33.0631 59.1964 32.463L59.2406 32.4492L59.2133 32.6699L59.296 32.6848L59.2018 33.4659C59.2018 33.4659 58.4667 33.3272 58.2992 33.9727L58.2987 33.9584C58.2875 34.0611 58.2753 34.1639 58.2622 34.2662L58.2633 34.2675C58.2622 34.6839 58.7962 34.9658 59.0615 34.3998L59.1071 34.3927L59.0544 34.6074L59.1345 34.6344L58.9508 35.3951C58.9508 35.3951 58.2379 35.1496 57.9971 35.7649L57.9974 35.7593C57.9751 35.858 57.9515 35.9565 57.927 36.0548C57.8802 36.466 58.3754 36.8212 58.7035 36.3003L58.7494 36.3L58.6718 36.5052L58.7488 36.5436L58.4781 37.2709C58.4781 37.2709 57.8 36.9228 57.4897 37.4974C57.456 37.5918 57.4212 37.6847 57.3858 37.778C57.2951 38.178 57.7432 38.5988 58.1278 38.1321L58.1735 38.1385L58.0727 38.3306L58.1443 38.3799L57.7917 39.061C57.7917 39.061 57.1619 38.6178 56.7873 39.1381C56.7422 39.2279 56.696 39.3175 56.649 39.4064C56.5157 39.789 56.9102 40.2688 57.3447 39.8635L57.3892 39.8766L57.2672 40.0522L57.3325 40.1116L56.9037 40.7354C56.9037 40.7354 56.3286 40.2016 55.8967 40.6662C55.8428 40.7463 55.7886 40.8256 55.733 40.9047C55.551 41.2647 55.8876 41.8049 56.3674 41.4651L56.4099 41.4847L56.2687 41.6409L56.3263 41.7094L55.8291 42.2647C55.8291 42.2647 55.3208 41.6511 54.839 42.0483L54.8447 42.0389L54.8107 42.0776L54.2464 41.4427C56.3149 39.0864 57.5924 35.849 57.5924 32.2754C57.5924 28.7018 56.3149 25.4644 54.2464 23.1081L54.8115 22.4726L54.8692 22.5385C55.1618 22.793 55.6856 22.488 55.4483 21.9066L55.4711 21.8615L55.5903 22.0396L55.6582 21.9841L56.0827 22.6112C56.0827 22.6112 55.4754 23.0979 55.7623 23.6875ZM56.6604 23.2365L56.777 23.4662L56.7035 23.5113L56.6059 23.3171L56.6604 23.2365ZM58.3763 26.6498L58.4361 26.9056L58.3546 26.9276L58.3052 26.7118L58.3763 26.6498ZM59.2486 30.4465L59.2475 30.7111L59.1636 30.7086L59.1656 30.4855L59.2486 30.4465ZM59.2175 34.3678L59.1559 34.623L59.0754 34.5962L59.1285 34.3815L59.2175 34.3678ZM58.2858 38.1464L58.1674 38.3751L58.0961 38.3256L58.1965 38.1337L58.2858 38.1464ZM56.5166 41.525L56.3497 41.7113L56.2921 41.643L56.4333 41.487L56.5166 41.525ZM55.5204 21.7478L55.6628 21.9584L55.5952 22.0138L55.4763 21.8356L55.5204 21.7478ZM57.6178 24.8799L57.707 25.1247L57.6285 25.1585L57.5544 24.9517L57.6178 24.8799ZM58.9228 28.516L58.9528 28.7785L58.8692 28.7883L58.8453 28.567L58.9228 28.516ZM59.3473 32.4081L59.3156 32.6704L59.2327 32.6556L59.2606 32.4349L59.3473 32.4081ZM58.8618 36.2913L58.7711 36.5355L58.6943 36.497L58.7719 36.2919L58.8618 36.2913ZM57.4996 39.901L57.3558 40.1103L57.2905 40.0509L57.4126 39.8753L57.4996 39.901Z" fill="#8F989B"/>
<path fill-rule="evenodd" clip-rule="evenodd" d="M46.0833 43.8259C40.4474 43.751 35.8988 38.6003 35.8988 32.2561C35.8988 25.9119 40.4474 20.7611 46.0833 20.6863C51.7196 20.7611 56.2681 25.9119 56.2681 32.256C56.2681 38.6003 51.7196 43.751 46.0833 43.8259Z" fill="#FAD0A0"/>
<path fill-rule="evenodd" clip-rule="evenodd" d="M46.0833 40.1523C45.7216 40.1477 45.3567 40.0744 44.9108 39.8897C44.4264 39.6889 43.9978 39.427 43.4906 39.2312C42.3517 38.7914 41.9638 38.4813 41.0986 37.5629C40.4223 36.8451 40.1573 36.3706 39.8056 35.4045C39.7321 35.2026 39.6643 34.9995 39.5973 34.7949C39.2158 33.6245 39.2639 32.971 39.2888 31.7652C39.3103 30.7287 39.4649 29.7864 39.7757 28.8101C40.1902 27.5078 41.0723 26.6698 42.0354 25.8707C42.6076 25.3959 42.9412 25.2489 43.6181 25.046C44.4066 24.8094 44.6933 24.4272 45.6119 24.3187C45.772 24.2997 45.9289 24.2857 46.0833 24.2771C46.2379 24.2858 46.3949 24.2997 46.5549 24.3187C47.4735 24.4272 47.7602 24.8097 48.5488 25.046C49.2256 25.2489 49.5592 25.3959 50.1315 25.8707C51.0942 26.6698 51.9767 27.5077 52.3912 28.8102C52.7019 29.7864 52.8565 30.7287 52.8781 31.7653C52.9029 32.971 52.9513 33.6245 52.5695 34.7949C52.5028 34.9995 52.4347 35.2026 52.3611 35.4044C52.0092 36.3706 51.7445 36.8451 51.0682 37.5629C50.203 38.4815 49.8151 38.7915 48.6762 39.2312C48.1687 39.427 47.7404 39.6889 47.2561 39.8897C46.8102 40.0744 46.4452 40.1477 46.0833 40.1523Z" fill="#E0B17A"/>
<path fill-rule="evenodd" clip-rule="evenodd" d="M46.0833 35.7553C45.7301 35.6722 45.5469 35.4641 45.0883 35.3618C44.4954 35.2298 44.1991 34.9924 43.7516 34.5501C43.4106 34.2131 43.1923 33.6877 43.0718 33.1978C42.9613 32.7482 43.0356 32.2249 43.1024 31.7681C43.1951 31.1341 43.3995 30.4696 43.7591 29.9644C44.084 29.5078 44.4572 29.0949 44.9506 28.8861C45.4457 28.6766 45.6773 28.5104 46.0833 28.4535C46.4892 28.5104 46.7208 28.6766 47.2162 28.8861C47.7099 29.0949 48.0828 29.5078 48.4077 29.9644C48.7673 30.4696 48.9718 31.1341 49.0644 31.7681C49.1312 32.2249 49.2056 32.7482 49.095 33.1978C48.9743 33.6877 48.7563 34.2131 48.415 34.5503C47.9675 34.9924 47.6714 35.2296 47.0785 35.362C46.6199 35.4641 46.4367 35.6722 46.0833 35.7553Z" fill="#F8C385"/>
<path fill-rule="evenodd" clip-rule="evenodd" d="M52.7169 22.8186C53.6358 23.6572 54.542 24.5989 55.0984 25.7894C55.4043 26.4435 55.7362 27.1719 55.9966 27.8468C56.1821 28.3281 56.2842 28.8877 56.434 29.3986C56.7852 30.6201 56.6452 31.3924 56.671 32.6288C56.6786 32.991 56.6834 33.329 56.6579 33.6915C56.6099 34.3332 56.4796 34.9649 56.3371 35.588C56.2208 36.0965 56.0181 36.5837 55.8728 37.0953C55.6345 37.9341 55.2754 38.5656 54.8807 39.312C54.493 40.0412 54.0704 40.7572 53.4432 41.2527C53.1811 41.4597 52.9948 41.6487 52.7115 41.8435C52.6598 41.8792 52.608 41.9139 52.556 41.9486C52.3632 42.0772 52.1675 42.2009 51.9719 42.3244C51.1723 42.8293 51.0134 43.1369 50.0351 43.3999C49.4996 43.5441 49.0512 43.7281 48.5312 43.9043C47.7608 44.1652 46.9527 44.2998 46.1483 44.2886C45.3357 44.2772 44.7434 44.2667 43.9339 44.0963C42.1699 43.7247 40.141 42.8658 38.8344 41.4453C38.0094 40.5484 37.4366 39.6932 36.8816 38.5638C36.5304 37.85 36.1889 37.0474 35.9901 36.2641C35.8278 35.6239 35.6296 35.0984 35.5216 34.4297C35.4119 33.7429 35.2052 32.0992 35.4017 31.4695C35.5589 30.9647 35.5847 31.1461 35.5352 30.5837C35.4987 30.1675 35.6124 29.8563 35.6876 29.4559C35.8185 28.7578 35.9414 27.8577 36.2598 27.2417C36.4278 26.9282 36.6268 26.6555 36.7967 26.3305C37.0705 25.8085 37.3657 25.3022 37.656 24.7919C38.1169 23.9817 38.6523 23.4897 39.295 22.8769C40.3437 21.8768 41.1687 21.4358 42.4568 20.9288C43.0484 20.6958 43.7012 20.4716 44.3227 20.3886C44.9147 20.3097 45.3255 20.2214 45.9374 20.242C47.15 20.2798 47.6839 20.1779 48.903 20.5956C49.2584 20.7173 49.5723 20.7914 49.9302 20.9377C50.3128 21.0943 50.6486 21.2712 50.9947 21.5134C51.3459 21.7628 51.7084 22.0299 52.0578 22.2852C52.2899 22.4551 52.5009 22.6236 52.7169 22.8186ZM50.4473 42.8404C49.6082 43.3464 48.9024 43.4771 47.9671 43.6517C46.6974 43.8884 46.0788 43.9449 44.7926 43.8145C43.5796 43.6914 42.89 43.434 41.7769 42.9122C41.2844 42.6811 40.858 42.3168 40.4101 41.9975C39.9592 41.676 39.6382 41.4286 39.2419 41.0216C38.6854 40.4506 38.259 40.0284 37.8022 39.3353C36.9132 37.9862 36.5205 37.0696 36.1733 35.43C35.9624 34.4211 35.836 33.2299 35.8504 32.1937C35.857 31.7056 36.1046 31.5666 36.4869 31.4421C37.1208 31.2356 37.6195 31.3876 38.2495 31.4038C38.2506 31.4038 38.0928 31.3724 38.0196 31.3578C37.4298 31.2403 36.6746 31.0725 36.2033 30.6351C35.8798 30.3349 35.9912 29.9287 36.0523 29.5271C36.0667 29.4329 36.082 29.339 36.0976 29.245C36.2327 28.4849 36.5525 27.7987 36.8069 27.077C36.9873 26.566 37.4784 25.572 37.7844 25.1737C38.0484 24.8297 38.321 24.5275 38.5876 24.1702C39.0151 23.5967 39.1147 23.488 39.6453 23.0371C40.1548 22.6042 40.3692 22.3498 40.9632 22.0266C41.6174 21.6702 41.9977 21.4534 42.7102 21.2449C43.8525 20.9104 44.9849 20.7027 46.1667 20.6542C46.7511 20.6327 47.5464 20.6886 48.1063 20.8731C48.4079 20.9724 48.5044 21.3804 48.5439 21.6919C48.6293 22.3627 48.3426 23.033 48.2128 23.6747C48.2126 23.6763 48.2999 23.425 48.3409 23.3073C48.5796 22.6233 48.7735 21.8952 49.3848 21.5247C49.663 21.3563 49.8547 21.4756 50.1258 21.5978C50.2296 21.6445 50.3277 21.694 50.4287 21.7479C51.2682 22.2045 51.9289 22.6537 52.6911 23.2536C53.5258 23.9118 53.7369 24.074 54.3084 25.0026C54.5289 25.3609 54.7789 25.778 54.9867 26.1471C55.3963 26.8751 55.7979 28.1313 56.0215 28.9621C56.1852 29.6008 56.3108 30.5037 56.3589 31.1664C56.3798 31.4536 56.2819 31.5914 56.0452 31.7072C55.572 31.9392 54.7353 31.9511 54.2055 32.0059C54.2038 32.006 54.4546 32.0122 54.5747 32.0157C54.9743 32.0278 56.3158 32.0202 56.4122 32.5817C56.4739 32.9409 56.3317 34.0869 56.2604 34.4855C56.1807 34.9298 56.0755 35.3644 55.963 35.7992C55.7314 36.6843 55.2929 37.9874 54.8408 38.7571C54.5917 39.1809 54.1659 39.5555 53.8541 39.9508C53.6196 40.2481 53.4885 40.4108 53.1155 40.2542C52.5234 40.0054 52.2732 39.5252 51.8622 39.0525C51.861 39.051 52.0145 39.376 52.0762 39.507C52.3061 39.9967 52.8642 41.0671 52.3849 41.5457C52.0798 41.8502 51.2475 42.3587 50.8624 42.591C50.7241 42.6745 50.5856 42.7573 50.4473 42.8404Z" fill="#CB9F70"/>
<path fill-rule="evenodd" clip-rule="evenodd" d="M50.3266 26.1807C50.5132 26.3519 51.0858 26.8697 51.1697 27.0872C51.278 27.3677 51.1553 27.7921 51.0086 28.0282C50.6944 28.5341 50.2746 28.8257 49.8372 29.1685C49.8361 29.1692 50.0066 29.0632 50.0897 29.0136C50.5217 28.7572 51.1587 28.3724 51.658 28.4762C52.1471 28.5779 52.1658 28.7442 52.355 29.2082C52.3835 29.2783 52.4112 29.3484 52.4386 29.4192C52.5582 29.7292 52.6238 30.0896 52.7205 30.4187C52.9134 31.0769 52.8752 31.454 52.869 32.1204C52.8659 32.4791 52.8924 32.8171 52.8647 33.1835C52.8336 33.5966 52.7497 34.0036 52.658 34.4049C52.5831 34.7323 52.4528 35.046 52.3592 35.3754C52.1729 36.0102 51.7406 36.8408 51.3657 37.3572C50.9291 37.9583 50.8336 38.0909 50.2228 38.5013C50.0984 38.5841 49.9726 38.6638 49.8468 38.7434C49.3317 39.0685 49.2295 39.2665 48.5993 39.436C48.2544 39.5286 47.9657 39.6473 47.6307 39.7607C46.9368 39.9899 46.3363 40.1561 46.1314 39.169C46.0236 38.6501 46.0867 38.6869 45.9851 39.1835C45.863 39.7805 45.5967 40.0046 45.045 39.9493C44.9209 39.9349 44.7926 39.9095 44.6699 39.8844C43.5338 39.6451 42.227 39.0921 41.3859 38.1773C41.1535 37.9227 40.4381 37.0639 40.3839 36.737C40.2937 36.1929 40.815 35.6859 41.1769 35.4262C41.3771 35.2825 41.3909 35.2988 41.1622 35.3688C40.6969 35.5107 40.0802 35.5679 39.707 35.1501C39.5628 34.9886 39.4944 34.618 39.4288 34.3919C39.3559 34.1405 39.2967 33.9201 39.252 33.6589C39.0937 32.6794 39.0604 31.7424 39.2933 30.7735C39.4174 30.2482 39.489 29.4751 39.7276 29.0295C39.8356 28.8277 39.964 28.652 40.0734 28.4427C40.2496 28.1064 40.4395 27.7805 40.6267 27.4517C40.9236 26.9297 41.2686 26.6132 41.6825 26.2185C42.3576 25.5742 42.8892 25.2902 43.7187 24.9638C44.0998 24.8138 44.52 24.6694 44.9204 24.6159C45.2557 24.5729 45.511 24.5721 45.7449 24.896C46.1147 25.4087 46.0711 26.462 46.0754 27.1032C46.0754 27.1299 46.0759 27.8816 46.0788 27.7263C46.0909 27.0472 46.0808 25.3845 46.4257 24.8586C46.7308 24.3939 47.2575 24.5644 47.6748 24.6837C48.2224 24.8478 48.7345 24.9974 49.2174 25.3404C49.4436 25.5009 49.6772 25.6729 49.9022 25.8373C50.0515 25.9467 50.1872 26.0553 50.3266 26.1807ZM48.8648 39.0757C48.3243 39.4014 47.8699 39.4855 47.2674 39.5981C46.7983 39.685 46.5707 39.6864 46.3295 39.1651C46.1325 38.739 46.1135 38.3939 46.0284 37.9471C46.0281 37.9449 46.0086 38.3804 45.9817 38.5416C45.9088 38.9783 45.7199 39.6527 45.2466 39.6888C44.6947 39.7308 43.7973 39.3618 43.2808 39.1217C42.9635 38.9732 42.689 38.7383 42.4003 38.5327C42.1102 38.3258 41.9036 38.1665 41.648 37.9043C41.4124 37.6628 40.739 36.9855 40.6606 36.6698C40.5509 36.2257 40.864 35.7547 41.1526 35.4864C41.1718 35.4688 41.3944 35.2993 41.3373 35.3091C41.0225 35.3628 40.852 35.4522 40.5097 35.3792C40.1399 35.2999 39.8627 35.0997 39.7581 34.6807C39.7268 34.5557 39.6991 34.4293 39.6719 34.303C39.4011 33.024 39.405 31.6096 39.623 30.3198C39.7101 29.8303 39.9162 29.3882 40.0799 28.9235C40.1961 28.5944 40.5125 27.9542 40.7093 27.6975C40.8795 27.4761 41.0551 27.2816 41.2267 27.0513C41.5021 26.6818 41.5663 26.6119 41.9081 26.3215C42.236 26.0429 42.3741 25.8791 42.7566 25.6707C43.1781 25.4413 43.423 25.3016 43.8819 25.1674C44.2537 25.0595 45.0221 24.8062 45.3753 24.9579C46.0632 25.253 46.0507 26.507 46.0672 27.1875C46.0717 27.3728 46.0804 27.5788 46.0782 27.7616C46.0808 27.7586 46.1147 26.8212 46.12 26.7482C46.167 26.093 46.29 24.7113 47.1359 24.8728C47.3326 24.9103 47.5487 24.9842 47.7376 25.0569C48.1295 25.2143 48.4665 25.281 48.8527 25.4914C49.3933 25.7853 49.8191 26.0747 50.3099 26.461C50.4779 26.5935 50.9359 26.9358 51.0207 27.1287C51.144 27.409 51.0716 27.7775 50.9336 28.0317C50.6551 28.5455 50.2568 28.8295 49.8372 29.1685C49.8364 29.1691 49.9743 29.0851 50.0385 29.0479C50.4767 28.7942 51.1751 28.397 51.6707 28.6044C52.0686 28.7708 52.0861 28.9614 52.2263 29.3801C52.31 29.6303 52.3852 29.882 52.4548 30.1375C52.5922 30.6469 52.701 31.6996 52.7123 32.2223C52.7315 33.1236 52.6431 33.6759 52.4169 34.5409C52.2682 35.1109 51.9854 35.9502 51.6942 36.4457C51.5333 36.7062 51.3953 36.7779 51.1121 36.6783C50.4075 36.4307 49.883 35.5922 49.2966 35.0974C49.136 34.9616 48.9559 34.8116 48.7901 34.6855C48.8157 34.7203 49.3096 35.1384 49.4074 35.2342C49.7982 35.6157 50.8822 37.1374 50.5774 37.7332C50.3247 38.2272 49.3255 38.7987 48.8648 39.0757Z" fill="#9F7950"/>
<path d="M49.531 34.9781C49.1108 35.5805 48.9477 35.6322 48.4303 36.0489C47.9801 36.411 47.9666 36.6069 47.3208 36.7018C46.9128 36.7617 46.6864 36.7938 46.2798 36.917C45.4983 37.154 45.1123 37.1009 44.3637 36.7267C43.5677 36.3287 43.0142 35.7658 42.5078 34.9778L42.4767 34.9288C41.8153 33.879 41.713 32.8767 41.8199 31.6231C41.8787 30.9347 42.0661 30.4597 42.3667 29.8658C42.7917 29.0249 43.2047 28.6086 43.8872 28.038C44.4321 27.5821 44.9775 27.4168 45.6453 27.3601C46.1791 27.3151 46.6994 27.4407 47.2213 27.5483C47.9773 27.7135 48.4891 28.1491 49.0413 28.7305C49.4654 29.1774 49.7625 29.5688 49.9774 30.1819C50.1437 30.6576 50.4536 31.9059 50.4564 32.3908C50.462 33.3731 50.0532 34.2232 49.531 34.9781ZM47.3864 27.9898C46.7986 27.6965 46.308 27.5836 45.6595 27.5867C45.023 27.5902 44.3623 28.0234 43.8403 28.4059C42.9576 29.053 42.6686 29.815 42.3373 30.8922C42.0879 31.7034 41.9923 32.5855 42.1281 33.4353C42.2629 34.2805 42.7475 35.1914 43.3475 35.7258C43.7945 36.1048 44.6286 36.5802 45.1845 36.6662C45.9043 36.7773 46.5079 36.7473 47.1874 36.4385C48.0367 36.0523 48.6279 35.6005 49.2717 34.8488C49.6446 34.4132 50.0105 33.8758 50.0993 33.2662C50.2325 32.2864 50.0269 31.1696 49.6653 30.2745C49.2909 29.3488 49.0825 29.0805 48.292 28.5195C47.996 28.3097 47.7054 28.1499 47.3864 27.9898Z" fill="#694F33"/>
<path fill-rule="evenodd" clip-rule="evenodd" d="M37.9402 35.7538C38.248 36.509 39.4715 38.8539 39.9451 39.3827C40.299 39.7778 40.9066 40.4173 41.3463 40.6531C41.7379 40.8632 42.22 41.076 42.6276 41.281C43.7513 41.8459 44.887 42.017 46.1053 42.121C46.7876 42.179 47.3904 42.1167 48.0598 42.1243C46.8512 42.433 44.7654 42.3247 43.5397 41.9737C42.9079 41.7927 41.8007 41.2809 41.2194 40.9479C40.7438 40.6755 40.1557 40.0223 39.7802 39.578C39.3437 39.0616 37.9795 36.4044 37.9402 35.7538Z" fill="#694F33"/>
<path fill-rule="evenodd" clip-rule="evenodd" d="M51.0003 29.2809C51.338 29.7176 51.4595 30.0721 51.5874 30.6329C51.9213 32.0989 51.8163 34.0853 50.8027 35.1974L50.7266 35.2676C50.7733 35.0998 50.7462 35.1739 50.852 34.9636C51.2695 34.1342 51.3971 33.6681 51.4468 32.7164C51.52 31.3199 51.4548 30.6156 51.0003 29.2809Z" fill="#694F33"/>
<path fill-rule="evenodd" clip-rule="evenodd" d="M44.8463 26.0316C43.8649 26.4019 42.9127 26.974 42.1739 27.8038C41.9895 28.0104 41.9604 28.0962 41.7427 28.3082C41.3403 28.6998 41.314 28.695 41.0924 29.2923C40.6061 30.6028 40.5719 31.1607 40.5685 32.5334C40.5682 32.6933 40.5051 33.9238 40.5131 33.9675L40.5385 34.0907C40.4155 33.9647 40.4362 33.8282 40.4339 33.6513C40.4214 32.6432 40.2767 31.5653 40.4489 30.5912C40.5747 29.8772 40.8422 28.7302 41.3432 28.2549C41.618 27.9939 41.5953 28.0626 41.856 27.7553C42.4657 27.0359 43.9475 26.0176 44.8463 26.0316Z" fill="#694F33"/>
<path fill-rule="evenodd" clip-rule="evenodd" d="M46.761 21.8228C46.2029 21.9612 45.5178 22.0499 44.9353 22.1621C44.3057 22.2834 43.2966 22.4241 42.7603 22.7249C41.8083 23.259 41.275 23.3948 40.3819 24.1638C39.4188 24.9925 39.4364 24.7472 38.6945 26.0241C38.4754 26.401 38.1431 26.9948 38.0023 27.4058C37.8469 27.8594 37.8782 27.7591 37.6388 28.2167C37.3761 28.7185 37.1479 29.3475 37.0057 29.9077C37.0048 29.6495 36.9907 29.7344 37.0572 29.4612C37.2536 28.6544 37.343 28.4909 37.6894 27.7494C37.8327 27.4431 37.7094 27.7189 37.8265 27.3319C37.967 26.8677 38.3405 26.1552 38.5786 25.7297C39.2574 24.5164 39.3058 24.7024 40.1899 23.9031C40.6841 23.4561 41.0825 23.2276 41.661 22.952C42.0452 22.7691 42.4458 22.5649 42.8245 22.3881C43.3074 22.1628 46.2481 21.7486 46.761 21.8228Z" fill="#694F33"/>
<path fill-rule="evenodd" clip-rule="evenodd" d="M49.7238 22.3346C50.4032 22.3741 52.2249 24.0257 52.7845 24.5754C53.5716 25.3495 54.4608 26.9079 54.6879 28.0566C54.7588 28.417 54.7718 28.5126 54.884 28.8726C55.1764 29.8115 55.0721 29.8401 55.147 30.75C55.173 31.0666 55.1713 30.9089 55.1484 31.2379C55.0737 30.8428 55.0254 30.6202 54.9915 30.2079C54.9169 29.3001 54.6765 29.0893 54.5063 28.3284C54.2343 27.1126 53.7393 26.4066 53.0991 25.4112C52.5713 24.5902 50.5543 22.7675 49.7238 22.3346Z" fill="#694F33"/>
<path fill-rule="evenodd" clip-rule="evenodd" d="M56.0088 32.0311C56.0031 32.6735 56.0192 33.1603 55.825 33.7808C55.6955 34.1947 55.6978 34.1873 55.6079 34.6334C55.5058 35.1415 55.4258 35.5846 55.2426 36.0654C54.9706 36.7795 55.0155 36.9316 54.6027 37.6534C54.4229 37.9678 54.4359 37.9833 54.1684 38.1971C54.3774 37.901 54.4537 37.731 54.6061 37.4002C54.8744 36.8173 54.8838 36.5372 55.0778 35.9616C55.3107 35.2697 55.3183 34.5758 55.4917 33.9463C55.7419 33.0383 55.7147 32.9739 55.7012 32.0311C55.7012 31.9357 55.7702 31.8584 55.855 31.8584C55.9398 31.8584 56.0088 31.9357 56.0088 32.0311Z" fill="#694F33"/>
<path fill-rule="evenodd" clip-rule="evenodd" d="M52.8749 40.5487C52.4197 40.8899 52.3366 41.219 51.708 41.5678C51.4779 41.6953 51.239 41.788 50.9947 41.9245C50.4128 42.2505 50.1018 42.4736 49.4493 42.6304C49.157 42.7005 48.8499 42.9188 48.5327 43.0325C47.6675 43.3426 45.7584 43.307 44.805 43.286C44.3784 43.2765 43.5397 43.2848 43.2737 42.8278C43.7476 43.2644 44.6778 43.1505 45.2605 43.134C45.9922 43.1131 47.314 43.0867 47.9963 42.9363C48.6369 42.7948 48.9276 42.4894 49.4216 42.3603C50.0068 42.207 50.3478 41.9588 50.8706 41.6536C51.1138 41.5116 51.3515 41.4145 51.58 41.2825C52.1508 40.9529 52.2625 40.6039 52.7268 40.2459C52.8014 40.2 52.8947 40.2306 52.9357 40.3141C52.9767 40.3978 52.9493 40.5027 52.8749 40.5487Z" fill="#694F33"/>
<path fill-rule="evenodd" clip-rule="evenodd" d="M36.5884 31.2734C36.3274 31.773 36.3121 34.1501 36.4462 34.748C36.5903 35.3924 36.6638 35.9096 36.7817 36.5447C36.9222 37.3032 37.0467 37.5955 37.3602 38.2737C36.7605 37.5219 36.6426 36.6483 36.4507 35.7011C36.3735 35.3204 36.2262 34.8635 36.1804 34.5119C36.0778 33.7241 36.0009 31.7244 36.3543 31.0491C36.4094 30.9766 36.5067 30.968 36.5711 31.0298C36.6356 31.0916 36.6435 31.2007 36.5884 31.2734Z" fill="#694F33"/>
<path fill-rule="evenodd" clip-rule="evenodd" d="M48.7549 21.7527C48.4249 21.5577 48.5979 21.6508 48.2872 21.5826C47.9021 21.4982 48.0028 21.4772 47.5467 21.434C46.6649 21.3503 45.636 21.3233 44.7609 21.441C43.9441 21.5509 42.2168 21.7457 41.5269 22.1456C41.2564 22.3024 40.6782 22.7032 40.4132 22.7823C40.7686 22.5284 41.0975 22.2735 41.4648 22.0352C42.2104 21.5513 44.0306 21.3084 44.9303 21.1605C45.5978 21.0507 47.4947 21.0351 48.1439 21.1978C48.5385 21.2966 48.5202 21.2373 48.9149 21.4578C48.9876 21.5075 49.0105 21.6137 48.9663 21.6953C48.9223 21.7767 48.8275 21.8026 48.7549 21.7527Z" fill="#694F33"/>
<path fill-rule="evenodd" clip-rule="evenodd" d="M50.8723 37.0414C50.3444 37.4095 50.0738 37.7665 49.4493 38.0017C48.821 38.2385 48.5906 38.4537 47.8888 38.5186C47.4073 38.5629 47.2295 38.6114 46.718 38.5857C46.6493 38.5822 46.6208 38.5911 46.5557 38.6063C46.6222 38.5143 46.7079 38.5178 46.8108 38.5113C47.221 38.4851 47.5012 38.3924 47.886 38.3315C48.5202 38.2312 48.8038 37.9833 49.38 37.7358C49.9262 37.5011 50.2426 37.0991 50.7179 36.7429C50.7911 36.6949 50.8856 36.723 50.928 36.8054C50.9707 36.888 50.9458 36.9934 50.8723 37.0414Z" fill="#694F33"/>
<path fill-rule="evenodd" clip-rule="evenodd" d="M39.5127 36.4828C39.8426 36.9944 39.8283 37.2521 40.0926 37.6921C40.703 38.7085 42.1685 39.8343 43.2104 40.2314C44.9815 40.9067 47.5007 40.966 49.2754 40.3308C50.7275 39.8109 52.4757 38.8379 53.005 37.1026C53.0824 36.8487 53.1345 36.5874 53.1641 36.3214C53.2175 35.8403 53.3592 35.6273 53.5244 35.1673C53.7019 34.6723 53.7865 34.3664 53.8492 33.8219L53.8656 34.1291C53.8492 34.5265 53.6451 35.1688 53.5184 35.5449C53.3765 35.9664 53.3485 35.9181 53.3137 36.3396C53.2852 36.6878 53.2187 37.0289 53.1101 37.3568C52.4896 39.2303 50.3704 40.3596 48.7659 40.8302C47.1009 41.3189 44.5633 41.1085 42.9621 40.3952C41.9256 39.9336 40.2156 38.5312 39.8198 37.3448C39.7039 36.9973 39.6615 36.8392 39.5127 36.4828Z" fill="#694F33"/>
<path fill-rule="evenodd" clip-rule="evenodd" d="M50.8178 25.379C50.5842 25.0637 48.2771 24.1051 47.8931 24.0502C47.2309 23.9553 44.6707 23.8801 44.0911 24.0208C43.4337 24.1803 42.3449 24.6973 41.7158 25.0051C40.8654 25.4209 40.5252 25.738 40.0592 26.6393C39.8122 27.1168 39.5823 27.2278 39.2164 27.5794L39.3793 27.3306C39.6665 26.9713 39.7126 27.0811 39.9422 26.5749C40.3799 25.609 40.7537 25.2386 41.6231 24.7754C42.2618 24.4352 43.3396 23.8861 44.0139 23.7008C44.6552 23.5246 47.4158 23.663 48.0944 23.8467C48.3543 23.9172 50.894 25.073 50.8178 25.379Z" fill="#694F33"/>
<path fill-rule="evenodd" clip-rule="evenodd" d="M42.9774 31.2635C43.3127 30.4666 43.6908 30.0601 44.2749 29.4918C44.8005 28.9806 45.1305 28.8407 45.8252 28.7132C46.3731 28.6126 47.1591 28.619 47.6649 28.9059C48.1173 29.1625 49.097 29.8588 49.3605 30.3501C49.4029 30.4291 49.4685 30.6138 49.4959 30.7262C49.3512 30.5831 49.4334 30.6156 49.2861 30.4104C48.9816 29.9864 47.9974 29.3685 47.5538 29.1475C46.9021 28.8229 45.2526 29.0019 44.6676 29.4653C43.9118 30.0642 43.57 30.4948 42.9774 31.2635Z" fill="#694F33"/>
<path fill-rule="evenodd" clip-rule="evenodd" d="M49.3135 33.1313C49.1275 33.9657 48.7559 34.6706 48.1204 35.171C47.4184 35.7236 46.338 35.9299 45.4974 35.8813C45.0035 35.8527 44.69 35.7293 44.3447 35.3315C44.3871 35.3532 44.6852 35.5081 44.7366 35.53C45.3891 35.8086 46.4384 35.5684 47.0808 35.3498C48.3952 34.9024 48.6288 34.3675 49.3135 33.1313Z" fill="#694F33"/>
<path fill-rule="evenodd" clip-rule="evenodd" d="M43.7521 29.0378C43.2332 29.4779 42.6064 31.0959 42.5997 31.8132C42.5883 33.0386 42.7015 34.4259 43.5149 35.3269C43.9121 35.7671 44.6422 36.3187 45.2158 36.4123C46.1254 36.5605 44.5817 36.2892 45.6668 36.4828C45.2178 36.5505 44.9549 36.5531 44.5361 36.3433C43.5751 35.8619 42.8326 35.1828 42.5182 34.0225C42.3647 33.4569 42.2918 32.2175 42.3655 31.6456C42.4376 31.0864 43.2347 29.0216 43.7521 29.0378Z" fill="#694F33"/>
<path fill-rule="evenodd" clip-rule="evenodd" d="M47.5586 29.2936C48.0056 29.5567 48.281 29.8134 48.5841 30.2581C49.0859 30.9947 49.0774 31.4555 49.1213 32.3492C49.1493 32.9207 48.7577 34.2208 48.3155 34.5488C48.0543 34.7426 47.1291 35.0248 46.8062 35.0502C46.9759 34.9555 47.15 34.8767 47.3236 34.7921C47.8524 34.5347 48.2397 34.5274 48.48 33.9022C48.8241 33.0059 48.8431 32.6022 48.8142 31.664C48.782 30.6167 48.1781 29.9788 47.5586 29.2936Z" fill="#694F33"/>
<path fill-rule="evenodd" clip-rule="evenodd" d="M49.0856 23.0765C50.5689 23.3351 51.3125 24.1613 52.1811 25.4689C52.9026 26.5552 53.7215 28.0825 53.8495 29.4521C53.8948 29.9334 53.9307 30.1619 53.9233 30.6643C53.916 31.1553 54.0126 32.5716 53.873 32.9496L53.8037 33.08C53.9182 32.3699 53.7477 31.4078 53.7296 30.6551C53.718 30.1754 53.672 29.9309 53.6132 29.4683C53.4302 28.0271 52.036 25.5501 51.1604 24.4828C50.3257 23.4653 50.0278 23.5868 49.0856 23.0765Z" fill="#694F33"/>
<path fill-rule="evenodd" clip-rule="evenodd" d="M47.8925 25.8653C48.4436 25.81 48.8516 25.9611 49.3328 26.2617C50.2492 26.8344 50.9995 27.8501 51.5972 28.8032C51.9566 29.376 51.9849 29.9121 52.193 30.5453C52.3748 31.0982 52.2753 31.5723 52.2987 32.1547C52.3244 32.7968 52.3142 32.947 52.0408 33.5405C52.1706 32.8678 52.2023 32.841 52.1364 32.1703C52.0841 31.6395 52.1545 31.1298 51.9733 30.6465C51.7439 30.0348 51.7146 29.5378 51.3549 29.0047C50.9789 28.4466 50.6419 27.8584 50.2109 27.349C49.4806 26.4852 48.9242 26.105 47.8925 25.8653Z" fill="#694F33"/>
<path fill-rule="evenodd" clip-rule="evenodd" d="M39.8319 32.0566C40.0005 32.9474 40.0742 33.4996 40.3666 34.386C40.664 35.2862 41.0901 36.1162 41.6618 36.8343C42.3152 37.6552 42.799 37.9551 43.6814 38.3768C43.98 38.5194 43.8576 38.4537 44.1397 38.632C43.7959 38.5517 43.4793 38.4496 43.1493 38.314C42.1985 37.9233 41.4189 37.1116 40.8433 36.1914C40.273 35.2802 39.6906 33.1618 39.8319 32.0566Z" fill="#694F33"/>
<path fill-rule="evenodd" clip-rule="evenodd" d="M38.8746 28.5772C38.3134 29.4157 38.237 31.1048 38.2364 32.1604C38.2359 33.3839 38.4016 33.9285 38.6812 35.0774C38.8935 35.9496 39.0923 36.7548 39.5127 37.5317L39.3866 37.4247C38.9051 36.9016 38.2673 34.5318 38.0657 33.7181C37.7931 32.6195 38.0408 30.166 38.4692 29.1332C38.5984 28.8207 38.6351 28.751 38.8746 28.5772Z" fill="#694F33"/>
<path fill-rule="evenodd" clip-rule="evenodd" d="M45.3934 30.6494C45.3462 30.551 45.9934 30.3673 46.0689 30.3557C47.2767 30.1708 47.7839 31.3213 47.644 32.5048C47.5408 33.3779 47.1622 33.6149 46.4506 33.7422C46.2752 33.7735 46.264 33.7645 46.1079 33.8514C46.0502 33.8835 45.4584 33.7924 45.3705 33.7708C45.6105 33.707 45.8107 33.6931 46.0513 33.696C46.1503 33.6216 46.1752 33.6115 46.3069 33.571C46.9275 33.3797 47.2971 33.3255 47.3565 32.4708C47.4054 31.7723 47.3126 30.8638 46.631 30.6002C46.0586 30.3788 45.5184 30.6694 45.3934 30.6494Z" fill="#694F33"/>
<path fill-rule="evenodd" clip-rule="evenodd" d="M44.5955 30.4448C43.9967 30.8712 43.818 32.5448 44.0654 33.2704C44.2019 33.6706 44.5938 34.1377 44.928 34.3322C45.0216 34.3866 45.1581 34.4011 45.2401 34.4757C45.6676 34.5874 47.1472 34.0815 47.4639 33.6632C47.6027 33.4804 47.5866 33.4323 47.7865 33.2081C47.5923 33.6823 47.5571 33.8562 47.1394 34.1423C46.8832 34.3179 45.4813 34.9871 45.0996 34.7358C44.8186 34.6331 44.7561 34.6352 44.5067 34.4236C43.7812 33.8076 43.6065 32.909 43.7793 31.95C43.8346 31.6415 44.1903 30.3687 44.5955 30.4448ZM45.2416 34.4773C45.2557 34.4903 45.2682 34.5052 45.2786 34.5227C45.2715 34.51 45.2568 34.4858 45.2416 34.4773Z" fill="#694F33"/>
<path fill-rule="evenodd" clip-rule="evenodd" d="M45.0971 31.1867C44.7513 31.4582 44.699 32.0071 44.8101 32.4286C45.0069 33.1751 45.794 33.4039 46.3804 33.0567L46.5784 32.9266L46.4466 33.1529C46.2854 33.3447 46.0219 33.4387 45.7943 33.456C45.0878 33.5096 44.5627 33.0903 44.5347 32.2728C44.5234 31.9392 44.7222 31.0394 45.0971 31.1867Z" fill="#694F33"/>
<path fill-rule="evenodd" clip-rule="evenodd" d="M45.6442 31.3146C45.8819 31.2413 46.0095 31.278 46.2074 31.4739C46.8362 32.0963 46.4424 33.0967 45.5933 32.4064C45.4988 32.3297 45.4751 32.2798 45.4844 32.159C45.6492 32.2794 46.1995 32.5802 46.2148 32.1883C46.2323 31.7211 45.9767 31.4978 45.6442 31.3146Z" fill="#694F33"/>
<path fill-rule="evenodd" clip-rule="evenodd" d="M54.5103 29.3958C54.6534 30.2268 54.7543 32.4989 54.6856 33.3271C54.5487 34.9732 54.1093 36.5147 53.3971 37.9584C52.9858 38.7923 52.6091 39.074 51.8817 39.4915L51.8848 39.4891C51.845 39.5191 51.8661 39.5061 51.8209 39.5274C51.8322 39.5026 51.8418 39.474 51.8627 39.4564C52.891 38.591 52.9204 38.6162 53.4602 37.2581C54.0036 35.8898 54.471 33.8038 54.4894 32.3074C54.4995 31.4782 54.4206 30.1486 54.5103 29.3958Z" fill="#694F33"/>
<path fill-rule="evenodd" clip-rule="evenodd" d="M36.8233 33.4639C36.9978 34.8705 37.0051 35.1485 37.52 36.4647C38.5333 39.0553 38.7937 40.1729 41.2403 41.5495C41.7859 41.8565 42.395 42.2359 42.9316 42.572C42.322 42.4158 41.7367 42.0207 41.1642 41.736C39.3555 40.8372 38.4666 39.9103 37.7456 37.8087C37.2477 36.3579 36.6746 35.0663 36.8233 33.4639Z" fill="#694F33"/>
<path fill-rule="evenodd" clip-rule="evenodd" d="M41.3819 33.9244C41.7008 34.5176 43.0668 36.7462 43.5921 36.9639C44.1443 37.1929 45.2857 37.3673 45.8848 37.3518C46.444 37.3373 46.7327 37.2737 47.2708 37.1321C48.0857 36.9176 47.6465 37.3572 48.6036 36.7549C48.9692 36.525 48.9152 36.5914 49.2542 36.4748C49.6571 36.3361 50.3843 35.3218 50.5562 34.8483C50.6862 34.4903 50.7117 34.4125 50.8861 34.0523C50.6238 35.0506 50.6244 35.2187 50.0252 36.0167C49.3178 36.9588 49.4362 36.4934 48.7289 36.9738C47.7226 37.6574 48.0939 37.207 47.3491 37.4285C46.9074 37.5596 46.5922 37.6561 46.1277 37.6852C45.4304 37.7288 44.1689 37.5041 43.5259 37.2167C43.1982 37.0702 42.8072 36.4926 42.5963 36.1844C42.1807 35.5767 41.5739 34.6496 41.3819 33.9244Z" fill="#694F33"/>
<path fill-rule="evenodd" clip-rule="evenodd" d="M50.2709 24.0486C49.074 23.4104 48.3132 23.1333 46.97 23.1101C46.4947 23.1019 46.0822 23.0282 45.5775 23.0316C44.0744 23.0414 43.8884 23.0173 42.4863 23.5801C41.9146 23.8096 40.2552 24.6581 39.8297 25.1011L39.7406 25.1999L39.7946 25.0677C40.0717 24.5799 41.8988 23.5655 42.4057 23.338C43.7634 22.7289 44.0874 22.6702 45.5803 22.7098C46.0909 22.7232 46.4873 22.8105 46.9657 22.8381C48.024 22.899 49.4651 23.2282 50.2709 24.0486Z" fill="#694F33"/>
<path fill-rule="evenodd" clip-rule="evenodd" d="M42.6138 27.6559C42.7922 27.0856 43.7829 26.8259 44.2828 26.487C45.2195 25.8516 46.612 26.0494 47.612 26.3892C48.434 26.6687 48.7331 26.7355 49.2991 27.5145C49.4408 27.7094 49.4188 27.6911 49.5272 27.9197L49.5233 27.9149C49.5391 27.9355 49.5324 27.9238 49.5425 27.9502C49.5265 27.9488 49.514 27.9507 49.5024 27.9365C48.7752 27.0243 48.5931 26.9442 47.5487 26.6527C46.6824 26.4111 45.2147 26.2118 44.4072 26.693C43.7447 27.0875 43.1484 27.0877 42.6138 27.6559Z" fill="#694F33"/>
<path d="M8.42895 50L8.03856 40.4988H9.99049C10.5789 39.9625 11.122 39.2476 11.6199 38.3539C12.1178 37.449 12.5308 36.2816 12.859 34.8517C13.1985 33.4217 13.4021 31.6566 13.47 29.5564L13.9113 22.8369L11.4502 22.3677V19.6028H32.6159V22.3677L29.9511 22.8704V40.4988H32.9724L32.5311 50H28.3556V44.001H12.6383V50H8.42895ZM15.2013 40.4988H25.3344V23.1217H18.5111L18.1037 29.5564C18.0358 31.2321 17.8774 32.7459 17.6285 34.0976C17.3795 35.4493 17.0457 36.6558 16.6271 37.7171C16.2197 38.7672 15.7444 39.6944 15.2013 40.4988Z" fill="#1E1000"/>
<path d="M58.9449 44.001V41.2528L61.6097 40.7501V22.8704L58.9449 22.3677V19.6028H68.7895V22.3677L66.2265 22.8704V29.791H68.5518L73.3892 22.9207C74.3624 21.5801 75.2506 20.6585 76.054 20.1557C76.8574 19.6419 77.757 19.3849 78.7528 19.3849C79.3638 19.3849 79.907 19.4575 80.3822 19.6028C80.8575 19.748 81.3045 19.9491 81.7231 20.206L80.9593 23.6077C80.6991 23.5407 80.4671 23.4904 80.2634 23.4569C80.0711 23.4234 79.873 23.4066 79.6694 23.4066C79.1715 23.4066 78.6962 23.5518 78.2436 23.8423C77.791 24.1216 77.2705 24.6466 76.6821 25.4174L72.5066 31.0813L79.6354 40.8339L82.1814 41.2528V44.001H72.7442V41.2528L74.2549 41.035L74.2039 40.968L69.1798 33.8797H66.2265V40.7501L68.7895 41.2528V44.001H58.9449Z" fill="#1E1000"/>
<path d="M0 11.124V10.1346L0.959332 9.95367V3.51696L0 3.33599V2.34062H3.58069V3.33599L2.62136 3.51696V6.15921H6.37925V3.51696L5.41992 3.33599V2.34062H9.00061V3.33599L8.04128 3.51696V9.95367L9.00061 10.1346V11.124H5.41992V10.1346L6.37925 9.95367V7.42604H2.62136V9.95367L3.58069 10.1346V11.124H0Z" fill="#1E1000"/>
<path d="M9.81329 11.124V10.1346L10.7726 9.95367V3.51696L9.81329 3.33599V2.34062H13.394V3.33599L12.4285 3.51696V7.79402L12.4652 7.80609L16.1987 4.0237V3.51696L15.2454 3.33599V2.34062H18.8261V3.33599L17.8668 3.51696V9.95367L18.8261 10.1346V11.124H15.2454V10.1346L16.1987 9.95367V5.78519L16.162 5.77313L12.4285 9.56759V9.95367L13.394 10.1346V11.124H9.81329Z" fill="#1E1000"/>
<path d="M19.5044 11.124V10.1346L20.4637 9.95367V3.51696L19.5044 3.33599V2.34062H23.0484V3.33599L22.1257 3.51696V6.0084H22.9629L24.7043 3.53506C25.0547 3.05246 25.3744 2.72067 25.6637 2.53969C25.9529 2.3547 26.2767 2.2622 26.6352 2.2622C26.8552 2.2622 27.0507 2.28834 27.2218 2.34062C27.3929 2.3929 27.5538 2.46529 27.7045 2.55779L27.4296 3.78239C27.3359 3.75826 27.2524 3.74017 27.179 3.7281C27.1098 3.71604 27.0385 3.71 26.9652 3.71C26.7859 3.71 26.6148 3.76229 26.4519 3.86685C26.289 3.96739 26.1016 4.15641 25.8897 4.43391L24.3866 6.4729L26.9529 9.98383L27.8695 10.1346V11.124H24.4721V10.1346L25.016 10.0562L24.9976 10.0321L23.1889 7.48033H22.1257V9.95367L23.0484 10.1346V11.124H19.5044Z" fill="#1E1000"/>
<path d="M31.8107 11.2507C31.216 11.2507 30.6762 11.1421 30.1915 10.9249C29.7067 10.7037 29.2892 10.394 28.9388 9.9959C28.5926 9.59373 28.3258 9.12319 28.1384 8.58429C27.951 8.04136 27.8573 7.44615 27.8573 6.79866V6.66594C27.8573 6.02247 27.951 5.43128 28.1384 4.89238C28.3258 4.34945 28.5926 3.87892 28.9388 3.48077C29.2892 3.0786 29.7047 2.76692 30.1853 2.54573C30.6701 2.32453 31.2099 2.21394 31.8046 2.21394C32.4116 2.21394 32.9574 2.32453 33.4422 2.54573C33.931 2.76692 34.3506 3.0786 34.7009 3.48077C35.0513 3.87892 35.3181 4.34945 35.5014 4.89238C35.6888 5.43128 35.7825 6.02247 35.7825 6.66594V6.79866C35.7825 7.44615 35.6888 8.04136 35.5014 8.58429C35.3181 9.12319 35.0513 9.59373 34.7009 9.9959C34.3547 10.394 33.9371 10.7037 33.4483 10.9249C32.9595 11.1421 32.4136 11.2507 31.8107 11.2507ZM31.8107 9.9597C32.3321 9.9597 32.7639 9.829 33.1061 9.56759C33.4483 9.30216 33.7029 8.93216 33.8699 8.4576C34.041 7.98304 34.1266 7.43006 34.1266 6.79866V6.65388C34.1266 6.03052 34.041 5.48357 33.8699 5.01303C33.6988 4.54249 33.4402 4.17451 33.0939 3.90908C32.7517 3.64365 32.3219 3.51093 31.8046 3.51093C31.2995 3.51093 30.8779 3.64365 30.5398 3.90908C30.2016 4.17049 29.947 4.53646 29.776 5.007C29.6089 5.47753 29.5254 6.02649 29.5254 6.65388V6.79866C29.5254 7.42604 29.6089 7.97902 29.776 8.4576C29.947 8.93216 30.2016 9.30216 30.5398 9.56759C30.8819 9.829 31.3056 9.9597 31.8107 9.9597Z" fill="#1E1000"/>
<path d="M36.4118 11.124V9.86318H36.6501C36.9272 9.8471 37.1573 9.77873 37.3406 9.65808C37.5239 9.5334 37.6685 9.34036 37.7745 9.07895C37.8804 8.81352 37.9598 8.46163 38.0128 8.02326C38.0657 7.58088 38.0963 7.0299 38.1044 6.37035L38.1594 3.51696L37.2245 3.33599V2.34062H45.058V3.33599L44.0987 3.51696V9.95367L45.058 10.1346V11.124H41.4835V10.1346L42.4428 9.95367V3.60745H39.8153L39.7664 6.37035C39.7502 7.2149 39.6809 7.93881 39.5587 8.54206C39.4406 9.14531 39.2613 9.63797 39.021 10.02C38.7847 10.3981 38.4853 10.6776 38.1227 10.8585C37.7602 11.0355 37.3284 11.124 36.8273 11.124H36.4118Z" fill="#1E1000"/>
<path d="M45.8341 11.124V10.1346L46.7934 9.95367V3.51696L45.8341 3.33599V2.34062H49.4148V3.33599L48.4554 3.51696V5.66454H50.1236C50.7998 5.66454 51.3823 5.77715 51.8711 6.00236C52.36 6.22356 52.7347 6.53524 52.9954 6.93741C53.2602 7.33957 53.3926 7.81413 53.3926 8.36108C53.3926 8.91205 53.2602 9.39667 52.9954 9.81492C52.7307 10.2292 52.3539 10.5509 51.865 10.7801C51.3762 11.0094 50.7957 11.124 50.1236 11.124H45.8341ZM48.4554 9.86318H50.1236C50.645 9.86318 51.0442 9.72041 51.3212 9.43487C51.5982 9.14933 51.7367 8.78738 51.7367 8.34902C51.7367 7.93076 51.6002 7.59093 51.3273 7.32952C51.0544 7.06409 50.6531 6.93137 50.1236 6.93137H48.4554V9.86318Z" fill="#1E1000"/>
<path d="M58.2932 11.2507C57.4214 11.2507 56.6698 11.0697 56.0384 10.7077C55.4111 10.3458 54.9284 9.83704 54.5903 9.18151C54.2522 8.52195 54.0831 7.74979 54.0831 6.86502V6.60562C54.0831 5.75302 54.2481 4.99694 54.578 4.33739C54.908 3.67783 55.3805 3.15903 55.9957 2.78099C56.6108 2.40296 57.344 2.21394 58.1954 2.21394C58.7942 2.21394 59.3523 2.3004 59.8696 2.47334C60.387 2.64225 60.8432 2.89159 61.2384 3.22137V5.29656H59.9857L59.8147 3.95131C59.6802 3.85478 59.5315 3.77234 59.3686 3.70397C59.2097 3.6356 59.0346 3.58332 58.8431 3.54713C58.6557 3.51093 58.452 3.49283 58.2321 3.49283C57.7106 3.49283 57.2646 3.62153 56.8939 3.87891C56.5232 4.13228 56.238 4.49021 56.0384 4.9527C55.8429 5.4152 55.7451 5.96215 55.7451 6.59355V6.86502C55.7451 7.50446 55.849 8.05745 56.0568 8.52396C56.2645 8.99048 56.5598 9.35042 56.9428 9.60378C57.3298 9.85313 57.7901 9.9778 58.3237 9.9778C58.5885 9.9778 58.8512 9.94965 59.112 9.89334C59.3727 9.83302 59.6049 9.7546 59.8085 9.65808L59.9857 8.42141H61.2262V10.4785C60.884 10.6997 60.4603 10.8847 59.9552 11.0335C59.4501 11.1783 58.8961 11.2507 58.2932 11.2507Z" fill="#1E1000"/>
<path d="M62.216 11.124V10.1346L63.1754 9.95367V3.51696L62.216 3.33599V2.34062H65.7601V3.33599L64.8374 3.51696V6.0084H65.6745L67.416 3.53506C67.7663 3.05246 68.0861 2.72067 68.3753 2.53969C68.6645 2.3547 68.9884 2.2622 69.3469 2.2622C69.5668 2.2622 69.7624 2.28834 69.9335 2.34062C70.1046 2.3929 70.2655 2.46529 70.4162 2.55779L70.1412 3.78239C70.0475 3.75826 69.964 3.74017 69.8907 3.7281C69.8214 3.71604 69.7502 3.71 69.6768 3.71C69.4976 3.71 69.3265 3.76229 69.1636 3.86685C69.0006 3.96739 68.8132 4.15641 68.6014 4.43391L67.0982 6.4729L69.6646 9.98383L70.5812 10.1346V11.124H67.1838V10.1346L67.7276 10.0562L67.7093 10.0321L65.9006 7.48033H64.8374V9.95367L65.7601 10.1346V11.124H62.216Z" fill="#1E1000"/>
<path d="M71.2228 11.124V10.1346L72.1821 9.95367V3.51696L71.2228 3.33599V2.34062H74.8034V3.33599L73.838 3.51696V7.79402L73.8747 7.80609L77.6081 4.0237V3.51696L76.6549 3.33599V2.34062H80.2356V3.33599L79.2763 3.51696V9.95367L80.2356 10.1346V11.124H76.6549V10.1346L77.6081 9.95367V5.78519L77.5715 5.77313L73.838 9.56759V9.95367L74.8034 10.1346V11.124H71.2228Z" fill="#1E1000"/>
<path d="M80.9872 11.124V10.1346L81.9465 9.95367V3.51696L80.9872 3.33599V2.34062H84.5679V3.33599L83.6024 3.51696V7.79402L83.6391 7.80609L87.3725 4.0237V3.51696L86.4193 3.33599V2.34062H90V3.33599L89.0407 3.51696V9.95367L90 10.1346V11.124H86.4193V10.1346L87.3725 9.95367V5.78519L87.3359 5.77313L83.6024 9.56759V9.95367L84.5679 10.1346V11.124H80.9872ZM85.4966 1.7796C84.853 1.7796 84.3418 1.61672 83.9629 1.29096C83.5882 0.965204 83.4069 0.546949 83.4191 0.0361952L83.4313 0H84.5801C84.5801 0.245323 84.6534 0.448418 84.8 0.609285C84.9467 0.766131 85.1789 0.844554 85.4966 0.844554C85.8022 0.844554 86.0282 0.766131 86.1749 0.609285C86.3256 0.45244 86.401 0.249344 86.401 0H87.5497L87.562 0.0361952C87.5701 0.546949 87.3868 0.965204 87.012 1.29096C86.6413 1.61672 86.1362 1.7796 85.4966 1.7796Z" fill="#1E1000"/>
</svg>
