<svg width="90" height="50" fill="none" xmlns="http://www.w3.org/2000/svg"><path fill-rule="evenodd" clip-rule="evenodd" d="M46.01 19.563c6.236 0 11.29 5.692 11.29 12.714 0 7.021-5.054 12.714-11.29 12.714-6.235 0-11.29-5.693-11.29-12.714 0-7.022 5.055-12.715 11.29-12.715Zm0 .598c5.942 0 10.76 5.424 10.76 12.116 0 6.691-4.818 12.116-10.76 12.116s-10.76-5.425-10.76-12.116c0-6.692 4.818-12.117 10.76-12.117Z" fill="#707F84"/><path fill-rule="evenodd" clip-rule="evenodd" d="m37.894 22.972-.564-.635.058-.064v-.002c.226-.329-.045-.918-.561-.651l-.04-.026.157-.134-.049-.076.558-.478s.432.683.956.36l.216-.186c.255-.295.053-.91-.486-.723l-.037-.031.172-.11-.04-.083.608-.392s.346.732.898.502c.084-.056.168-.11.253-.164.276-.26.145-.886-.407-.78l-.032-.037.183-.083-.03-.089.648-.299s.258.775.83.63c.09-.044.181-.086.272-.126.304-.218.246-.858-.313-.834l-.028-.04.192-.056-.02-.092.678-.202s.166.812.756.746c.09-.029.18-.055.27-.081.334-.166.355-.817-.206-.876l-.023-.045.197-.027-.009-.094.695-.1s.071.835.669.85l-.004.002c.088-.014.177-.027.266-.039.358-.106.461-.76-.093-.902l-.018-.048.198.003.002-.095.701.003s-.026.838.564.94l-.01.003h.275c.367-.054.546-.686.012-.908l-.012-.05.196.03.013-.093.695.106s-.123.827.45 1.016h-.008l.27.04c.37.002.62-.6.118-.898l-.007-.051.191.06.024-.091.676.206s-.218.803.329 1.074c.087.025.175.052.262.08.364.047.675-.507.213-.875v-.052l.183.087.034-.086.647.305s-.309.759.197 1.11c.086.038.173.079.258.12.354.096.723-.406.31-.836l.005-.052.171.114.044-.081.605.397s-.39.704.064 1.126c.084.053.166.107.249.162.34.143.759-.3.4-.785l.012-.05.156.137.053-.073.554.482s-.474.647-.061 1.133c.07.06.142.122.213.185.32.203.799-.175.497-.714l.017-.048.14.159.06-.065.494.56s-.546.571-.193 1.114l-.003-.003.03.034-.565.635c-2.094-2.327-4.971-3.765-8.148-3.765-3.175 0-6.053 1.438-8.147 3.765Zm.114-2.716.204-.131.04.082-.172.11-.072-.061Zm3.034-1.93.227-.068.02.091-.192.056-.055-.08Zm3.374-.982.235.001-.002.094-.198-.002-.035-.093Zm3.485.034.227.07-.024.09-.19-.06-.013-.1Zm3.359 1.05.202.132-.043.08-.17-.113.01-.1Zm3.002 1.99.166.188-.06.065-.14-.16.034-.093Zm-17.577 1.12.187-.16.05.076-.159.135-.078-.05Zm2.784-2.36.217-.1.03.088-.183.084-.064-.071ZM42.7 17.71l.233-.033.01.093-.197.027-.046-.087Zm3.46-.477.233.035-.014.093-.196-.03-.023-.098Zm3.45.546.218.102-.035.086-.182-.087v-.101Zm3.21 1.532.184.163-.052.073-.156-.137.023-.099ZM37.751 41.439l-.564.634-.057-.065h-.001c-.293-.254-.817.05-.58.633l-.022.044-.12-.178-.067.056-.425-.627s.607-.487.32-1.077a14.02 14.02 0 0 1-.165-.243c-.263-.286-.81-.06-.642.548l-.028.04-.098-.193-.074.045-.348-.684s.651-.39.446-1.01c-.05-.094-.098-.19-.145-.284-.232-.312-.789-.164-.694.457l-.033.037-.074-.207-.078.034-.266-.73s.69-.29.559-.934a13.811 13.811 0 0 1-.111-.305c-.194-.342-.763-.278-.742.352l-.036.031-.05-.215-.081.021-.18-.762s.724-.187.663-.851c-.025-.1-.048-.202-.071-.303-.147-.376-.727-.4-.779.231l-.04.026-.024-.22-.083.009-.09-.782s.743-.08.756-.752l.002.006c-.012-.1-.024-.2-.034-.301-.095-.403-.676-.52-.802.104l-.043.02.002-.222-.084-.003.003-.789s.745.03.836-.635l.002.015v-.312c-.048-.413-.61-.614-.808-.014l-.044.014.028-.22-.083-.016.094-.781s.735.139.903-.507v.014c.011-.102.023-.205.037-.307l-.002-.002c.002-.416-.532-.698-.798-.132l-.046.007.053-.215-.08-.027.184-.76s.713.245.954-.37v.006c.022-.099.045-.197.07-.295.047-.411-.448-.768-.777-.246h-.045l.077-.205-.077-.039.27-.727s.68.348.99-.227l-.001.002c.034-.094.068-.188.104-.281.091-.4-.357-.822-.742-.355l-.046-.007.1-.191-.07-.05.352-.682s.63.444 1.005-.076c.045-.09.09-.18.138-.268.134-.382-.261-.863-.696-.458l-.044-.013.122-.175-.066-.06.429-.624s.575.534 1.007.07l.163-.239c.183-.36-.154-.9-.634-.56l-.042-.02.141-.156-.057-.069.497-.555s.508.614.99.216l-.005.01.033-.038.564.634c-2.068 2.357-3.345 5.594-3.345 9.168 0 3.573 1.277 6.81 3.345 9.167Zm-2.414-.129-.116-.23.073-.044.098.194-.055.08Zm-1.716-3.413-.06-.256.082-.022.05.216-.072.062ZM32.75 34.1l.001-.264.084.002-.002.223-.083.04Zm.031-3.92.062-.256.08.027-.053.214-.089.014Zm.932-3.78.118-.228.072.049-.1.192-.09-.013Zm1.77-3.378.166-.186.058.068-.142.156-.083-.038Zm.995 19.777-.142-.21.068-.056.119.178-.045.088Zm-2.097-3.132-.089-.245.078-.034.074.207-.063.072Zm-1.305-3.636-.03-.262.084-.01.024.22-.078.052Zm-.424-3.892.031-.262.083.014-.028.221-.086.027Zm.485-3.884.09-.243.078.038-.078.205h-.09Zm1.362-3.61.144-.208.065.059-.122.176-.087-.026ZM54.142 41.556l.564.635-.058.064v.002c-.226.33.045.919.562.651l.04.026-.159.134.05.077-.558.477s-.432-.683-.956-.36c-.072.063-.144.125-.217.186-.254.297-.052.91.487.723l.037.031-.172.11.04.083-.608.391s-.347-.732-.898-.5c-.084.055-.168.11-.253.163-.276.26-.145.886.407.78l.032.037-.183.084.03.088-.648.299s-.258-.776-.831-.63c-.09.044-.18.086-.271.126-.304.218-.247.858.312.834l.029.041-.192.056.02.091-.678.202s-.167-.814-.757-.745l-.269.08c-.334.165-.356.817.206.876l.023.045-.197.027.009.094-.695.1s-.071-.835-.669-.85l.006-.002c-.09.014-.178.027-.268.039-.357.106-.462.76.093.902l.018.048-.198-.002-.002.094-.701-.002s.026-.839-.564-.942l.012-.002h-.277c-.367.054-.546.686-.012.909l.012.05-.196-.031-.014.093-.694-.106s.123-.827-.45-1.016h.013a10.545 10.545 0 0 1-.274-.041h-.001c-.37 0-.62.6-.118.9l.007.05-.191-.059-.024.09-.676-.206s.218-.803-.329-1.074l.005.001a12.688 12.688 0 0 1-.262-.08c-.366-.053-.682.505-.219.874v.052l-.182-.087-.034.086-.646-.304s.309-.764-.202-1.113h.001a12.355 12.355 0 0 1-.25-.117c-.355-.102-.73.403-.315.835l-.005.052-.171-.113-.044.08-.606-.397s.395-.708-.068-1.13c-.08-.05-.16-.103-.238-.155-.34-.15-.767.294-.406.782l-.012.05-.156-.137-.053.074-.555-.483s.475-.647.062-1.133c-.071-.06-.141-.122-.212-.184-.32-.205-.8.174-.498.713l-.017.048-.139-.158-.061.064-.494-.559s.546-.572.193-1.114l.008.006-.034-.038.564-.635c2.094 2.328 4.971 3.765 8.147 3.765s6.054-1.437 8.148-3.765Zm-.114 2.716-.204.132-.04-.083.172-.11.072.061Zm-3.034 1.931-.227.067-.02-.091.192-.056.055.08Zm-3.374.981h-.235l.002-.095.198.002.035.093Zm-3.485-.034-.227-.07.024-.09.19.06.013.1ZM40.776 46.1l-.203-.133.044-.08.17.113-.01.1Zm-3.002-1.99-.166-.188.061-.065.139.159-.034.093ZM55.35 42.99l-.188.16-.049-.076.159-.134.078.05Zm-2.784 2.36-.217.1-.03-.088.183-.084.064.072Zm-3.231 1.468-.234.033-.008-.093.196-.027.046.087Zm-3.46.477-.233-.035.013-.093.197.031.023.097Zm-3.45-.546-.218-.102.034-.086.183.087v.101Zm-3.209-1.532-.186-.162.053-.074.156.138-.023.098ZM55.762 23.688c.056.08.112.161.166.242.263.287.81.06.642-.547l.028-.041.097.194.074-.045.348.684s-.65.39-.445 1.01c.05.095.098.19.145.284.232.312.788.164.694-.457l.033-.037.074.207.078-.034.266.73s-.69.29-.56.934c.04.101.076.203.112.304.194.343.762.279.741-.35l.037-.032.05.215.08-.022.18.762s-.723.188-.662.853c.024.1.048.2.07.302.148.376.727.4.78-.231l.04-.026.024.22.083-.009.089.782s-.742.08-.756.752l-.002-.006c.013.1.025.2.035.301.095.403.676.52.802-.104l.043-.02-.002.223.084.002-.003.788s-.745-.03-.836.635l-.002-.014v.312c.048.413.61.614.807.014l.045-.014-.028.22.083.016-.094.78s-.735-.138-.903.508v-.015a16.56 16.56 0 0 1-.037.308l.001.002c0 .416.533.698.799.132l.045-.007-.053.214.08.027-.183.761s-.713-.245-.954.37v-.006c-.022.099-.045.197-.07.296-.047.411.448.766.776.245h.046l-.077.205.077.039-.27.727s-.679-.348-.99.226c-.033.095-.068.188-.103.281-.09.4.357.82.742.354l.045.007-.1.192.071.049-.352.681s-.63-.443-1.005.077c-.045.09-.091.18-.138.268-.133.383.261.863.696.458l.044.013-.122.175.066.06-.43.623s-.574-.533-1.006-.069c-.054.08-.108.16-.164.239-.182.36.155.9.634.56l.043.02-.141.156.057.068-.497.556s-.508-.614-.99-.217l.006-.01-.034.04-.565-.635c2.069-2.357 3.346-5.594 3.346-9.168 0-3.573-1.277-6.81-3.346-9.167l.566-.635.057.066c.293.254.817-.051.58-.632l.022-.046.12.179.067-.056.425.627s-.608.487-.32 1.076Zm.898-.451.117.23-.074.044-.097-.194.054-.08Zm1.716 3.413.06.256-.081.022-.05-.216.071-.062Zm.873 3.797-.002.264-.083-.002.002-.224.083-.038Zm-.032 3.92-.061.256-.08-.027.053-.214.089-.014Zm-.931 3.78-.119.228-.07-.05.1-.191.089.012Zm-1.77 3.378-.166.186-.058-.068.141-.156.084.038Zm-.996-19.777.143.21-.068.056-.119-.178.044-.088Zm2.098 3.132.089.245-.078.034-.075-.207.064-.072Zm1.305 3.636.03.263-.084.01-.024-.222.078-.051Zm.424 3.892-.031.262-.083-.014.028-.221.086-.027Zm-.485 3.883-.09.245-.078-.039.078-.205h.09Zm-1.362 3.61-.144.21-.066-.06.123-.176.087.026Z" fill="#8F989B"/><path fill-rule="evenodd" clip-rule="evenodd" d="M46.083 43.826C40.447 43.75 35.9 38.6 35.9 32.256s4.548-11.495 10.184-11.57c5.637.075 10.185 5.226 10.185 11.57s-4.548 11.495-10.185 11.57Z" fill="#FAD0A0"/><path fill-rule="evenodd" clip-rule="evenodd" d="M46.083 40.152c-.361-.004-.726-.078-1.172-.262-.485-.201-.913-.463-1.42-.659-1.14-.44-1.527-.75-2.392-1.668-.677-.718-.942-1.192-1.293-2.159a19.696 19.696 0 0 1-.209-.61c-.381-1.17-.333-1.823-.308-3.029.021-1.036.176-1.979.487-2.955.414-1.302 1.296-2.14 2.26-2.94.572-.474.905-.621 1.582-.824.789-.237 1.075-.619 1.994-.727.16-.02.317-.033.471-.042.155.009.312.023.472.042.919.108 1.205.49 1.994.727.677.203 1.01.35 1.583.825.962.799 1.845 1.637 2.26 2.94.31.975.464 1.918.486 2.954.025 1.206.073 1.86-.309 3.03-.066.204-.134.408-.208.61-.352.966-.616 1.44-1.293 2.158-.865.918-1.253 1.228-2.392 1.668-.507.196-.936.458-1.42.659-.446.184-.81.258-1.173.262Z" fill="#E0B17A"/><path fill-rule="evenodd" clip-rule="evenodd" d="M46.083 35.755c-.353-.083-.536-.29-.995-.393-.593-.132-.889-.37-1.336-.812-.341-.337-.56-.862-.68-1.352-.11-.45-.036-.973.03-1.43.093-.634.298-1.298.657-1.804.325-.456.698-.87 1.192-1.078.495-.21.726-.376 1.132-.433.406.057.638.224 1.133.433.494.209.867.622 1.192 1.078.36.506.564 1.17.656 1.804.067.457.142.98.031 1.43-.12.49-.339 1.015-.68 1.352-.447.442-.744.68-1.337.812-.458.102-.641.31-.995.393Z" fill="#F8C385"/><path fill-rule="evenodd" clip-rule="evenodd" d="M52.717 22.819c.919.838 1.825 1.78 2.381 2.97.306.654.638 1.383.899 2.058.185.481.287 1.04.437 1.552.351 1.221.211 1.993.237 3.23.008.362.012.7-.013 1.063-.048.641-.178 1.273-.32 1.896-.117.508-.32.996-.465 1.507-.238.84-.598 1.47-.992 2.217-.388.73-.81 1.445-1.438 1.94-.262.208-.448.397-.731.591l-.156.106c-.193.128-.389.252-.584.375-.8.505-.959.813-1.937 1.076-.535.144-.984.328-1.504.504-.77.261-1.578.396-2.383.385-.812-.012-1.405-.022-2.214-.193-1.764-.371-3.793-1.23-5.1-2.65-.825-.898-1.397-1.753-1.952-2.882-.352-.714-.693-1.517-.892-2.3-.162-.64-.36-1.166-.468-1.834-.11-.687-.317-2.33-.12-2.96.157-.505.183-.324.133-.886-.036-.416.077-.728.153-1.128.13-.698.253-1.598.572-2.214.168-.314.367-.587.537-.912.274-.521.569-1.028.859-1.538.46-.81.996-1.302 1.639-1.915 1.049-1 1.874-1.441 3.162-1.948.591-.233 1.244-.457 1.866-.54.592-.08 1.002-.168 1.614-.147 1.213.038 1.747-.064 2.966.354.355.121.67.195 1.027.342.383.156.719.333 1.065.575.35.25.713.517 1.063.772.232.17.443.339.659.534Zm-2.27 20.021c-.839.506-1.545.637-2.48.812-1.27.236-1.888.293-3.174.163-1.213-.124-1.903-.381-3.016-.903-.493-.23-.919-.595-1.367-.914-.45-.322-.772-.57-1.168-.976-.557-.571-.983-.994-1.44-1.687-.889-1.349-1.282-2.265-1.629-3.905-.21-1.009-.337-2.2-.323-3.236.007-.488.255-.627.637-.752.634-.206 1.133-.054 1.762-.038l-.23-.046c-.59-.118-1.344-.285-1.816-.723-.323-.3-.212-.706-.15-1.108l.045-.282c.135-.76.455-1.446.709-2.168.18-.511.671-1.505.977-1.903.264-.344.537-.646.804-1.004.427-.573.527-.682 1.057-1.133.51-.433.724-.687 1.318-1.01.654-.357 1.035-.574 1.747-.782a14.258 14.258 0 0 1 3.457-.59c.584-.022 1.38.034 1.94.218.3.1.397.507.437.819.085.67-.201 1.341-.331 1.983l.128-.368c.239-.684.432-1.412 1.044-1.782.278-.169.47-.05.74.073.105.047.203.096.304.15.84.456 1.5.906 2.262 1.506.835.658 1.046.82 1.617 1.749.22.358.47.775.679 1.144.41.728.81 1.984 1.035 2.815.163.639.289 1.542.337 2.204.02.288-.077.425-.314.541-.473.232-1.31.244-1.84.299l.37.01c.4.012 1.74.004 1.837.566.062.359-.08 1.505-.152 1.904-.08.444-.184.878-.297 1.313-.232.885-.67 2.188-1.122 2.958-.25.424-.675.799-.987 1.194-.234.297-.365.46-.739.303-.592-.249-.842-.729-1.253-1.201l.214.454c.23.49.788 1.56.309 2.039-.305.304-1.137.813-1.523 1.045l-.415.25Z" fill="#CB9F70"/><path fill-rule="evenodd" clip-rule="evenodd" d="M50.327 26.18c.186.172.759.69.843.907.108.28-.015.705-.161.941-.315.506-.734.798-1.172 1.14 0 .001.17-.105.253-.154.432-.257 1.069-.642 1.568-.538.49.102.508.268.697.732.029.07.056.14.084.211.12.31.185.67.282 1 .192.658.154 1.035.148 1.701-.003.36.023.697-.004 1.064a8.3 8.3 0 0 1-.207 1.22c-.075.328-.205.642-.299.971-.186.635-.618 1.466-.993 1.982-.437.601-.532.734-1.143 1.144-.125.083-.25.163-.376.242-.515.325-.617.523-1.248.693-.345.093-.633.211-.968.325-.694.229-1.295.395-1.5-.592-.107-.519-.044-.482-.146.015-.122.597-.388.82-.94.765a4.482 4.482 0 0 1-.375-.065c-1.136-.239-2.443-.792-3.284-1.707-.233-.254-.948-1.113-1.002-1.44-.09-.544.431-1.051.793-1.31.2-.145.214-.128-.015-.058-.465.142-1.082.199-1.455-.219-.144-.161-.213-.532-.278-.758a6.384 6.384 0 0 1-.177-.733c-.158-.98-.192-1.917.041-2.886.124-.525.196-1.298.435-1.744.108-.201.236-.377.345-.586.177-.337.367-.663.554-.991.297-.522.642-.839 1.055-1.234.676-.644 1.207-.928 2.037-1.254.38-.15.801-.295 1.201-.348.336-.043.591-.044.825.28.37.513.326 1.566.33 2.207 0 .027 0 .779.004.623.012-.679.002-2.341.347-2.867.305-.465.831-.295 1.249-.175.547.164 1.06.313 1.542.656.227.16.46.333.685.497.15.11.285.218.425.344Zm-1.462 12.896c-.54.325-.995.41-1.598.522-.469.087-.696.088-.938-.433-.197-.426-.215-.771-.3-1.218 0-.002-.02.433-.047.595-.073.436-.262 1.11-.735 1.147-.552.042-1.45-.327-1.966-.567-.317-.149-.592-.384-.88-.59a4.973 4.973 0 0 1-.753-.628c-.236-.241-.909-.919-.987-1.234-.11-.444.203-.915.492-1.184.019-.017.241-.187.184-.177-.315.054-.485.143-.827.07-.37-.08-.647-.28-.752-.698a11.672 11.672 0 0 1-.086-.378c-.27-1.279-.267-2.693-.049-3.983.087-.49.293-.932.457-1.396.116-.33.433-.97.63-1.226.17-.222.345-.416.517-.647.275-.37.34-.44.681-.73.328-.278.466-.442.849-.65.421-.23.666-.37 1.125-.504.372-.108 1.14-.36 1.493-.21.688.296.676 1.55.692 2.23.005.186.013.392.011.575.003-.003.037-.94.042-1.014.047-.655.17-2.037 1.016-1.875.197.037.413.111.602.184.392.157.729.224 1.115.434.54.294.966.584 1.457.97.168.133.626.475.71.668.124.28.052.648-.086.903-.279.514-.677.797-1.097 1.137 0 0 .137-.084.201-.121.439-.254 1.137-.651 1.633-.444.398.167.415.357.555.776.084.25.16.502.229.758.137.509.246 1.562.257 2.084.02.902-.069 1.454-.295 2.319-.149.57-.432 1.41-.723 1.905-.16.26-.299.332-.582.232-.705-.247-1.229-1.086-1.815-1.58-.161-.136-.341-.286-.507-.413.026.035.52.453.617.55.391.38 1.475 1.902 1.17 2.498-.252.494-1.252 1.066-1.712 1.343Z" fill="#9F7950"/><path d="M49.531 34.978c-.42.602-.583.654-1.1 1.07-.45.363-.464.559-1.11.654-.408.06-.635.092-1.041.215-.782.237-1.168.184-1.916-.19-.796-.398-1.35-.961-1.856-1.75l-.031-.048c-.662-1.05-.764-2.052-.657-3.306.059-.688.246-1.163.547-1.757.425-.841.838-1.257 1.52-1.828.545-.456 1.09-.621 1.758-.678.534-.045 1.054.08 1.576.188.756.166 1.268.601 1.82 1.183.424.446.722.838.936 1.45.167.477.477 1.725.48 2.21.005.982-.404 1.832-.926 2.587Zm-2.145-6.988a3.523 3.523 0 0 0-1.727-.403c-.636.003-1.297.436-1.819.819-.882.647-1.171 1.409-1.503 2.486-.25.811-.345 1.694-.209 2.543.135.846.62 1.756 1.22 2.29.447.38 1.28.855 1.837.941.72.111 1.323.081 2.002-.227.85-.387 1.44-.839 2.085-1.59.373-.436.739-.973.827-1.583.134-.98-.072-2.096-.434-2.991-.374-.926-.582-1.194-1.373-1.755a6.74 6.74 0 0 0-.906-.53Z" fill="#694F33"/><path fill-rule="evenodd" clip-rule="evenodd" d="M37.94 35.754c.308.755 1.532 3.1 2.005 3.629.354.395.962 1.034 1.401 1.27.392.21.874.423 1.282.628 1.123.565 2.259.736 3.477.84.683.058 1.285-.004 1.955.003-1.209.309-3.295.2-4.52-.15-.632-.181-1.74-.693-2.32-1.026-.476-.273-1.064-.926-1.44-1.37-.436-.516-1.8-3.174-1.84-3.824ZM51 29.28c.338.438.46.792.587 1.353.334 1.466.23 3.452-.784 4.564l-.076.07c.046-.167.02-.093.125-.303.418-.83.545-1.296.595-2.248.073-1.396.008-2.1-.447-3.435ZM44.846 26.032c-.981.37-1.933.942-2.672 1.772-.184.206-.214.292-.431.504-.403.392-.429.387-.65.984-.487 1.31-.521 1.869-.525 3.241 0 .16-.063 1.39-.055 1.434l.026.124c-.123-.126-.103-.263-.105-.44-.013-1.008-.157-2.086.015-3.06.126-.714.393-1.86.894-2.336.275-.261.252-.192.513-.5.61-.72 2.091-1.737 2.99-1.723ZM46.761 21.823c-.558.138-1.243.227-1.826.34-.63.12-1.638.261-2.175.562-.952.534-1.485.67-2.378 1.439-.963.828-.946.583-1.688 1.86-.219.377-.55.97-.692 1.382-.155.453-.124.353-.363.81a8.176 8.176 0 0 0-.633 1.692c-.001-.259-.015-.174.051-.447.197-.807.286-.97.632-1.712.144-.306.02-.03.138-.417.14-.464.514-1.177.752-1.602.678-1.214.727-1.028 1.61-1.827.495-.447.894-.675 1.472-.951.384-.183.785-.387 1.163-.564.483-.225 3.424-.64 3.937-.565ZM49.724 22.335c.68.04 2.5 1.69 3.06 2.24.788.774 1.677 2.333 1.904 3.482.07.36.084.456.196.816.292.938.188.967.263 1.877.026.317.024.159.001.488-.074-.395-.123-.618-.157-1.03-.074-.908-.315-1.119-.485-1.88-.272-1.215-.767-1.921-1.407-2.917-.528-.82-2.545-2.644-3.375-3.076ZM56.009 32.031c-.006.642.01 1.13-.184 1.75-.13.414-.127.406-.217.852-.102.508-.182.952-.365 1.432-.272.715-.227.867-.64 1.588-.18.315-.167.33-.435.544.21-.296.286-.466.438-.797.268-.583.278-.863.472-1.438.233-.692.24-1.386.414-2.016.25-.908.223-.972.21-1.915 0-.095.068-.173.153-.173.085 0 .154.078.154.173Z" fill="#694F33"/><path fill-rule="evenodd" clip-rule="evenodd" d="M52.875 40.549c-.455.34-.538.67-1.167 1.019-.23.127-.469.22-.713.357-.582.326-.893.549-1.546.705-.292.07-.6.289-.916.402-.866.31-2.775.275-3.728.254-.427-.01-1.265-.001-1.531-.458.474.436 1.404.322 1.986.306.732-.02 2.054-.047 2.736-.198.64-.141.932-.447 1.426-.576.585-.153.926-.401 1.449-.706.243-.142.48-.24.709-.372.57-.33.683-.678 1.147-1.036.074-.046.168-.015.209.068.04.084.013.189-.061.235ZM36.588 31.273c-.26.5-.276 2.877-.142 3.475.144.644.218 1.162.336 1.797.14.758.265 1.05.578 1.729-.6-.752-.717-1.626-.91-2.573-.077-.38-.224-.837-.27-1.19-.102-.787-.18-2.787.174-3.462a.143.143 0 0 1 .217-.02c.065.063.073.172.017.244ZM48.755 21.753c-.33-.195-.157-.102-.468-.17-.385-.085-.284-.106-.74-.149-.882-.084-1.911-.11-2.786.007-.817.11-2.544.305-3.234.705-.27.156-.849.557-1.114.636.356-.254.684-.509 1.052-.747.745-.484 2.566-.727 3.465-.875.668-.11 2.565-.125 3.214.038.395.099.376.04.77.26.074.05.096.156.052.237-.044.082-.139.108-.211.058ZM50.872 37.041c-.528.369-.798.726-1.423.96-.628.238-.858.453-1.56.518-.482.044-.66.092-1.171.067-.069-.004-.097.005-.162.02.066-.092.152-.088.255-.095.41-.026.69-.119 1.075-.18.634-.1.918-.348 1.494-.595.546-.235.863-.637 1.338-.993.073-.048.168-.02.21.062.043.083.018.188-.056.236Z" fill="#694F33"/><path fill-rule="evenodd" clip-rule="evenodd" d="M39.513 36.483c.33.511.315.77.58 1.21.61 1.016 2.075 2.141 3.117 2.538 1.771.676 4.29.735 6.065.1 1.453-.52 3.2-1.493 3.73-3.228a4.31 4.31 0 0 0 .16-.782c.053-.48.194-.694.36-1.154.177-.495.261-.8.324-1.345l.017.307c-.017.398-.22 1.04-.348 1.416-.142.421-.17.373-.204.795-.029.348-.095.689-.204 1.017-.62 1.873-2.74 3.003-4.344 3.473-1.665.489-4.203.279-5.804-.435-1.036-.461-2.746-1.864-3.142-3.05-.116-.348-.159-.506-.307-.862ZM50.818 25.379c-.234-.315-2.54-1.274-2.925-1.329-.662-.095-3.222-.17-3.802-.03-.657.16-1.746.677-2.375.985-.85.416-1.19.733-1.657 1.634-.247.478-.477.589-.843.94l.163-.248c.288-.36.334-.25.563-.756.438-.966.812-1.336 1.681-1.8.639-.34 1.717-.889 2.39-1.074.642-.176 3.403-.038 4.081.146.26.07 2.8 1.226 2.724 1.532ZM42.977 31.264c.336-.797.714-1.204 1.298-1.772.526-.511.855-.651 1.55-.779.548-.1 1.334-.094 1.84.193.452.257 1.432.953 1.696 1.444.042.08.108.264.135.376-.145-.143-.063-.11-.21-.316-.304-.424-1.289-1.041-1.732-1.262-.652-.325-2.301-.146-2.886.317-.756.6-1.098 1.03-1.69 1.799Z" fill="#694F33"/><path fill-rule="evenodd" clip-rule="evenodd" d="M49.313 33.131c-.186.835-.557 1.54-1.193 2.04-.702.553-1.782.759-2.623.71-.493-.028-.807-.152-1.152-.55.042.022.34.177.392.199.652.279 1.701.038 2.344-.18 1.314-.448 1.548-.983 2.232-2.219Z" fill="#694F33"/><path fill-rule="evenodd" clip-rule="evenodd" d="M43.752 29.038c-.519.44-1.146 2.058-1.152 2.775-.012 1.226.102 2.613.915 3.514.397.44 1.127.992 1.7 1.085.91.148-.633-.123.452.07-.45.069-.712.071-1.13-.139-.962-.481-1.704-1.16-2.019-2.32-.153-.566-.226-1.806-.153-2.377.073-.56.87-2.624 1.387-2.608ZM47.559 29.294c.447.263.722.52 1.025.964.502.737.493 1.198.537 2.091.028.572-.363 1.872-.806 2.2-.26.194-1.186.476-1.509.501.17-.094.344-.173.518-.258.528-.257.916-.265 1.156-.89.344-.896.363-1.3.334-2.238-.032-1.047-.636-1.685-1.255-2.37ZM49.086 23.076c1.483.26 2.227 1.085 3.095 2.393.722 1.086 1.54 2.613 1.669 3.983.045.481.08.71.073 1.212-.007.491.09 1.908-.05 2.286l-.07.13c.115-.71-.055-1.672-.073-2.425-.012-.48-.058-.724-.117-1.187-.183-1.44-1.577-3.918-2.453-4.985-.834-1.018-1.132-.896-2.074-1.407ZM47.892 25.865c.552-.055.96.096 1.44.397.917.572 1.667 1.588 2.265 2.541.36.573.388 1.11.596 1.742.182.553.082 1.027.106 1.61.025.642.015.792-.258 1.386.13-.673.161-.7.095-1.37-.052-.531.018-1.041-.163-1.524-.23-.612-.258-1.11-.618-1.642-.376-.558-.713-1.147-1.144-1.656-.73-.864-1.287-1.244-2.319-1.484ZM39.832 32.057c.169.89.242 1.443.535 2.329.297.9.723 1.73 1.295 2.448.653.821 1.137 1.121 2.02 1.543.298.142.176.077.458.255a6.353 6.353 0 0 1-.99-.318c-.951-.39-1.731-1.202-2.307-2.123-.57-.91-1.152-3.03-1.011-4.134ZM38.875 28.577c-.562.839-.638 2.528-.639 3.583 0 1.224.166 1.769.445 2.917.213.873.411 1.678.832 2.455l-.126-.107c-.482-.523-1.12-2.893-1.321-3.707-.273-1.099-.025-3.552.403-4.585.13-.312.166-.382.406-.556Z" fill="#694F33"/><path fill-rule="evenodd" clip-rule="evenodd" d="M45.393 30.65c-.047-.099.6-.283.676-.294 1.208-.185 1.715.965 1.575 2.149-.103.873-.482 1.11-1.193 1.237-.176.032-.187.023-.343.11-.058.032-.65-.06-.737-.081.24-.064.44-.078.68-.075a.61.61 0 0 1 .256-.125c.62-.191.99-.245 1.05-1.1.048-.699-.044-1.607-.726-1.87-.572-.222-1.113.068-1.238.048Z" fill="#694F33"/><path fill-rule="evenodd" clip-rule="evenodd" d="M44.596 30.445c-.6.426-.778 2.1-.53 2.825.136.4.528.868.862 1.062.094.055.23.07.312.144.428.111 1.907-.395 2.224-.813.139-.183.123-.23.322-.455-.194.474-.229.648-.647.934-.256.176-1.658.845-2.04.594-.28-.103-.343-.1-.592-.312-.726-.616-.9-1.515-.728-2.474.056-.308.411-1.581.816-1.505Zm.646 4.032a.201.201 0 0 1 .037.046.13.13 0 0 0-.037-.046Z" fill="#694F33"/><path fill-rule="evenodd" clip-rule="evenodd" d="M45.097 31.187c-.346.271-.398.82-.287 1.242.197.746.984.975 1.57.628l.198-.13-.131.226c-.162.192-.425.286-.653.303-.706.054-1.231-.366-1.26-1.183-.01-.334.188-1.234.563-1.086Z" fill="#694F33"/><path fill-rule="evenodd" clip-rule="evenodd" d="M45.644 31.315c.238-.074.366-.037.563.159.63.622.235 1.623-.614.932-.094-.076-.118-.126-.109-.247.165.12.715.421.73.03.018-.468-.237-.691-.57-.874ZM54.51 29.396c.143.83.244 3.103.176 3.931a12.773 12.773 0 0 1-1.289 4.631c-.411.834-.788 1.116-1.515 1.534l.003-.003c-.04.03-.019.017-.064.038.011-.024.02-.053.042-.07 1.028-.866 1.057-.84 1.597-2.199.544-1.368 1.011-3.454 1.03-4.95.01-.83-.07-2.16.02-2.912ZM36.823 33.464c.175 1.407.182 1.684.697 3 1.013 2.591 1.274 3.709 3.72 5.086.546.306 1.155.686 1.692 1.022-.61-.156-1.195-.551-1.768-.836-1.809-.899-2.697-1.826-3.418-3.927-.498-1.451-1.071-2.743-.923-4.345ZM41.382 33.924c.319.594 1.685 2.822 2.21 3.04.552.229 1.694.403 2.293.388.559-.015.848-.078 1.386-.22.815-.214.376.225 1.333-.377.365-.23.311-.164.65-.28.403-.139 1.13-1.153 1.302-1.627.13-.358.156-.435.33-.796-.262.999-.262 1.167-.86 1.965-.708.942-.59.476-1.297.957-1.006.683-.635.233-1.38.455-.442.13-.757.227-1.221.256-.698.044-1.96-.18-2.602-.468-.328-.147-.719-.724-.93-1.033-.415-.607-1.022-1.534-1.214-2.26ZM50.27 24.049c-1.196-.639-1.957-.916-3.3-.939-.475-.008-.888-.082-1.392-.078-1.504.01-1.69-.015-3.092.548-.571.23-2.23 1.078-2.656 1.521l-.09.099.055-.132c.277-.488 2.104-1.503 2.61-1.73 1.358-.61 1.682-.668 3.175-.628.51.013.907.1 1.386.128 1.058.061 2.5.39 3.305 1.21ZM42.614 27.656c.178-.57 1.169-.83 1.669-1.169.936-.635 2.329-.438 3.329-.098.822.28 1.121.346 1.687 1.126.142.194.12.176.228.405l-.004-.005c.016.02.01.009.02.035-.017-.001-.029 0-.04-.014-.728-.912-.91-.992-1.954-1.283-.867-.242-2.334-.441-3.142.04-.662.394-1.259.395-1.793.963Z" fill="#694F33"/><path d="m8.429 50-.39-9.501H9.99c.589-.537 1.132-1.251 1.63-2.145.498-.905.91-2.072 1.239-3.502.34-1.43.543-3.195.611-5.296l.441-6.72-2.46-.468v-2.765h21.165v2.765l-2.665.502V40.5h3.021L32.532 50h-4.176v-5.999H12.638V50H8.43Zm6.772-9.501h10.133V23.122h-6.823l-.407 6.434c-.068 1.676-.227 3.19-.476 4.542-.248 1.351-.582 2.558-1 3.62-.408 1.05-.884 1.976-1.427 2.78ZM58.945 44.001v-2.748l2.665-.503V22.87l-2.665-.502v-2.765h9.845v2.765l-2.564.502v6.921h2.326l4.837-6.87c.973-1.34 1.862-2.262 2.665-2.765.803-.514 1.703-.771 2.699-.771.61 0 1.154.072 1.63.218.475.145.922.346 1.34.603l-.764 3.402a8.104 8.104 0 0 0-.696-.151 3.456 3.456 0 0 0-.594-.05 2.6 2.6 0 0 0-1.425.435c-.453.28-.974.805-1.562 1.575l-4.175 5.664 7.128 9.753 2.546.419V44h-9.437v-2.748l1.51-.218-.05-.067-5.024-7.088h-2.954v6.87l2.564.503V44h-9.845ZM0 11.124v-.99l.96-.18V3.517L0 3.336v-.995h3.58v.995l-.959.181v2.642H6.38V3.517l-.96-.181v-.995h3.582v.995l-.96.181v6.437l.96.18v.99H5.42v-.99l.96-.18V7.426H2.62v2.528l.96.18v.99H0ZM9.813 11.124v-.99l.96-.18V3.517l-.96-.181v-.995h3.581v.995l-.966.181v4.277l.037.012L16.2 4.024v-.507l-.954-.181v-.995h3.581v.995l-.96.181v6.437l.96.18v.99h-3.58v-.99l.953-.18V5.785l-.037-.012-3.733 3.795v.386l.965.18v.99h-3.58ZM19.504 11.124v-.99l.96-.18V3.517l-.96-.181v-.995h3.544v.995l-.922.181v2.491h.837l1.741-2.473c.35-.483.67-.814.96-.995.289-.185.613-.278.971-.278.22 0 .416.026.587.079.17.052.332.124.482.217l-.274 1.224a2.915 2.915 0 0 0-.251-.054 1.243 1.243 0 0 0-.214-.018c-.18 0-.35.052-.513.157-.163.1-.35.29-.562.567l-1.503 2.039 2.566 3.51.916.152v.989h-3.397v-.99l.544-.078-.018-.024-1.81-2.552h-1.062v2.474l.922.18v.99h-3.544ZM31.81 11.25a3.916 3.916 0 0 1-1.618-.325 3.691 3.691 0 0 1-1.253-.93 4.307 4.307 0 0 1-.8-1.41 5.441 5.441 0 0 1-.282-1.786v-.133c0-.644.094-1.235.281-1.774a4.226 4.226 0 0 1 .8-1.411c.351-.402.767-.714 1.247-.935a3.856 3.856 0 0 1 1.62-.332c.607 0 1.152.11 1.637.332a3.64 3.64 0 0 1 1.259.935c.35.398.617.868.8 1.411.188.54.282 1.13.282 1.774v.133c0 .647-.094 1.242-.282 1.785a4.164 4.164 0 0 1-.8 1.412 3.613 3.613 0 0 1-1.253.929 3.99 3.99 0 0 1-1.637.326Zm0-1.29c.522 0 .954-.131 1.296-.392.342-.266.597-.636.764-1.11.171-.475.257-1.028.257-1.66v-.144c0-.623-.086-1.17-.257-1.641-.171-.47-.43-.838-.776-1.104-.342-.265-.772-.398-1.29-.398-.505 0-.926.133-1.264.398-.338.261-.593.627-.764 1.098-.167.47-.25 1.02-.25 1.647v.145c0 .627.083 1.18.25 1.659.171.474.426.844.764 1.11.342.261.766.392 1.27.392ZM36.412 11.124v-1.26h.238c.277-.017.507-.085.69-.206.184-.125.328-.318.434-.579.106-.265.186-.617.239-1.056.053-.442.083-.993.091-1.653l.055-2.853-.934-.181v-.995h7.833v.995l-.96.181v6.437l.96.18v.99h-3.575v-.99l.96-.18V3.607h-2.628l-.049 2.763c-.016.845-.085 1.569-.207 2.172-.118.603-.298 1.096-.538 1.478a2.227 2.227 0 0 1-.898.838c-.363.178-.795.266-1.296.266h-.415ZM45.834 11.124v-.99l.96-.18V3.517l-.96-.181v-.995h3.58v.995l-.959.181v2.148h1.669c.676 0 1.258.112 1.747.337.489.222.864.533 1.124.935.265.403.398.877.398 1.424 0 .551-.133 1.036-.398 1.454a2.624 2.624 0 0 1-1.13.965c-.489.23-1.07.344-1.741.344h-4.29Zm2.621-1.26h1.669c.521 0 .92-.144 1.197-.43.277-.285.416-.647.416-1.085 0-.418-.137-.758-.41-1.02-.273-.265-.674-.398-1.203-.398h-1.669v2.932ZM58.293 11.25c-.872 0-1.623-.18-2.255-.542a3.66 3.66 0 0 1-1.448-1.526c-.338-.66-.507-1.432-.507-2.317v-.26c0-.852.165-1.608.495-2.268.33-.66.802-1.178 1.418-1.556.615-.378 1.348-.567 2.2-.567.598 0 1.156.086 1.674.26.517.168.973.418 1.368.747v2.076h-1.252l-.171-1.346a2.502 2.502 0 0 0-.972-.404 3.225 3.225 0 0 0-.61-.054c-.522 0-.968.129-1.34.386-.37.253-.655.611-.855 1.074-.195.462-.293 1.01-.293 1.64v.272c0 .64.104 1.192.312 1.659.207.466.503.826.886 1.08.387.25.847.374 1.38.374.266 0 .528-.028.789-.085.26-.06.493-.138.697-.235l.177-1.237h1.24v2.058a4.879 4.879 0 0 1-1.27.555 6.015 6.015 0 0 1-1.663.217ZM62.216 11.124v-.99l.96-.18V3.517l-.96-.181v-.995h3.544v.995l-.923.181v2.491h.837l1.742-2.473c.35-.483.67-.814.96-.995.288-.185.612-.278.97-.278.22 0 .416.026.587.079.172.052.332.124.483.217l-.275 1.224a2.922 2.922 0 0 0-.25-.054 1.245 1.245 0 0 0-.214-.018c-.18 0-.35.052-.513.157-.163.1-.35.29-.563.567l-1.503 2.039 2.567 3.51.916.152v.989h-3.397v-.99l.544-.078-.019-.024-1.808-2.552h-1.064v2.474l.923.18v.99h-3.544ZM71.223 11.124v-.99l.96-.18V3.517l-.96-.181v-.995h3.58v.995l-.965.181v4.277l.037.012 3.733-3.782v-.507l-.953-.181v-.995h3.58v.995l-.959.181v6.437l.96.18v.99h-3.581v-.99l.953-.18V5.785l-.037-.012-3.733 3.795v.386l.965.18v.99h-3.58ZM80.987 11.124v-.99l.96-.18V3.517l-.96-.181v-.995h3.58v.995l-.965.181v4.277l.037.012 3.734-3.782v-.507l-.954-.181v-.995H90v.995l-.96.181v6.437l.96.18v.99h-3.58v-.99l.953-.18V5.785l-.037-.012-3.734 3.795v.386l.966.18v.99h-3.58Zm4.51-9.344c-.644 0-1.155-.163-1.534-.489-.375-.326-.556-.744-.544-1.255L83.431 0h1.15a.87.87 0 0 0 .219.61c.147.156.379.235.697.235.305 0 .531-.079.678-.236A.843.843 0 0 0 86.4 0h1.149l.012.036c.008.51-.175.93-.55 1.255-.37.326-.876.489-1.515.489Z" fill="#1E1000"/></svg>