<?xml version="1.0" encoding="utf-8"?><svg viewBox="0 0 96 96" xmlns="http://www.w3.org/2000/svg" xmlns:xlink="http://www.w3.org/1999/xlink"><style>:root>svg{display:none}:root>svg:target{display:block}</style><svg fill="none" viewBox="0 0 40 28" id="icon-burger" xmlns="http://www.w3.org/2000/svg"><path d="M0 1.5A1.5 1.5 0 0 1 1.5 0h37a1.5 1.5 0 0 1 0 3h-37A1.5 1.5 0 0 1 0 1.5Zm8 13A1.5 1.5 0 0 1 9.5 13h29a1.5 1.5 0 0 1 0 3h-29A1.5 1.5 0 0 1 8 14.5Zm-8 12A1.5 1.5 0 0 1 1.5 25h37a1.5 1.5 0 0 1 0 3h-37A1.5 1.5 0 0 1 0 26.5Z" fill="currentColor"/></svg><svg fill="none" viewBox="0 0 50 50" id="icon-cash" xmlns="http://www.w3.org/2000/svg"><path d="M19.141 19.531a.976.976 0 1 0-.002-1.952.976.976 0 0 0 .002 1.952Z" fill="#9B0A0A"/><path d="M25 15.625c-.757 0-1.518.068-2.263.202a.976.976 0 0 0 .345 1.922A10.878 10.878 0 0 1 25 17.578c5.923 0 10.742 4.82 10.742 10.742 0 5.924-4.819 10.742-10.742 10.742-5.923 0-10.742-4.818-10.742-10.741 0-2.29.714-4.477 2.063-6.324a.976.976 0 0 0-1.576-1.152 12.583 12.583 0 0 0-2.44 7.476c0 7 5.695 12.694 12.695 12.694s12.696-5.694 12.696-12.694c0-7-5.696-12.696-12.696-12.696Z" fill="#9B0A0A"/><path d="m48.563 29.158-2.47-3.28v-7.324c0-5.924-4.818-10.742-10.741-10.742h-7.045l.652-1.956a2.932 2.932 0 0 0 2.877-2.927A2.933 2.933 0 0 0 28.906 0a2.933 2.933 0 0 0-2.93 2.93c0 .937.444 1.773 1.131 2.31l-.857 2.572h-2.5l-.857-2.573a2.925 2.925 0 0 0 .271-4.38A2.933 2.933 0 0 0 21.094 0a2.933 2.933 0 0 0-2.93 2.93c0 1.598 1.286 2.9 2.877 2.928l.652 1.955h-7.045c-5.923 0-10.742 4.818-10.742 10.742v7.358l-2.467 3.24-.007.01C.482 30.446 0 31.806 0 33.203c0 3.263 2.748 6.277 7.738 8.489 4.702 2.083 10.833 3.23 17.262 3.23 6.43 0 12.56-1.147 17.262-3.23 4.99-2.21 7.738-5.226 7.738-8.49 0-1.396-.482-2.756-1.437-4.044ZM28.906 1.953a.978.978 0 0 1 0 1.953.978.978 0 0 1 0-1.953Zm-8.789.976a.977.977 0 0 1 1.953 0 .977.977 0 0 1-1.953 0Zm-5.469 6.836h20.704c4.846 0 8.788 3.944 8.788 8.79v4.487a17.272 17.272 0 0 1-1.977-5.467 7.103 7.103 0 0 0-7-5.856h-20.8c-.639 0-1.273.089-1.884.264-1.185.341-2.249 1.05-3.076 2.05a7.39 7.39 0 0 0-1.546 3.317 19.647 19.647 0 0 1-1.998 5.6v-4.396c0-4.846 3.944-8.789 8.79-8.789ZM41.47 39.906C37.077 41.853 31.074 42.97 25 42.97c-6.074 0-12.077-1.116-16.47-3.063-4.18-1.852-6.577-4.294-6.577-6.703 0-.967.351-1.934 1.044-2.872l2.727-3.582.045-.057a21.61 21.61 0 0 0 4.007-8.974 5.432 5.432 0 0 1 1.132-2.44c.576-.696 1.305-1.187 2.11-1.417.437-.126.89-.19 1.345-.189h20.801a5.152 5.152 0 0 1 5.077 4.248 19.228 19.228 0 0 0 3.559 8.16l3.198 4.246c.697.94 1.05 1.907 1.05 2.877 0 2.409-2.399 4.851-6.578 6.703Z" fill="#9B0A0A"/></svg><svg fill="none" viewBox="0 0 40 40" id="icon-close" xmlns="http://www.w3.org/2000/svg"><path fill-rule="evenodd" clip-rule="evenodd" d="M8.182 6.06A1.5 1.5 0 1 0 6.06 8.183l12.021 12.02-12.02 12.022a1.5 1.5 0 1 0 2.121 2.12l12.02-12.02 12.021 12.02a1.5 1.5 0 1 0 2.122-2.12L22.324 20.203l12.02-12.021a1.5 1.5 0 1 0-2.12-2.121L20.203 18.08 8.182 6.062Z" fill="currentColor"/></svg><svg fill="none" viewBox="0 0 96 96" id="icon-good" xmlns="http://www.w3.org/2000/svg"><circle cx="48" cy="48" r="35" fill="#4AB67C"/><path d="m37.916 48.5 7.917 8.125 15.834-16.25" stroke="#fff" stroke-width="2" stroke-linecap="round" stroke-linejoin="round"/></svg><svg fill="none" viewBox="0 0 50 50" id="icon-map" xmlns="http://www.w3.org/2000/svg"><path d="M4.027 25.718a.734.734 0 0 0 .714-.9c-.068-.295-.211-.905-.01-1.17.142-.187.524-.3 1.072-.32 2.177-.076 2.845-1.081 3.49-2.055.346-.52.703-1.06 1.355-1.564.64-.497.915-.506.96-.504.04.043.326.411.22 2.025-.054.847.108 1.47.5 1.901.55.607 1.347.634 1.99.656.288.01.56.02.758.075.623.173 1.17.118 1.61.074.27-.027.55-.056.609.01.292.318.627.474.993.466.69-.02 1.16-.59 1.869-1.455l.201-.245a.533.533 0 0 1 .082-.083c.101.022.326.159.478.25.542.33 1.36.827 2.38.39 1.122-.48 1.412-.836 1.961-1.597.2-.275.447-.617.823-1.067.664-.79 1.624-1.02 2.02-.837.063.029.254.117.163.645-.129.756.017 1.325.433 1.69.721.634 1.845.288 2.666.036.187-.058.4-.123.493-.136.072-.006.285.044.427.08.71.176 2.188.54 2.92-1.555.496-1.415.858-1.467 1.934-1.625.118-.017.237-.035.355-.054 2.386-.382 2.83-1.944 3.19-3.199.101-.357.197-.693.33-1 .218-.504.621-.763 1.131-1.09.655-.42 1.47-.943 1.814-2.11.165-.56.636-.882.89-.964-.008.143-.055.397-.211.782-.552 1.353-.665 2.098-.405 2.663.239.517.715.674 1 .769.11.036.214.072.264.105a1.519 1.519 0 0 0 .84-1.2 2.373 2.373 0 0 0-.644-.295 4.481 4.481 0 0 1-.127-.045c.002-.144.057-.533.428-1.444.429-1.051.427-1.846-.003-2.363-.318-.383-.822-.536-1.379-.42-.779.16-1.736.899-2.059 1.998-.19.643-.612.915-1.199 1.29-.604.388-1.288.828-1.684 1.74a9.372 9.372 0 0 0-.395 1.182c-.33 1.156-.548 1.92-2.012 2.154a13.9 13.9 0 0 1-.337.05c-1.19.176-2.315.34-3.102 2.592-.294.838-.501.786-1.188.617-.318-.079-.646-.16-.993-.107-.203.03-.437.101-.708.184-.277.085-.978.301-1.245.26a1.187 1.187 0 0 1 .02-.338c.175-1.023-.196-1.854-.99-2.223-1.104-.51-2.754.03-3.76 1.227-.41.49-.675.856-.887 1.15-.448.62-.555.768-1.351 1.11-.297.126-.533.013-1.041-.295-.503-.307-1.55-.942-2.451.15l-.206.25c-.248.302-.544.665-.734.839-.542-.512-1.21-.444-1.75-.39-.366.036-.712.071-1.07-.028-.366-.103-.74-.115-1.102-.128-.384-.012-.82-.027-.952-.174-.05-.054-.162-.245-.124-.822.078-1.198.06-2.855-.997-3.417-1.018-.541-2.167.35-2.545.642-.84.652-1.304 1.35-1.677 1.912-.578.872-.897 1.351-2.32 1.401-1.023.036-1.759.337-2.185.895-.622.813-.372 1.88-.252 2.393a.732.732 0 0 0 .712.566Zm44.52-4.587a21.62 21.62 0 0 0-.603-.708c-.888-1.01-1.153-1.39-.896-2.021.058-.143.11-.297.153-.456a.732.732 0 0 0-1.413-.384 2.507 2.507 0 0 1-.097.287c-.62 1.523.28 2.548 1.152 3.54.185.212.378.43.564.663.645.797 1.074 2.102 1.13 2.723-1.515-.393-2.36-1.095-2.516-2.09l-.04-.264c-.179-1.174-.364-2.388-1.393-2.645-.647-.162-1.48.053-2.027.521a1.86 1.86 0 0 0-.658 1.62c.018.197.045.404.072.623.099.765.247 1.919-.18 2.21-1.054.721-1.167 1.843-1.287 3.03-.027.258-.052.524-.089.798-.104.784.177 1.2.431 1.41.641.533 1.561.228 2.3-.016.164-.054.319-.106.433-.134.266-.067.64.402 1.177 1.475.157.315.331.584.485.822.509.785.91 1.404.459 3.521-.197.923-.482 1.225-.574 1.274-.07-.045-.197-.254-.12-.504.325-1.057.317-1.877-.023-2.438a1.435 1.435 0 0 0-.998-.676c-.436-.079-.71-.02-1.012.222-.077.06-.28.223-1.303.397-1.148.197-1.37.014-1.907-.426a6.856 6.856 0 0 0-.97-.692c-.713-.411-1.23-.3-1.539-.134-.904.487-1.032 1.872-1.165 4.09-.019.313-.086.531-.188.614-.233.188-.976.075-1.572-.015-.709-.108-1.511-.23-2.243-.063-.997.228-1.717-.03-2.295-.24-.345-.124-.641-.23-.959-.23-.765 0-.977.743-1.067 1.06-.031.11-.09.311-.137.376-.035.005-.17.014-.462-.089-1.482-.52-2.367.035-2.954.402-.315.198-.503.31-.705.31-.66 0-2.24-.167-2.659-1.719-.42-1.556-1.632-1.674-2.284-1.738a6.304 6.304 0 0 1-.23-.025c-.26-1.525-1.848-1.599-3.836-1.691-1.313-.062-1.919.292-2.09 1.221a1.996 1.996 0 0 1-.019.1.79.79 0 0 1-.162.056c-.925.23-1.875-.937-1.99-1.292-.194-.602-.875-1.551-3.236-1.13-1.315.235-1.4 1.52-1.447 2.21a9.158 9.158 0 0 1-.026.343c-.89.076-1.302 1.008-1.58 1.674-.197-.673-.591-1.575-1.79-2.238-.309-.171-.681-.453-.7-.825a.7.7 0 0 1 .154-.459c.54.014 2.137-.035 2.802-1.044.28-.422.487-1.153-.11-2.236a2.6 2.6 0 0 1-.306-1.702.733.733 0 0 0-1.449-.219 4.07 4.07 0 0 0 .473 2.628c.184.335.247.605.17.723-.206.313-1.178.427-1.616.384-.688-.069-1.278.6-1.485 1.264-.126.403-.4 1.796 1.359 2.767.872.483 1.025 1.089 1.172 1.674.118.465.295 1.168 1.048 1.318.938.188 1.34-.777 1.607-1.416.103-.25.292-.702.426-.83.393.024.66-.125.815-.258.426-.362.465-.94.499-1.45.047-.717.11-.842.24-.866 1.062-.19 1.537-.014 1.587.14.325 1.004 1.939 2.71 3.738 2.26 1.077-.267 1.205-.972 1.268-1.312v-.004c.093-.016.269-.032.58-.018.929.043 1.732.09 2.165.23.282.09.29.157.305.316.102 1.026 1.061 1.12 1.522 1.165.608.06.862.106 1.012.662.703 2.6 3.295 2.802 4.073 2.802.633 0 1.105-.296 1.484-.534.527-.33.873-.547 1.69-.26.657.23 1.19.233 1.627.007.541-.28.732-.815.84-1.18l.146.052c.678.243 1.702.612 3.118.29.461-.106 1.089-.01 1.696.082.973.148 1.978.301 2.714-.294.439-.355.684-.915.73-1.665.051-.86.144-2.414.38-2.84a.913.913 0 0 1 .13.065c.317.183.549.373.773.556.77.632 1.401 1.025 3.082.737 1.09-.186 1.547-.396 1.83-.592.045.12.08.49-.14 1.213-.212.686-.037 1.448.45 1.94.4.405.946.558 1.464.407.537-.156 1.252-.697 1.611-2.381.578-2.71-.053-3.683-.66-4.624a6.79 6.79 0 0 1-.406-.68c-.491-.981-1.313-2.623-2.842-2.241a6.76 6.76 0 0 0-.538.164c-.206.068-.584.193-.824.229a26.3 26.3 0 0 0 .1-.882c.111-1.102.185-1.646.656-1.968 1.166-.798.958-2.42.806-3.605-.027-.206-.05-.4-.067-.57a.4.4 0 0 1 .152-.375c.21-.18.534-.235.682-.22.146.198.26.947.337 1.45l.04.27c.185 1.186 1.027 2.733 3.986 3.377.512.11.97-.073 1.23-.491.678-1.1-.416-3.646-1.24-4.665Z" fill="#9B0A0A"/></svg><svg fill="none" viewBox="0 0 28 28" id="icon-phone" xmlns="http://www.w3.org/2000/svg"><path d="m25.573 18.231-2.66-.995a3.717 3.717 0 0 0-4.091 1.01l-2.567 2.879a21.202 21.202 0 0 1-9.333-9.334l2.816-2.613a3.702 3.702 0 0 0 1.026-4.091l-.995-2.66A3.733 3.733 0 0 0 6.222 0H2.318A2.318 2.318 0 0 0 0 2.318 25.713 25.713 0 0 0 25.682 28 2.317 2.317 0 0 0 28 25.682v-3.904a3.733 3.733 0 0 0-2.427-3.547Z" fill="currentColor"/></svg><svg fill="none" viewBox="0 0 50 50" id="icon-quality" xmlns="http://www.w3.org/2000/svg"><g clip-path="url(#ga)" fill="#9B0A0A"><path d="M38.313 22.078a2.875 2.875 0 0 0-2.87-2.87h-5.276c1.282-1.442 2.12-3.082 2.281-4.554a3.165 3.165 0 0 0-.761-2.449 2.753 2.753 0 0 0-2.054-.942h-.027a2.86 2.86 0 0 0-2.024.83 2.836 2.836 0 0 0-.845 2.017c-.028.167-.322.743-1.041 1.427-.59.56-1.607 1.33-3.108 1.817-.589.192-1.127.543-1.6 1.047-.248.263-.62.628-1.08.994a1.607 1.607 0 0 0-.754-.188h-5.01a1.62 1.62 0 0 0-1.618 1.618v13.36a1.62 1.62 0 0 0 1.618 1.618h5.01a1.62 1.62 0 0 0 1.416-.834h12.785a2.455 2.455 0 0 0 2.112-3.7 2.454 2.454 0 0 0 .835-3.34 2.452 2.452 0 0 0 .75-3.476 2.87 2.87 0 0 0 1.261-2.376Zm-2.87 1.303h-.418a.784.784 0 0 0 0 1.567.889.889 0 0 1 0 1.774h-.835a.783.783 0 1 0 0 1.566.888.888 0 0 1 0 1.774h-.835a.783.783 0 0 0 0 1.566.889.889 0 0 1 0 1.776H20.772v-7.568a.783.783 0 0 0-1.565 0v8.35a.053.053 0 0 1-.015.037.052.052 0 0 1-.038.015h-5.01a.051.051 0 0 1-.037-.015.051.051 0 0 1-.015-.037V20.825c0-.03.023-.053.052-.053h5.01c.029 0 .053.024.053.052v1.67a.783.783 0 0 0 1.565 0v-1.669c0-.038-.002-.076-.005-.113.486-.378.941-.792 1.362-1.24.29-.309.608-.52.942-.628 1.843-.599 3.083-1.563 3.799-2.265.897-.88 1.432-1.799 1.432-2.456 0-.348.136-.673.382-.917a1.315 1.315 0 0 1 .935-.377c.439.004.73.228.896.416.286.321.426.785.377 1.238-.171 1.555-1.415 3.478-3.17 4.898a.784.784 0 0 0 .493 1.391h7.228a1.306 1.306 0 0 1 0 2.61Z"/><path d="M16.65 30.89a.79.79 0 0 0-.787.786.79.79 0 0 0 .786.787.79.79 0 0 0 .788-.787.79.79 0 0 0-.788-.787Z"/><path d="m48.604 25 1.345-3.558a.783.783 0 0 0-.121-.767l-2.379-2.969.179-3.8a.783.783 0 0 0-.352-.692l-3.18-2.089-1.003-3.67a.783.783 0 0 0-.55-.548l-3.669-1.003-2.09-3.18a.784.784 0 0 0-.69-.352l-3.8.179L29.325.172a.783.783 0 0 0-.767-.121L25 1.396 21.441.05a.782.782 0 0 0-.767.121L17.705 2.55l-3.8-.179a.782.782 0 0 0-.69.352l-2.09 3.18-3.67 1.004a.783.783 0 0 0-.548.548l-1.003 3.67-3.18 2.09a.784.784 0 0 0-.353.69l.179 3.8-2.38 2.97a.783.783 0 0 0-.121.767L1.395 25 .05 28.559a.783.783 0 0 0 .121.767l2.379 2.969-.179 3.8a.783.783 0 0 0 .352.69l3.18 2.09 1.004 3.67a.783.783 0 0 0 .548.548l3.67 1.003 2.09 3.18a.786.786 0 0 0 .69.353l3.8-.179 2.97 2.379a.782.782 0 0 0 .766.121L25 48.604l3.558 1.346a.784.784 0 0 0 .767-.121l2.969-2.379 3.8.179a.783.783 0 0 0 .692-.352l2.088-3.18 3.67-1.004a.783.783 0 0 0 .548-.548l1.004-3.67 3.18-2.09a.784.784 0 0 0 .352-.69l-.179-3.8 2.379-2.97a.783.783 0 0 0 .121-.766L48.604 25Zm-1.57.277 1.293 3.418-2.286 2.852a.782.782 0 0 0-.17.526l.172 3.65-3.054 2.006a.783.783 0 0 0-.326.448L41.7 41.7l-3.523.964a.784.784 0 0 0-.448.325l-2.007 3.054-3.649-.172a.783.783 0 0 0-.527.17l-2.851 2.286-3.418-1.292a.783.783 0 0 0-.554 0l-3.417 1.292-2.852-2.286a.784.784 0 0 0-.526-.17l-3.65.172-2.006-3.054a.783.783 0 0 0-.448-.326L8.3 41.7l-.964-3.524a.784.784 0 0 0-.325-.447l-3.054-2.007.173-3.649a.782.782 0 0 0-.172-.526l-2.285-2.852 1.292-3.418a.783.783 0 0 0 0-.554l-1.292-3.418 2.286-2.85a.782.782 0 0 0 .17-.527l-.172-3.65 3.054-2.006a.783.783 0 0 0 .326-.448L8.3 8.3l3.524-.964a.783.783 0 0 0 .447-.325l2.007-3.054 3.649.173a.783.783 0 0 0 .526-.172l2.852-2.285 3.418 1.292a.778.778 0 0 0 .554 0l3.418-1.292 2.85 2.286c.15.119.337.18.527.17l3.65-.172 2.006 3.054a.784.784 0 0 0 .448.325L41.7 8.3l.964 3.524a.78.78 0 0 0 .325.448l3.054 2.007-.172 3.649c-.01.19.051.378.17.526l2.286 2.852-1.292 3.418a.784.784 0 0 0 0 .554v-.001Z"/><path d="M39.71 11.482a20.396 20.396 0 0 0-1.228-1.227.783.783 0 1 0-1.059 1.152c.394.362.772.74 1.134 1.134a.78.78 0 0 0 1.286-.2.782.782 0 0 0-.133-.859Zm-4.007-3.364a20.064 20.064 0 0 0-12.8-3.01 20.033 20.033 0 0 0-12.062 5.747 19.93 19.93 0 0 0-5.84 13.32 19.924 19.924 0 0 0 4.663 13.669.781.781 0 0 0 1.38-.438.783.783 0 0 0-.181-.571 18.362 18.362 0 0 1-4.297-12.596 18.368 18.368 0 0 1 5.381-12.277 18.462 18.462 0 0 1 11.118-5.298 18.492 18.492 0 0 1 11.797 2.774.783.783 0 0 0 .84-1.321Zm6.144 6.144a.783.783 0 1 0-1.321.842A18.491 18.491 0 0 1 43.3 26.899a18.463 18.463 0 0 1-5.297 11.118 18.368 18.368 0 0 1-12.277 5.381 18.36 18.36 0 0 1-12.596-4.296.783.783 0 0 0-1.009 1.198 19.912 19.912 0 0 0 13.668 4.663 19.929 19.929 0 0 0 13.322-5.839 20.032 20.032 0 0 0 5.747-12.062 20.062 20.062 0 0 0-3.01-12.8Z"/></g><defs><clipPath id="ga"><path fill="#fff" d="M0 0h50v50H0z"/></clipPath></defs></svg><svg fill="none" viewBox="0 0 16 22" id="icon-up" xmlns="http://www.w3.org/2000/svg"><path d="M9.031.585a1.444 1.444 0 0 0-.477-.303 1.358 1.358 0 0 0-1.097 0c-.178.069-.34.172-.477.303L1.202 6.363a1.45 1.45 0 0 0 2.051 2.051l3.308-3.322v15.297a1.444 1.444 0 1 0 2.889 0V5.092l3.308 3.322a1.45 1.45 0 0 0 2.05-2.051L9.032.585Z" fill="currentColor"/></svg></svg>